<mxfile host="65bd71144e">
    <diagram id="kQlXE1W95KR-gEKp_Dub" name="Page-1">
        <mxGraphModel dx="2131" dy="880" grid="1" gridSize="10" guides="1" tooltips="1" connect="1" arrows="1" fold="1" page="1" pageScale="1" pageWidth="850" pageHeight="1100" math="0" shadow="0">
            <root>
                <mxCell id="0"/>
                <mxCell id="1" parent="0"/>
                <mxCell id="2" value="" style="shape=image;verticalLabelPosition=bottom;labelBackgroundColor=default;verticalAlign=top;aspect=fixed;imageAspect=0;image=data:image/jpeg,/9j/4AAQSkZJRgABAQAAAQABAAD/2wCEAAYGBgYHBgcICAcKCwoLCg8ODAwODxYQERAREBYiFRkVFRkVIh4kHhweJB42KiYmKjY+NDI0PkxERExfWl98fKcBBgYGBgcGBwgIBwoLCgsKDw4MDA4PFhAREBEQFiIVGRUVGRUiHiQeHB4kHjYqJiYqNj40MjQ+TERETF9aX3x8p//CABEIAx8GQAMBIgACEQEDEQH/xAAtAAADAQEBAAAAAAAAAAAAAAAAAgMBBAUBAQEBAAAAAAAAAAAAAAAAAAABAv/aAAwDAQACEAMQAAAC9QwTcAk6NZoEpm4TZWTQFACVEpYBsuY2CUlYDdMxsEoj0GkYrqK6vS7uws7JSPji4+wkrzpWfYkUCc+iVGUCY+xNbTrWHhCgSxisyhE9bKk+UEHwBtiDFKmUInliuahQUchdYIVStZoQbgStKlaZkPiglYvVCRFcmVtJOMKQ0nlVmTYYwNjWJczQANlSRYAADJ0mUAAAmyObuaZoCPOhoABpKk6AAauqNuaumaCOiMAoAJuMgAG4GMrgGLqMqOZoACbjAaGZoI2OKMCrRQGBRgTKKGOCDhOk6EDA0AmAjGC6ASbCxtzZTNCNZVsNCUAJWjY3c0M3BKSqaYBmqZRHDc0EZQZWDcAlWQ7LoABKsShmgAE6THdGN3NJmlNm5GBglEejc0NwidJ0rQyNMBWSgaAaBC8L1oEaARtKoBgZoSrOgAAroGjCDAk7yphyE1wnPolTDkIOCyvIccFGCWUwMcE1sIvjVhpBoE6TcbV0YUErFh9QHQUrq4Ps9GTUKmC7q6LqsmmaGbgMjG4CisiPuaAAu5poYAAlJ0AAFZRtwNwDM3BgAAEedDnANAFnXnssTUsQYfEUuSC2QwevNQsSJak9MrB6qS2K5MCnO9ldjstVXKZ4UKCbDJqDPF6cTYabTKaoMYGxpKqikNmYMplUMIcRhTNp8CAMJ0m9buaAZCvKtbgQbgJSdKNzY0AheFq3c2AAnRHABTNxJ1lQ0AJ0mM2aACkqSS2rpoCkqySoAABG0S5gaZom5o2bgAE3RwADc0lSdBgADDGRwACVZFTA0zQVsAYE1gk+OKMCrTBG3RRsCdMN1QYXAebDi4MKA8WKE9HQUqKDChpgMAABOk6HOAaZpkbRs3zeg3IdmyOpKcWblIdmo/n+nz5uvxdo+5ubgsSleTroMjHQGknVq5b8ncC4wrwqj7kpaq6UMtRByJpeVA+kyhE53lQUwTKYT0wykOoTWImPtIUwRbcptB0XW1UyuHPUcQpkIOEXFs5+nh9NUbSI0StGhBuArx567xJxbOLora89RyZFZalW2ew4obGky2qDaumypItgGmBsqSLAAAIyOMYAGknnQMA3V0lWVTdzQVlMdHAAydJlNzTNAMMHDA3NFZWABTNU1lYM0MVlRgFAEzVY0zQzcFbNANMxlNNDMYE00wYFGCdJ0OcAAAjaNkK349EudBDzPZ5k5e7n7DVbM683v4e/UbQxearTpOmVSHM9oOjl6iathweny9h5PoppxN1ZZbzPWlLvF385eiOaZoSrMbc0ADIW847s5rAsWq/L08B2FeeKNfzh+lEro5joiiyYOXo5LO6vn+hLoBN50rTCA3CXF28VelpkckU6CnTw91NqtACnndvn+sGaHkenyVLOlAzQydJlM3RRgSXREcYMGBUtIYcEHBJ2UzXBBwi44uUwUcOdxyeVwm26RpjmNmmoyg66aZgyahTVBxNNxQoZgwug02GMDc1BmXTTBRWVGDTABHRzQAVlBlYzQBHQcAABdwGAAAlWVTnAAAI1jZbYhbJ4tY7NKUnhXJYc/Xy1rpJZLYlg1OZ0eFcWjS03ZUNrIiqqA8qU2pkUQWteTj4hDzaVW2ejibGeR6fJXRfNjlboys57zK6pFMzRTNpsYiN8CS7WpdC6bgROkq0AQAE+DvjXXvn9EcnN7fnHXaVKbeXqjfO9DhOfrm53Zqr5noeb6iY86AAuTrFK7mqAGStFKaAbgbKsixgumBi7iUAUAEedEDcAAnSbm4C4AiUlUNBdwxN3NAAxXmOABoZgDAAaCbjBjAuOpm7oowKtFM1gUYJPjGmBuYG6mjagPNkKagOIBs9SogriAtZ0OcAADJWjVAI3NAlSVlTNlM0FV0pzSF0Cbq1BuxmgTdKUaEAFK6PGboLjqK2PSDkJO8wHBGYIL0zoygSKBFbTAqRHaYTYajKkTKFc7bQmVCO1DmqOKtQltNOWjOSK7E1sVzR6povUCtmbHD3zen4eqUVYmO8WKEgrIlXUT2HEB4UkXEByejypIuLppgKZpQwXTNJ0nRAANwJujgAorKkejnvTGbKI80pqMaAE6SKgAAKZowAACOjmmaCsg25oAKI6I4CgCI6OaYGqygy6aYArKOAAAmmhoAASrOhzmhhuGStKm3NjQDJWkPpphoLOsqrmkYaE9AYA0AlWVKYCAASkqhuaCsoro5pmhKkimqwbgbOkxwAzcFnSdVAgzQnq4X1HAAlSVKYwgMwx5Wo0IDQjWVqAIACVY2o3Ng3NJ1jYAFJvNNdWDNDI2kUNDBgWN4lMcEHBJ3kOOCLUINr0muQhQOemUEH0nrhCmUEymE8qhGg4o4ZOyBugAGzeZYQHEDdTSggOIGUi5QTRk1CmrppgC6pQAABHnQAAVlN3NNMDUdBwAAEZWDc0ACdEcgaLgBiUREeO2V3h2XskJZfY7LYgFZCWdJMloTwbFWy5IW2TAfndLktWhMMtz0K7DYsiZTU56FCew8XhXQ3F0xQTRptOrCA4oEnmWMI0wJo6U7pkWaFCdZVrdzYxWKjfn6Q3CNMCVo1rQIACNpVo3CNAJ1lUDcUnRE1lYAFyNopYNUACF4pXNwNwNm6FQF0Ak6OmgLpmksJI/RKi6ATpKqAC4jomUVgAUnSSV1WUDTJ0klQDTAVkY00AAR0cA0xXQ03RTdEWigOCDhCg4g4ItVFbdFGDEoowYaYGajDCg+LgUnQiAuGhisqSZds5qTrLVXkUaVQhbnLK/MdZGo2IDJN6oK0Ac49J0rTdhRsqdJVDQgVlpXRjRiF5evzxutNH0DJ7lUHIQcJzvOgpkTKBBLcp0ZYJbTTnrlKXKBMphzVHMKhIsHLXKkyhCawQoNQYRuqC2hSqbPIpInXQTyLEgrHZWdOy2WgmFIvE6MXBxAZcU6BQcXSVY1NMDdzTnR1IdZYAFlWNkAFJ0kjMrAApOk0fc1dM0J0RHAUAE3NRtXTQBHRwABHQfc0wAzNwcAzQEdGNABHQbc0NzQR0HAAARlYNzQDBKToRAUADNxIZpYiJWXo4+7nCyuR57YV4+uQ20iYnShJ2yuR2rF+XqgO+aNoAASpOtEa8cZUcOfonVZ34Yrz2cq02HjSRdLSKbmgGGTpOq5pGBhPnWh1maT5HDO3yvVIU5us2eeYelWHRTMjRqshG/L005mwBEn0+VQ9LZubgCVjY0wCVZFDQzQCF4lQ0w0XJVklMbDDQQGNGBd0WLoqUIQO7VsRbKk8rpEthz1ygi1Cc+iRjNpMoCR6YhlcE1g1KKaaAYCUmwwuFSbGUkw4mFJiF9lhUmD4oVzAYUMeVDTA1GUbc0AAVkH3NAMFZWDcDcMMebk80XDQw3EhSTU2yyLTMNeTDYYNLVqxMihPRp6tUeYYr7G7NqoIDkwHg4SToCk8GeDlZbg6CFWlpXECsiZ0bPRxAaeoWFDVMjzOpa1vSuxLL4cfXOlcHoY0czuCVlWh50jcA4umV6YCDn6A8s7mHYAzcErGwaARtEsZoAKQvBLgKAGRtFLBgALN50RwF0A53XU3i6XWugSrKqABq7hOsqgApG0UpuaoAEqzRwDM0UzNSgCgBN0dABTcAZHQABHQYNMNBAB80FHwk4wo2iZRDNYFx9EWszRwQcJMMKPguPgtJ0EzRcNwM3EjRHrya8fbHZqMDpQnHo4S1JKde5oZqmoylBGNM5i7I9MaRhoSdXpW0jFdBXnSjNIyN+cy3H2VppGTrOqGhmOEcwK42k8qEFshpUJFQ52ahPLERy3EUctUXfYmVyuV2qS2gTZ8iFVpS6ZDYLWW56lBMisWSrCEUI6VjqV0EiKkgpFpV05PIsSDK89KrsyKbPBb81wNwbMCdoVGMF3BUHRwAUlWSPuBuACOg5mgaLPTUbc1QMJ0nRABdXVB50TTA2bqMAAApobuaG4COjgACPMfc0AAR0KAAAIysbgGrqmURxAFADDcSQaeJ6Odwnn+lwFq5I5ua4ehG/EdvH2eWNt7kGxCVHDq4PT4zo3GGDQzQmyuBuC8duUbsh0nGy3Kef6XCD1gUcgZQSuvj6YxdtlVJ1kQRNj0NVhUbKbk6ZQ141J1nWg3IlxV4z0ref3msumhhKsq0ARoBK0bBm4arKLWdADTJ1kVzQM3DEpIqGrhuBG0UqAYaE6TobmhmgRvGwKwKOEHypPKaSyyUuvsSKhKfTGgpsQ2uE06J0rtsLlAjuuIUCZQIvjmGhiuhlZOMJhRVUuIDkwbZMU2YUEDKRYoT0dCZbZ6OLpqmD7gaGCPOgGgI6AyuLmi4bgZuJF0oZoGKymbjUrGxkbTp50IYUMnVan0KQ3F1YayFV2RFcmBWFB1VBarpryYHQHg60IA+zCktQ6BAqS0pMQZwhhdrMwKJpEXsEqzemMI4m6EObtham3CNM0lWF6AI3AJ2jYAAVkNZWN1dNjWRXc0DBdjWaVAUzcMnSSVAAAnSNRjNAAlaFw3Bdw0lWVEAF2dJo+5qgYbGskqAuGhkqzR9zV0Am6OmmimbgjzqmG4ojomujgAojojgAAYKxoBubgrK5hoYlEAbRNYEWmGD6TKBz0KEygIlkBsYU3FM0MAI1lVkAUVlMZWNABHmOGhmhiMhQNDNBNzTQ0wMFdHNAMVlBkc3ABWQxWygAxKIU3NMNBUrMcYFGIkOVi1wXdIk+PSFMhFcrnqnQS2mktoHPTKkygSK4c9cskigqLRQojRurhSLTOgkFdlhWQldJLIqTBkUqxPIqSBbc1bK7IlqT0nfmsUJaUEBbQccXB5NI6NTRhdUm80qApgBN5pQMHAWbpRNwFACVZVQ3NXJ1mmujGhi7N0ShgaATedDQDV3DGRwABWQfc0ADADQAAEpNzQAVkN3NAAM3AzVJVlVNMFFZAdHAAJ0mUAAAydEH0AAE3NNDTM3BXnQ0wBWUx1Y0zQnSZuMCY2Vk6IU1djQDJ0WnAgAE3GpgIw3CNFpWGkYbhG8L1u5sABC8LVoEYaEbSqAAI8x3m5pmhOkioAABKsSwauG4IYyaAYbhK0LGgGmBOsqhuAGqJSdTDQWdpjbuiZQEneRuUCeVCSVKRb5CazkNZyRYI7XCFChLKhNLzFZwTXwWdUH3A0zBaSdHE1WxcNpLShPCqYhbZ6UJg2zComjChjyYoT0ebTKbmgbgAGK6nPQeo43NHSjcx0sOKMCzqlbuhhoYrYMYRoYKy6NqA64C0m1NqEMolOybDiYVmJVsUgzEp5kzo2QWIhTEwuTCggDSYoIFMTRK87FtTY3AJWhet3NgAI2hegCAMJWhcAAnSQ1EY3cDZUkWAABdjWKW3NUzQkysjYBgBGsqjGaABOsbAAauqZRHABSVZJXV1QAJVklQFABNxkDcXNMMedE0BQMEojoBikqTSm5obguKypQwNwCdJUGABWQ1kcAASiDbmgALuaaAbmhKk6Bm6KlZjMumgGG4CshjZpGF3ObOjBEJHoGTKybhPQ3NA3DFZRwAnnlHfbx+w7zg7jc55HY86AGGzdBtXBxNGQUtvN0AhIfnYp3nQ0zYXNWn3A0ATVUtikMbMRspS6+iZQIVWgmVCZUOei2JZYIlg5KNUiViNLqkYzcxdt2MjeVlQyVhQaTzL7IK5PRKx0riYUJYZblrZYiS22GhfksVJIXWTFGgxUkFotI6Nno4gPLZ10CEOIBs2HF03AJWhUoT1XxcQeNBszQnSRXc0ABcAcAAwnSbjbgajIaysaACUmPuaAAu4DGgYAjo4AGzeY+5poAAGTrIbc0zQMnSZu7phuHFzP2F9zQDDM3BgCPmexzHn9ydxwddA4m6FNedDTAEdDeXrmbDqUWXVE5++dDkS2nNS8SXVC4bgCMtUMA5+nhiyr0HLSobxejznN6PH2Vu5sABKsbUTnsdAaRaCndmcB114+oSvmdxXnNOiVeUtnneqZzTodctwroBoLkbSS2aLhFkynPynpBMpkLkq8nUbkbG7z2J283qOjl6oFkpzlKxB95+gaVZlQFA0WdYpU0XFbEm2MGPpMcOdyhPKhLLqQJ9RhQJJ0SNHYkUCWU2k1yEHwk+UFGBVogOrBuBs3QqKDiYbqhQnhQTTKQoOIDyZEruaumhgASrEYbRFoE5dE6NYhOXt5CfTVbAbZUGBMfKBkjVoHH0jUuhArYI6tWmEamrTbgMKQ02WqMhFBA2NYmmLTk8KZPDoJBYjprSYsTwqSApChTZ7FMXSdJPUNn1xlcDzu3K0RuRPXDh61sQtoHB3yObuNMjcCNolgAAUlaCXAXyfTHOCjWTeTriVNw8+yBq9mC0EOPv8/0iOsxvm+lzlufqQ5OydFeVYJ0GaoAHL08ib1YxzrmDsszopy9SgCTdHCFeQ7E2IdU6AAEqyKgEkeomKpV+a4c10NpNClOWxVdUdl0YzTEdChnGdTcnSaicp3slDcAVlY0wCdZjbjGgLhomRtEqAKc9B+WvIeiARI9YcfV5Z3v5zj9PJ6By05uweW0NXmCmcyHo7z3Nwwx0YDcMnk66Wm8aYBN51XUlHRsqic9ELqwTyi1NaSKKIUZGM2NhzMgDKysLGm7C7oRHpUWoE9oHPRaijbCDhJsqTKBNLyN19JmVJy6ZDY4TKAk7zGxwXdwlSdQDDczCdYVRtni1yaj1g5QlpWDTTp2WrrTCsdlXVsSLEgdVwuTwoJgPByjSChMMrzVKKoPzWiX1NKCg0aROgXTQCCW0j0ZokrBOVqnN0aAjzHZHGM0EeZQNI10Ia7GgAGGMjgAbKiDMum6CgCZG0SooaAJO06oBEqgLx9i0S6CEfcPN9BXrm6TY5a1Dz07dqHVpC4ymMj1uaRPj7fPqndOgAGTrMObriHSjxBt0bGUM3Sc7JXKXeI8vShzejC9S1emF4+rlN7ePsptNjACdJWo3CNzec5fQ5ek5eifQSUsRpzzK2zmOuVeQ7KLIOhWEjz9ZThup0NzdISrMqAoASpKqACgCc942A3AR5murAYGyrIsAAASrEuZoACajjGBoBN51AAACdEczGBZXkGsxMoE5dEkYfVmUCDMwg+kiqknypMoE1sguvohQJpZbDdaVBwk26YMGY2COjDCgyapTc0YBQBMjVDR8EHCa1UwcExwllCxcpqyKhDXYmUCeVCDMxIrkTWy1JmYTKKci3dN3dVRgVKIPoGmEajLVFEHJhSYpXFBiYKyaLdAoqhleapbY6UJhleehTZYWJBlea5rzaM3cFedTVYF4fQiWnTQAJFZGR7QTdBVZSgAALGsbIAAAQvCxubgSrIds0AAlWJcAAAjaJbcAAJujmhpm4ErSqABuGC0m4ABKsSu5oAGTfBtAACbo5oAKyivjAACPMfc0AARkKmaaALqsMAGbgro4AAjzH3NN0DDcFM0YAw0FVsNNDABc0rQI3AEZHA0MNwRkoYaGI6iurAAYjoNoUABN5ldwjdzQR1GNwXGysVlHNyDNCeNlMaGAEaTobuBpgJSdQDTDSIWjelH2EWqk3ygg+k59EwH0mUCc+iQFQjlw5tptilclltNOemVJ5XCZQOWm0JFQlLpijNuquOoSrNK6orkweLTs6SZLUkBSDpUli2JAW5q1QmRTFUdpaUJhSLSs6NkS1JAxMsuSJakwHhSqEyKLijPJxjA2byK6ummALqlNwNAEebjmBuGGPOgABKk0puarYBuAI09KCA4gAu05JocXRTCmMIbDBKTc0zQzcEdHoAjFZQ3NAMBGSn3NM0DJ1kVDYNzQXcHDDM3DF1aqZsABM0rTQzGwhSdDdzQNCVZ0DQjQCFpWo3NgSkwdHDc0JVkU0AM0I2iWAAAmyubmhm4ErRqbm4AYStCxoBkbQLbmgAEqxLBq4AEqTS2GrhuEqzom5oABOkbGmabN5j7jGG4E6RLABmhNlY0ADQlSdAxgVKqI2sJlAmtVsXXCZQI5XDNfRMoLFx0UfZZ5XCTjiDgiWmjtmroAAEqSqBnOdGIxjY1cdeftjRgnppmOpmcHdRowo5CZRaR8cTHCeVQUbRMoEp9CIpVBR2WSWRNH1UH0mlkGxwTHwTNwoYDC4AmlRAfJyGrJigmFSYFedypPShPYS0KVQQh0xKtsmihPCsdlZ1E9lcTRoVkXMDTAlaFRjIlgCVY2ANMzcJWjYADIXgV3NNM0I2kVAAAQzR9wXcAlSVU3cDTAlaNjTA2dJjsugAEbRK7gaASdHNANwCdJVNABHmMysAYCPIpuaAAubiOAugE3RxjA3AMebmgBKskoy6rAAARrKtk+WlJWpmibmnF38vUAAjI4Tph5PprUnw9nNT9eEQ4xy/XzdJKV+UrEnY/RMXOiPMW3VTp57ci9O5wHoouldzY0zTEdaoZyx0NGwiw6KoGxhoT3NpjVhedOoVWWrEkjozOUr0cXaY3m+kBoTpKoBpk3mUaFzAw2LKWNDDQWdpDG4YbMWqIPx2sMVUg0+hJjCrl0IUaiRy4vOnXz2Gx6ZUKAk+iIxQJzvyjsURCmrLaBy2WtimhmmCWjQcQlpJp2X2ZLQnhWDSs6SJLYiG05qWWJEtSQFeallsmS0mJVXgxQmFJbNLktKbLY0ntV2ew4mi0jSnF2Xc1TWm5pgbN0KbgOAGbhKsXpI9OxzdS4a8KU2oRTEAaT04hDZmVjzcI1gTboAdGjTAydZ1owLHoBErM2dwTm60NnSaV3Bd3CMzSnm3PFmWhxdLZTbhGgE2VqYCOXpVzlZq1z23Y5qVDm6EocvWrAYErQsNm4cS9fIHZjnB1rc87rVywAABG0Tm7kc5srQ5U1RPSRyXNPsPP9Hk6SxOpyNLrMorAApy9PCi9WIV52UtLMKdKsefZ7keTpidF+LsAAjaNgNBJ84U6/M9MnTzeg64pzno7mgAZN1HI8h6OLEpSNwAA3CVZ0CNuM6SOlt5aFsOY6E5HTqOOa+lsqCaNYG7KowSSbWc/XO8NlFF1tEHKTKLD6uq4ALqi0RwM0M1RaToAAZuCsrmYwLjpWMrijEKtErBtJjzBZ3AcEygSS6IuWxYlsIJ0IgUFmVCW7huuCNuwiVKmUwTXCTDAbgAEqI5ooMJgt4UGFBsUEvFymy2KcPVMts9KYuFIPKzpJktBFKweNnUSJakgW3NWypMlpstErzXG2ejTaZRpuaKDc9+csrhmaC8fdIruhmgQV6E6gBoQvz9AAHFH0uE6LzoBocx0SLbmgAIAc9aAcvWglZWAA1WUWkqE1sEkuhHejRefqU4qlEhP0Jrj6CMu2OZsumBxdkJIvdK66jKaysAAI00qy6rAAjzNVuM3r47FeXo5Dezj7QXn6SCyjXqUlSNABHQx80AAlXjqtvM9IOXq5orrpTaEABk6c9XOHrh8jI6ZqtlX57LQ4axUCq7hGmAurtHHTY6dRiVOK1dIs4qRuRrG9AEABKsrUAQZqk7SqAAI8ioAABKsioABpkqyKgGaBN51AAw0IWlYw3RJ3kNjaTyoSl0xpltkQzow5yy2blSWRUOdtpZLaEs8rpyWK2SKkvMnYiTZ9We0CcumVm7QlnlQgziZlMVNYIWR6DcjV1ayk2G1cHnqJVRCnOlYZsyrYilSQa0WK7MWmIIW5qFSZLRMWyjS0oTIeYVXc2VgAlWNHL1amuuSvPcpmQH2ZCpVbHeLLQnhVFwps9HJg/D1TF6puEqZDTZKqKDChvPZE2i6seX0MObbc6NUZeNOlw3NRwJdAE02uB3SN7J1PPOkrU6YxQbDzvS5uqsM5Y6zQjaNqAIFZRaToAARtIqGmABG0SwBpmmSrIqAobhG0qoAAYEOjn6AAUjaKV01cNwIXilQAzQnm6MaGG4RtGwG4ABG0qgAEbSHbNAAJWkVM0ABGVjQAAJ0lU0zQR0MdXMNDJ1iV3NAAzNwYAzGwk6ugaKZuCsrhoBOkh9ADQTGWym5srABKsSu5oAAjoNuaAAI8h9xgAMV5jgAGipRKY0jMYEWiUDAg4TyqilAmUCOVUzKBMoHOVEUqLIsHO+uTKhIqHO+0JlNJFQ5qFCK9JEioc9ClS2mQi1WpUGRRiXI3lZUMl0zB5atlxMloTBkzLLk8lsRDLc9LKEslsSDLctbK7EltEmdOx0rktKQeNnViErkwHg5UTChMEtz1SmKK+KoV57mmYNCsLOgzZQA2VJlQAAJOlDQADCdYXDcDZuhro4ABOiDbmhuaLm4MAGbgjJRABTNUx0cNzQlWRTc0ABAEcNVjNCNZFdwNACbqOAAATpMfc0AAnSY4aYbgI6DgAAYrKMAYbhmbgwAG4JjBuaGaBPcamAjTNJUnStAgAJUlagCAAlSVqNzYzNCVZVAAEeZro4AGxtEroBm4EbRSwC6AIAPmhm4E6yqGbgBhOsbBuaEqxLGAABG0ioAAEazqYaGYwQrOwmUwRaoI+sSKhFOmVmFdliWwkt0swqSyywc7bSyZUlkVDloWsiXCC9CCMzrIppOfRNMKBMcJjAboYbhN1Y3VBkFGeelCZLRMWyxMKE8G2dB9wlbcAjWNVMyHIsUTUquqQwpTJqFNQHJzOieqUaYUxCHQWrE9hhA1RaqIQ+LhohVRAcUARhjCGFBdR6YXY0AnSVKYwjRdJ0jatAgDCdYXoAgAJVlWgCCdJDsrAAEqxLbgbgBG0SwBpmk2ShoAZoSrGwZuBm4TrGxoAQtEtuBoYpKsUsAG5pGsqmgKAJC0qhm4ajoDZoABG0im5oAGTdSgAAEqSqaAABG0bBuAI8x2XTTA1GQoZpmNgoaMYGhhOk6UGkYrIaysAATpMoAaYCMj2MBKwAs6TqnH1+bHdXn6QQjXVq7GgGI/HXZvJ1xOS1qqssMaGGguMowTKGKbk3HzNDGwTcagYhBgno1ZjkIPlRfKCDkT1whQpU8qRMphBytSMcQthy2WyJlRZFcOem0JFQlPp4Uuz6syoSn0yQ2gsipEp9MrNKEs8rhz2Wti4+SruoJWdbMCctMzBbQqNqA8WnZ0EyWmT5zoSFa6dlKOojpluellSRLUkC25a2VI7LWeTsvsiKkxaS2VnRsiWpMDU2qiEOT0SsHsqISvmYLWNa0CCdI1XVaAAEeVldzZTNwTc2m3CNwwV50oAgR5jMumgBOkygAAE3nRGAVgBF3Kzm6+WOmnL1HC3UllGzZTcA8j1uanuEcXZz9IIyVUwjTNMwDJXDOXrQ4uxKCUnUimyq9J1NM2DNwm6PWzfjjr0Q5urn6qSFngN5jd4+8fnyhbn6OMXum5K0OglPbHndXOx3hpmaotJ0DQF4OxKZuSMeoKwRtGrAQACQws6w55bnJ0k68PQXktR5aCdEGKJz3G5ZuXtzdBu5qkLRSxHnO3he481w6OS4U3AnWNjQw0wJ1jU3NwJU5jo1WNwAlWJlIVBoMUzZlwDDdIwvzV1jRimaxGmVsmUJZpeVmMwJlRZpeaG00mUyWG8/VYD6SyyknHEyoSn0c5JW6xdfVklkTRtE1sJ1nQYCVgCWbtmgSgBi7lUMIbMDU3LKYpKOhWqBQnpQloxPS2IQ+LgahZUkKyga8mKEwpkwysKI2YSvi4FOe1aYQ0aBLohWjU2NlQFpC1aLsbgHnd87UwuwI8zXR6AIydY1mX2M3A2NoVczYJ0w4qutl0fZZvoc9p2JswSo2EKS6E4+phcjeYURwAUjaCIvRolgOYvIiMxXl61CkbgAABKsbGcHfM5TskUymEMj1FZVgS6odJ5nVvQct+forOKyRXp5eo5mTopcW0ZO3GL2xsQXJHdC3KP0Y4ABOkym5oTflOXv5eqxpLyS+g/B2g6OaAHB3+eL0x6DTjw9Hh6YHQ8tLgE6TomgKwBF50s0Xhl9A5LD7y9BTVBjNEDRgAAFwlUurn6oABWVjQAzQmytWgQZgK0qUxuQZoTdKVhpGY2COlKw0jMbCdEpWYxC4wTdK0uOQgrk2JVbVnFUslYMxMoE59HOOM5IrgkuiSNlCWLy6SU+idgVyVCgc75VJlRZlA5q5WplCJJeYrPpPXUyPVGxtclmUCcuidjY+SqNhGyUszcyVtTSXRCljkyWkHnVxCHEB4UnZYUlbZ4GZlmvhLTZaTvB7KbLZaQYorFh8XIrLUststloIDzEsvqEu8nVhKs3sJ2JZvq2DzcYCU5eqYts0kWDlauCWxgzQjWNrN3Nl3NwjRHTk87turTzrPM60etj2bDbgLqsMAABPl6kG870uMz0OfoEdHrQIM2RzbMq95tDwopzdnP1kfP7Q593qFjbmOi3neibm4TrKtAZHNuYWrELRjUpCVzaSYTomhRs08/u4Ow5Ono0i4DbmgAHD3efT9BkU3g07eesK65VWOfqVTn6IsdIAAEaysHK8jqbh7SVuWxQ4us2dJFNzQjTCkd5Dv2NgAFVlKEpnRmRF6vO7iiNyDdMkKV5ZHecfWbHI12RrkMTmdEqyLABmhJl0cVgMCVY1NDTFdAZWANMnWVUDYzN5iy8fVZXW2VB8JbjWA5Ki1WybMxMrkqTQsqMq7r4Sbm60wchBwjaVa3c2Xc3CO49nB3Y64aE2NDQgAEdHrTCNF0V02mFI3UKHmw4pDChjTamE2GXAneTU4hD4uUSdgpMimJlFIuPs8MyVjaRoZRMKS1TXm5rIRRMWpdcmhxAeezqwgOIDyaKWZRRsyIl5WXUJWzAmlMqxhGmBOsbC83XEZtDi7J2IXwCNpFdzRG0Jcfo8x0aAGaJhIw6GFj0YcHdKxkbBvJ14Qj0WIXA5dqtT60eOCPY5RKTqoEYaEubo5ar0rscfWtDjWdhO7m6gVlBlYNwNjWRRlY59VTGW1ltzZTNCUq81dT8PbGo6GsrGo4Ryszm5ehzpNmbVNrI82R6SPxj9fm+kjALuMpGs6hmyKCsc80vXSBAASpN6Y4OuKHDYq0uc7iNTcVhXnQ0AM3BWVjcAAwxlcw3AVlFZXMABWUx0cA0zNUGQHVpj5uAyuYaGLSY2mmGhk6zphiFNDJWlTjEKOCTtKnxyJlCo7rCa5EygQqlhMoEygc1ksTyoSl0yAqEyoSn0xp8oRIqHOl2sQqSyyoc77SyWWJZZbCLlLEHJUl0Ss0oSz1wmlp026RhoRym1pmwaoc90etaZFExKo0dLZHSs8VL7FpWk4NmJZ0bHVrk5k2ToR2mS0TFso8dKkyWk8VLCarYoJXjaxtl1RRQXl7JVTQFZWUlWVazz/QjEuuTHD6HL2UbhG5uEjaEqgcXN6sBSsK6uHv5o5u5LiURzQADCXKdRGxpzdPN0jOjhmhiPzm0QIdUrGc3TOteaFW56RjzqQotazceDm6uUaDh0UlYJ0mPuaAATpMoAYAEqyqoEbm4EqTqoEABJ0pWhkABKsrAAYAStGwABC0ioBoASrIqAABKk3GDAAI2lUAAVlFpOgbgbC0atq7GgGTpKrAQAE2VjdzQDCNo2MNAm6A6OYbgTpKq7mwAGZuDgAATdWNABWU3cYzQMSiDaAG4QKsYMC46i0m5u5pqOhNxhBgXKYSpjimgY2EnWlZoQZuCURjTA3DAabU+z0dcwKT2HxQ0XBnkwwuDrijiaNswdNSmlQG1QdBTLLsMLg89lWZbYfZhSTQrpJ6OJhRBCwhDkwpFp10CZFCejT1asJkUJ6JWL1QmQ4gLbnoUJg4oTvz0KCA0nkXJhUTRo0jZ0CkrChOsLDZgaYErRqbgArKZSdAACNoVYCNMAlWdV3CAARkc0AAwlWVTc0MnSZrZoABKkqtq7GgGBg4AYyiOjmgArIM2aAAI6DhoACMrGgArKLSdA3AaVZD7mmG4arKK6uAAZqi0nQADMZTHRwABWUNVwABWUx1YAAVlBlYw3AVlDQDNwEdBtzQDQR0G0AACdJj7mgAE6TH3NAAJ0SnNyAAydZVQ0jDcBGymNIw0JUnSg0hdAR51MNBRsJvOwowJLoibraKMGTtIYcEHCDjiZQJlA56ZQTK4TWyVN9ckVIkt50FAmUCc7qGUIQfCLFKTKkSKrUapQw3YxKIZulZjYYlJpTV1W1NAzRtUhszDHm5urg6ahVpaUJ4UXMKiA4gbs9Kkgoq4m1lRdMB5VkUM0MAM1TWRjQAVlBlYDcBWUx1YAAVlMdWAAFZQbNAAEdBtzQzcBGUbcAAMR5j7mhoBOkym4AAEqyKmaAATpMfc0AAR5lNwAAydJ1UCAAXDaYCAAlSdK0CMAJ1jU0AFZRKzoAARtIoAABsqyKgAASpOhubgAEbRsYaGI8xmVg3AJVlVQIADFZCm4G4BOk6VoECthKk6maAI8xwAAMnSNV3GDc2MAGADNUxkc0AEZRmVgAMzcGANAEZWAAFZTHnQABoXkaMC45SY+GDaKMRiugNmgACstay6aYRq6g7JowoMoo+po+KDJqj6gOTCiYhYQHEweezq2zCpPCsxC4mQ4gOglW2RFSQVkJV9nhUkFZiFyWlCeFExDoJEVJFNsWSxMloTKKQojiZK5PRbc7VYkRVVQd4tVSRFUVKvsyKEwpMnXQIQ5MMpFrKbIlrkwyvNSyuTyWs8Syry1aCEPJpVcUhxNBdWqauwACUlSmMI3DBKToAYbOkxtzQDAlWdj6C7ubGajDAGKymOjmmAI8ym5oAAu4OZoACMjmhhqMplJuaGDyog5oYAYjoPuaAAI8x9zQABHmOy6aAE3QZlYAARkH0AAMV0G3NMNDEdBtAw3DEdBtAA0Jug+5oZuAjqMaGGhk6TKBpmgYjpT6EABistMbkBoTZXrQyNAJ0nSgCMNwR0oAAI6AyuAASrMoAABiOg+gYASolAzQzGCNErS45CLRA3dFxwSd40+UyJjlSygLr6TyoQYoIUCZQiDM9SLZE0vOs12IlQjPpmgUFnrhLW0zd2FSyE2ZrEHJUSy2G6S5jAmPlm7mygCIysaYDJqFGR1ADV0R8BQAxHQoZoABOkipmgAE3Qfc00wBHmPoGmAI6FDNAAEdBwAAMR0HADNBUeZTc0DNMR0H3AAAR5lTA0wCbzKgAAE3SqgQAC5uU4EGAI8q0AQaBOk6AAABOkqgACPMZlYDA2VZFQADAnSRUAM3CdJUGAAAjaFwACdJjbjGaYEqyKhgACZpTbmxgFTpOhoEGbgtJubgBOkymqwZoLOk6oBGmhKb6O2aCPM1lYDQxWmU1dNMDBdG3NAAnRHAAJ0kjsrLoBi6yYMKgwIlUsbd2VRgWdURwFM0CdEHMDTA1GUfVBhQ2bLVdUhhQZNkXEBxAZDCogPi4NJkLE8qpPYeYpcnhQmDyZKuTIfZMNLUroJhQkFEwKiA4mRuzLLCEriKZbnpZQQV9loU56j4hDiYJ0c1aoT2HmTLbPCpMKRaVnTs8lrkwpFp2dBMlpkwykmqhPIqSDLctbLZIlrPJ2XaRLXJhSWxrqJBQkDE9K7MKEwyvPUcTRsxQpFx9TYeepVdUjTAJsllTCV9XSTqxooMjIMybTZiw8mkW1GGMBdR7HM2XTAV5UNM0I2hZVlaXQD/8QAAv/aAAwDAQACAAMAAAAhNYBSWT+uhaWayWEWWkrAobYivAxaArzcfJkNLYuwYXXIP/03TU+sY3AjxG9VKBNW99mp1/V5+1d8IBo05FNZEJJB5xdx989t004cMA7OCNuahie+KK6GvjLLPvuv7HfjGrhwXOwpvdPfX3jgVBil7jfjTvgXH0z9e9F+TnMbz/8AW7qZ5Rf4AHSURXKaQQRfafebXdAPHPnHQEJEV6CstEnnYkHG9qP7pw1D14Em8E44KdyH79e4zKfV/E5gY9/CjVAwdVjSY1fSwaYwf34U3aSaYaQeRRWSdaReSSTEdQMMAPmmTgrHJ3CprDqvOFJStAA4NLyNTfMF0FUIXVQN/wAUkNBf9QfTj8D7PofspV1rHXo3ktkuu1vsG8GEUWkHSwBCnz0klHXmHV06wwDuJVDzc9yCIACoJ7Ib0KrthP8AE+zQi2jIOTVHDdP34bS8Lz//AG003m99pl5u0+rz21Q/vy+oz49b/SX9eRRZRTKefaQVQYVUfRNfai0yTVDxeShFKdNGBm3J1eH9AV5G1HFt/M95CX3O8zA3wI3X0DywJ6kI4YczDOwMI9fbyC14LxQd/cUxcXUaZSabQVySXbVrDH3PIP8AvTZIl4qjq7TrLSe0eeuC9qeYgG2wK6zMEjyiRGHa7wPFez8Y4dQ/9os7LnvcwgLm3chfEgM0UcEF8X3Um1XxXz300GU30EFCADTGfzaSLrKhLKLbKwLvL+tYl5u/INfx/utMuh/ty9vl/wDY7pCgPrR6/wA3u84gz+L8/u5+191lww0+wxz3cdyZxfacfWffXTVQQaKQIMCIpavWitQpkQEF0MOLnKO0Dt8FQVPw6B7wK+eK55M48J8/tM6wPuAA1bT9AH/CD6EDzL4wFyOP/TT8QaeYUSRedajVok0xUAsFKAML0Q5vkrtkiPqnEtSNxfM1ip8B70N/vsjpBYRFEIPz1D92J7HgiR15lvvly4vYW2Qg/DzQD/HOwMA5QQUeyffAYbUcdaUQaYKRabABfX8klupikBhtpy2V33Kst8065/E8ypz4l6+Jw3Gbxx26iZ84Vicjhz0s7ijyx2w43468R996+27q/wAsfo7ZJE2AlFHGGkUC00VzCWyJJ5KhbJCjIDChBiiTVjRBSEUy04ANcSMMit/xPVJDLqFcsBcACu3wZQCtgD/1stzsABO1hPDyfwgEEXnHJ3eakQRkZ2w7TpBDR1Ch7rOLpapbuHfvHf8Ad/GEGA9RmdIcAQwDS4W0gEGcmQ8WA2KAPD4aCAjnjnfnWvTwDlZDJwzoU/8ADPzWVfV+bdffffdUfdXTYbDIbuZz4St1zlEn2219V6slk6sOzZG3iO9+J57hh0NwQlUguY0Ve+JFi8hlb53842xU45K/7L80n+3y86n7g/jpovqltsgpZdcVeUNFXkrvCvBq8CivL36v8/u2YMAPEVH8QB75b77J8yE3ygVlqSqTCwFJqQRice5Gh/EwBGwMG0PF8FE9K2+NedWPUeMVu51m8WrTsdGKD/bhnC20y+24+79w/wBd8922A31DFfBXMzKgjj0Q3yEhgIY4KKgvOjIp2Zr5vOPf+MqvBg4nxtTz+jO8Rs1E71l32yFWj323GV0FUV836v8AHXvWzjH77XP73JP7RIP3x/vwDnw/DIDDsD3+x+OJGB9r4wK9xuwM+vn/AL+y81/22O23856/ztx3rtq+ppngvgrudVndvdSceNhum7JOADtxr0uIpEh3H4AADONfSOWaJ+wC6zCx/ibopDlfC6AFnaVmfdhS88M7PL/PK5MNwBKxF3bLzWYgVyfcKPLPQTmdrQdahj8ln2t53w34sy252389x33OS6PceX4yNHTFcWPEOHCLLmVn9j2xkpvXrvgrhqxt88P/ANftdMgntnqHm4EWaU/dXSjwbF3T0r00mb+sr+NIMfYP/I8/M+Pe/Z++NO9A2fOMfy7sgtOIc94UqN3qGDtD371EJkH0Hq1+9TjuBPrs/wCuiuOqae46GCCGqiCWGCiyC+7Vx9ObbYuyZa6EGLIvKEPI8X4nHj40oAV4EA0+XQfn0X7yc+TBWB4jAQnRVddN5F1N8/I0fxN3M9WX+7xWUwKiWeWuFJ6MVeVdMNy5AxuPLCLrOu+2vDe/Gu38nP4PL+blsUY8PskqPgVhwbaKOKyq2eaifPaBWP8AqkuH4unDwxh13goqngmlGjEHrtuqkukQ6cImbSPWrYAet0+IkoDp6OgkM8vE7MYcPd9326Dy5Wz9MvkJx8o4j5ZsiS/fUwMFfCfpRQDbhXfyQajRWn6Z+wmtu+gsqtinglgiQjgsknvvuQAXho8sjuSMGMEGNsMNNZMLIH/HNEMKLKXXAffLPNKgvpvkEYoUYjUOvSblVNCTkUdodXub7vTT7RoMGoMBgHslpovnnUVoRQtKuYdbr81ozwFjzswus2qg/pEfB6050bN+5MSfLTWKf7Mkvqsil7gstZukh8tui2lv8hud21ztgOsssrZgoRgkBovslrrht87jXCCG4XXTggsCyxHlhmgpCvnhrKINE66z+1Gw/cQRDdTNy0LNnqAoWcgQZkbZlRxwZgfaOPB2NAkQUmX2dTgEKnsqgmvmqZSfAXASsino4fe7ukoFu5mvHMhAHJNCHaWL6ANAGQFTfMCIFFZMC1G+ElpXukggpieFue4gSuWecaZpGHrRBjfr/drAIvHHgBghosvt1gmhijgt5fa8Wnlrqzq0gN0pz6TBL8JGO20C00A87N23C5wr/wBbs4pJoMeqbLKEb9qbsKW66Y4a9qLUkV1rF65V6InK41LiiwV2sDvuU7I54ocFewrYjYJwagjSDLfCRzaDze2/h/8ABnHs/voXPKL7WUnG9aNB+lRVBFl9lhAap5KpZUhv2yvCtmwsKES68iuyme2fCipCeNXDHNbOBeiLWqGKCSkACQA4UQAN0sb0guULAVsUBdoJMExUEiK+SB+2xqGteqevOYNW4di1py1ze82WwSIAm8q68SO+yaCLyitaejma2+Pv8ququiSIuDW2/EA3gmKE++HcrMjHkTr0HzEdvQKGqcuCQC856JlatxWpydhsWO97iFue1uzuiBGeD2qkWAkgFxzVVFFk5tGJtLVu8kdi4UuZMEIY8ooqQ8oTk8XskjXfEfvIbX4vzo9XG866IO8dCMU2JNi0/wANFvUTsdbpSLvOivMmNIsABiAsohrjijtt/jnpltspYgZgwwvvruh7lq1H09LPNMKNDDN7ENjDGCANLswNiBXoQsibkrcjtcgjanrmkUthgRd1jihnQNGmFOvDgrGowwvqgglk/rkqlggr0iTpgyl/5gwxs9xvy1z9gt98m52NyxAw2F62K+/vFmvFoVQ/ABkbQlRTqXzTWjBAq10tjhroehkbnpbulceeGAfeVbbVaXfXoccVRrQHktPsJPMNIEgC/wDy5bzzBDc9hPOw8twMMB+uAMY/26d07wgIFGJVP4HqUQ7Sj4ws50LLCoAFbzh5zh628c94rZI4azK4r5LY4lanSoqQ8PyNhLPObsfZZIyL9RMXg++hNdAzDlzyDxHwQkC7EJYFa7GJ46sF7ry5ZFML2pHfKW4KAI5XbJzORrOHLZS55DIababb4dYEyapnu9judQ8svtPouDAseRcuCe/Jvv7Le5u/aPisPT/hXxBoGGbE02gpXmqEzoU2YJrRQ66Zor6R77koWXA3E40lU1E22jEnUVYHEpIRZpn5DjgjBLZ1xTABgmIYjMMi/shvOgvdHOyu9Bv+WgxqzW/0YPy5U1bV1rjRaWrrzrrpjaoCarYrJ4676pW6r5a7b37r4dYF2YLa8PL+9TraIMvQcNzdugMYAd6xtsxu+gNVywTCV14Y0YJ/4JTp4ao2KJF77G4K06hLolL4EZqkKiAYl7K2L72KlVb66LbpL2p29pozc9bPNJYYBPsA8srv5KteAeq8MteM+6ltfuSc8zsTIADJEkI2tWGaFEIH7anm70BjDpDLrQqLLZ7qBbL0LZEamXYlSS2utXn0FBxS5oArqTrRTLJCpJSPSwIhy3ihVzCNS68hW03ifEvJAIZI11K3oHHaAhZBQqJi74ApOADCCvN7rpe977LX/rRLL5JLoqzLpdXXZf8Asfr4PrW/bODH6XvT3fKP/S7LOLfb3nfvZDLEHD8TxAu6KKCqS+2WsSi16eVq2BON2qku6Qa/AKA8c56eZ40pCNlyby+t/KvdwYu78vX6vGoLS2Xva/WjTjGjwM3TIDm/z3TzvD/QXX8DDwE86A6mpaVR2woOs6ywSWscPjkBgWoEqxPL3oOqG2qWOqSu2uGaCGOpSC+WiPS4jSuP6YAQGTuP3GWOEUAIy3MKHE41s/vQXD4nLoO2mKimqyOGZGOqeuCeySzkTfwv/a5m+Q+3jcC2mX3a+mi+WyCChWitXb3XTLHLD3CPfbPDjTD/ANw91/v2w5zwqz/qy0By9O92Mw7I7yhsuotjnhqhhnntliLDiAVeHxyGtLHjlENaCAPvupthhvnskju5nVi36zw13908844/152010y777v40z81y/6q9z767Aw+Uw2A4zlfgoAvPBvCAlPrsJk7+E/45yyQUmovlz7OLntgngiqkvlgovsnoevgKGEznrnBP/rt4u14rzzko9PBABv4LjmJDEHLADgPUvAQ+rFosDjJggOrpbgsXnZA8Pz9a8yRz8p0/wD/AB06Oy6CO2yySK66mauFa7rqrdvKPGHDarjfnD3rzPnnLn7brXL3/Lbj5j/l3z4HnsP/AEhnmgkhCKoPInmvOig15B/eKUWLe9NnCKNVLALliQkRjsSk3912vY2o6i/Vig3szxtz4y0Q10f/APuesuu/8M88/wD/AHQ09Q32P8984QhBijMkJJsFBgCnuAoBbhy+K+QM84nvikvPrvlvtsqpiiqusst/vXyjrSug1nkjvqsi2I0x1+/+11vEjj/1AquEeWNPidvrcKCE9qPnlshZkkQlkFquWtbl0DdMLBCOYJIyBsrfqstolNgngmSjjikXsf/EAAL/2gAMAwEAAgADAAAAEDBxLvh9kkQz6m/5Le6KkTUEI+ueG4XqH6oOEEvH0esqsDLOWOuX+cUKfBuwu2/k1wk4842C+oWymvM0HCzacRG2wYsePoH1PF8V2s/y/vpC33b7yhdZndsqSsCE5/DiHK7KkaD8Yb/J/wBqCiwfNMfkYBSwi2Sy329PNOvz1XwTasy2ZCceQQpcss9yukH8WHpHAV0X00oneQuM/wDYLWaAbvtvM8yvNKT+ydCeBf8AGUxroP3V51LAKds9uuC8mOfiy4sey/z3+Fw8K81lwGHxB1wxx7j1xvwpx5h6isvwjtwQdvacbSQn5C56oJu5NPGSxSTiecjXMMQesSKX4IJpjk4OqL4wTFawmQTA9BY9w/29zzy9hpYs9LO0Y025YSyFKkE/FdiQTmYDXsMezrHXz8sbbTz4BOl5wZ/a41j3GO66vQJ5rV1p/s4Bx1lG8iOemZXka+Dc+fKxLB1DLlwGyDs+VOA1K03N373x5zCm+91faoUpAJiMLNjnSWEM1ziJDQMYB9sRoAXkeKqppWh/hzikrP4yxqLktWHilqVDslLsOt+3gp+jgt/xGuJsiW75f9xSw91xilRovoDqnogbw/Qg6vBhF+Sa1wB7yGx+UuLrPjfN0h7NOJ596XjNtfagGOG7acCnaA06jEAb5HQzzXpiq9w3PjRNse+zTx0U/QmV0dMgFYjUTzev6tpTasxYN2+oedE08ny4dZl7XN+m7hJVpmZyzoJpZrjQ8yAKJbK20nYAy9If0LLjEINAK2ObIS7welUZteUC78ExMhfh85vetj1lfpqDcyvtcRiairX302FHdbRH+eTtQ2uTOKsqlanr7rOTw4QfRCHH9iTav0hul75CjpsjlHrkaiaZlUmhfz8c/wDNMbrp6IJ3ImUhRa9BboOroxki/X3of/yv+guCU4gXIfMLGJpdaNNPdIgRJ2XKZJhqJpRFOcmyVf339WEMf/qPCnLHv6F7pH45VPv+/iL7OKH6cpqlL8JagSpDw5UQ9n272dxWsfiZhjKEnWJ45c+fo8e8neTTWl0CpW6xzscpC+tsAdSwMWyOSj7ibJF4z8ZzAJrYN13DR8XkF5qt6Yb+KKLOVghDCZa+aINQMfyVNzHFAH0SBU11VyhtjMiqam5/cBzyC5ENG/f5mIY4LocLsIaILIP91WIfrrVN5k4J27YsfovM2YSHoPfrVLNAcm9kTayt2GDe325ObxAygjQRQ9VtUGCwgHI33ILfrP3a0cxuVl3hU9mkxVccgAU6FHqAkE7k8ui/4qoaXpL09/v/AAvqqD2iTClx+dSiRwmSy8cEr80XTR2oQ+/a71N6fFaw98FdIy1ccjBsNa+fflpbyfXo625s1SaNWdhW7YWK1zmBkNvxFGdSL2nQdb9xtR1pdJyVWxKacKLqtjVfkOSk33VW6jcGfeUtl/dIbi8D6rcdCpKPFvVT3t1LXjOJeSNW6ueO6qYpylWGXWqU+GQyWQ25lmLHbP8Aps5rRBHaEtMhWJtil/kXR5lHClBLu7zkW2jKpHOQLI8Y47Epb8WjQJnNS8GNrRvz7TpmLYZQbahMBpSnaDilh9lu2pgqsbdmf4+dnqho8qhzVahStTxy/wA6UTD4Dh8BjZn9oe+IrLdBWprx9a2/y3iZaYu0Tqo/00qP5NzoaOqYo9/203j2aVHJWVmKkocwqwOT493ndGmmWZH0HbqEJFTWVJTv6eaTWnh+7q5uWOXfZF42bVGVyiXQAWJKuNcHTipYKftupYSJIMr5S54FuwkIqrbp4Km5K36qELiMKQMakMTo4McON5KFoWw30lXROER+xGbt4PJqp/LrbKYcGjqHTTRoaHl6KAgJnvJRZ0ZFWCqxG7vL3LY4XrwQ+UUkUWalA44s0cN4fH76VZxy7v8AD9ySf5V1x19U0jgsCYmr+ajSWGPuCibuayWiNEwW8YZ5O9S6nMQXGRMCRnC8CL5ieZaeewty04q6+eRlR8qdgi9m4QIjrSR2pt0RFWdJYxn8RpzO+QuOZb/wHCxOHceNhKYSHyZhidcrFZNrK3qnB7A3Ht8CLTynkAErnSp6ylaFa2+KmjrsSTl4N0vtjb9xUEhXWK1HCRaSTOxYAxG0MqUK3X3riabOn/zJuPMy/PC8Qxh72FJ3yjs4iEJj1+JZaB1L8kXGZ7k8QfbRHkuNn1lPDzqIadDmfXnJp8ld960SjtGWXGYugBXeSAzDs32oT7JCrRfhEMkMqKmqNySwL/MpLZOUvUH8SnBOw/ngwMawlVx+30Q6mmbjHvf91uE0XpIfBc2oCStKqyVbReNh8AOGQBHjuqvb5Y4iMoMn+uUHaRYdeN1dudL38ASEgb1FSfzTZDjuRzb3DOtZnlFrxEkttJn/AE+vE/z7Lw2z0dz819UeT3ccWpsXuuaxBodDwKI+7mF2ltp4wq7zjgTFAqwo9QRzx+aOlbD3LwmW7/SnaJocnR+4tKUhVpLI+UQWMK1jnP4x9xSjtVsAGAghflmapPL1q/8Ae0JErru/TorReeruNiOLK+jiULpdqcv2+uL3Bvih+cf1vFWs2o95ZbJK41fkwEXBW9jCBjaFIZbsj++bN+uWm9ULPMGGVPljnNqIJuIcg7svTqYrdBQbRijDgTfcpFYlp1Q4jR4XmZHSZnIH7xY02kmpHEYqe7tAkHb4Tr1EkhLeotJ8U39//Ob8u4dvuU66E9DyZ7prVM4FCWcd/wBIfuu4ejyWH8AxAdS+vp7HhJlRNyt7azMRP4phte8ILlZ+W1P3GPBBdEC5dLLDRt9FMZNZVqeDKWfekM8E5nBP/wDGhggstPaOC1uGknC9JPPtugBGCFLBRBsSn+DMdQSWa/d4LIl+MSksr6x1wpXUhYlgGRmGQdR5XFgTMKkg0/qzaz5Xwd/41+imaooB917YzQjCipx61112bD9eeYtDN3pmzsZDemRDYZINwBZoMdO+v0SWe8R+zSaarJSznZ2qKVRL0Kg2TXzp+6R5RP1T3e0vj2ttTgUqCqs+7M4svxmg5D+h57wSegMs+mg4Weoo/wBksvEvfU5zVU0qPr2vZMIG/wDbTizbxCLsFyRAVZ57ZaL+O0u6jGyYlcQlhdboEsm8JwqFxzoRTcRvcEC/uICWFORn8IENkIniNV+m9eqtyfQ4oZG8d/6BvwbKXy2j3ObKk4kJqK5BFaCT4PalDyP7jP7ZbB/56R1WCS3WK+5W0AFMeeI9vf8AR2wgzyqQupMIMvMRiQZVT4HfUDSWk+it1JWn3rkVPv8AJaHsImNq9uFL6baZekQJX1duqONoOVK91zxeqsLZ5Maq7kIAwPgt5WhtDw/7ON7ce+cIL+J6JNOu18sk89nzVGBGO+81cKI5N8PLI7H+5u8Q/tZP87ygJVaLKuaY3oLdI4pGshndX2oVT61JOo9XSSUIRKprPVDDyA19EqqRtLoTFjo5I7dUMe32cmCFmAfpL+xoLctr/L3+zPd0/bMMOLIGJYCU9Ks5LcerOsa7YI7p9vo8bgOab35g4lVZxYty79QpWvPMcedo+dzurg7Qyr5HpZLVW+U1rGMcmNXqP7bn+clrr4g0FnSDgGKtHak8LEI2THvvi4DAj+p2v+w+8C87pMI6qtH6Spks6OKIpEYsIt4p5HGtNAL4lxTuG/8AJIXQ8rgN6UdUv5DvTSqWr7ewLOD7evOGOe1a7H2lBi51sPmNmv1UvtOmFfb9a+ACcFVAyBW7cPfBC9CARcTSXwwG9Frv3oeWNSWBI6tK2Y+Bi+EBk9vXCPS/KRUWhi+6auWn7+CGp331R+RdEh/yZ2LTGJh1q+WrCcaCSM3Urcd3KuK/GbYXLveyo66I7CYiTUKTFeadOWRuMJR6hc7fC5/AXxJkFSONJHuRVXtqhh9cTjp3vT2HVbcMWDuLR2iVmFN26Jxqc6VFz7o/YSOL/P2K3tH2ESmTe7zDr5jXeWa6oc37GHFR6tJoH7jXebLblEyhjm+mu9SOWdG4z7GjZXDt65tj5QLSFiOFyNJyRcsmPbJOXpcc8Hjw3LELtSDjQfq4SRkndx4QFE9tuJXyFIQ7NiHGbcVRu3SsOECG+jLqDTqp3nt0tgpHzkIMJRp6gTpgdoZUHOEJiReEMqfOC+MEYhUgyeyWqTDeXTmq1CXWanziDS6qa2Gfc+GeeyhOsI9l6FRmpat7kNppwbFW6Rxxvj+vXsXqILA6YDCWtkYMylJG/wCsuTwt5h6FSAfVc596I764z11rykSk5lfa4vRl6l2uv8k6Jd0TU45Rw6w5eVn0hmT08d5Zi0eb3NCGUk96w3+mql7E0Yiw5lW27fpRUmdpI4bv88+l/Dg+/lmKbQxn+s6zq6HBacytXykDXMTnvAuskgujWahRXjXnUTffamfbkeYfEPYeYMA9jd0+4mrG2Q5ttsb/AFGFkHN5l6ViiVPBHWAWYPxJpB6K3uun5pcs78r/AD7GTTuHZnDhn3l37ViATJhKJ25FqxR29pq11JnuQ45aGd3RgdK9Vz4QQnOq22vKi2qSG/qt1Idyc1ZEA2m9KcMqol3RNKGTv+3+zryfHX7bm3/VzjYv/tDdv+Z7fOHfWD3eXtuzvWglEwmoQs6V3xBe/uQxHRhLV6BFp1BvKKqZieYAoW3370UO6TaP+Zfm6TOWsMVtr+4/7UNZy9VmHBlPFDCPgriwwABdMRVZtWJWr9+O+K4mvoEgPc+imPwH7N5WJr156x1eUMM1WwM3sXUBxSc9XId6Rtttt6r/AIr2zv8AfrfOaOcD8dzfP0ctmjTN3XkFIM+6PPoH2gG6Ip8ICqBy7Da2c0ADoCzTPZHqUoZG69NOcz1v2hNwMZnQ9zyeQ1JW+Wm/81G6tuo/3JG+pP8AMXvsDfF3n64K27pBfGH/ABv6/t8ag5u5oxNkcpNzni1Z3QQFyzxfy8c84/odpvl1AY6upcwZz0yiv/r5sBLXlkMnh03b+zrkj89hJBmY6976/ZUHo4MZjw/bTXUbYJzj3nQ0iAKUsYYuJSHkZ+xd58v+iFyq3tUtpmlHTf/EAC4RAAICAQMDBAIDAAICAwAAAAABEBExAiFBIFFxEjBhgSJCAzJABFITwTNisf/aAAgBAgEBPwAQ8LqfEuXmFlDy4WS4Ti3NwyzieJ4LLHhS+PBsbD48KXkplMeXGnKnTz4crDniX/VS+PY4/wAz48TxP6/cvCljEOXnpWZQ5cfr99TxLwpfHiXn6UvLhZQ3u40vdFls0vPiVhzx9zwpcvMKePefsPjxKwek9JR6Wf8Aj1VdbDX4qWUUMqGnZUUUKUV0Ufr9zxPEviXx4UvM6suFlDjTmVz4lYc8T2l9Kz7a66ZRRXQ+PEr+rP4V/Fo/i9etW3a0rwam/wCT/jvXqq1q2o0aNWt0lufy+jT/AMfTp07/AJbs/h1+nWk/6vZo/l0+jVq0dtUvqcJllsTLL9riLG57H1D48KWiijUt2UxLdFFMSlYfiVhzwp7S+lf4X12xzp58GjX/AB6v41o1umnsz+X+XT6F/Ho/ry+5/B/No0fx609Lt8o/n1af/F/GlprLj/lf/I/C/wDyOB9TlwhwpU8TxLwulGvP0pcXuN7uFlSm9/ErDLLL2ZZY8KW8GxsOEOF7C/w6szpzKHe1sSP53evVv26aipooo9LEhooS2c8TX4z+ql4XRUas/SHDl5fmNOVK58SsOeJeFL48Tqy4XVx/lpjzOnM6fdsRZbE4tlueHFnE3siy/hHaW12LLQ2rNjY1VdFLuJboa3ZRpTtFMpi58FFMrZz+v3Lwpefqdf8AZwsyufYX+F5nTlDhZlYc8S+lDhSpWHPEvCl4U6uPE6szq/s4WUPLjTmVz4LLL2ZbLZbr7LZY3si4ct22bCqzY2FVOeJcL/C8ysjy0UIoroqa2UtFMSGUIfSsPq4UvCnVx4U6szq/s4WUONOZWH4nhz+ql4UvMLI8wsysOeF/meejV/Z+TgXs2X7qw4vo4UvCL+EX8GrK8Is2HVmxsaqtlLuJbrcr5RQk7KZTEnTKZTK/H7nhT2nVlwsqVPDnhdK/wvPRqy4SGoXQ89CHC9lYfVxFjwp1ceFLnV/ZwsqdOZWHP6/c26RbLY2WWxvdxpyp00bdjY2o/H5Px+R1SNuhIoplbRXuPPQ8wh5hFFTXtMplTw5raeJeFL48KXmFk1ZcLKlc+HKw5/X7l4UvP1L/ALONOVK5nj7nt7HEW+tubXYVDz0asmXq6F130KU+rhxbL2LZY3tFj48Fm3ZDfxwi/g2NVWz8T8R1bhJWtyvlFfIl88FFCWzKZ6WNOkUyn2Gnt4KcPMIeXClT+v3L48f5Vkeeh5EUVQ7hnPW4UqV1cS8dKNWfpTqy4Q8uNOZXM8OXhS+PEtu8nq1dxana3HqdnqYmWX8ITLjg2LXYdGwsjqyl3KXea2ih5imU+xT6HxCyPPQzboXXRXucTwVDxFDnVOrMvLjTmVz4nhy8L7l8eJeYWV5lc+J4c8KXmFlD9u33LZbLZbG2X4E9+nVmXC95dXDnibdFuHxLe+OEX8FrsavT6nsXp7MXpvkdWbGmryUu5S7iS334K+UV8orb7K+UV8oa2RUNY8Ip9in2Gnb2KZpTtbFOFz4niXhTqy4WV/hcLp1f2cIeYXtqV7jwpfHgYjVx4U6/7OFlDy405lczx9y8KXCHlwruLfcTe5bLZbr7PUyy8F/CL+EN/Ba7CavBsbG1M2NjY2jkpFFFMqaKfYSd46dWX0bCo2NjY26X0pSlFexRQ+PEudWXGnKHmFKw5/X7l8S8wsoeXGnMrDnj2FmeJftssTffoXA8y/8AApXtWy2PjwWWN7lrsj1LsjU1b2Ra7CatbDrsfj2FVmxsbU4+zaslLuUv+w0ttyvlFfKGt8or5QiihIopiTp7FPsU+xW0vjxLzGnM8S4Q8+1pz0acocL/ABOF7Ll8eJbl5cLMr/1PDnhS3iXlwsqVz4crDngtlvuNstibG2WJssv4Rexa7QzaNjYVG3c26tOejTlSs9W1G3sbexxPH3Ll8S1Ly4WZXPiVh/U8KWpcacqVz4nh9TzCHC5njpUr2F0aefH+3jqfHgstjlvdlie6LL+BVG3YVUzbsbG1KNjVVn49yl3Glb3KXc01eSvkr5QlndYK+UUV+P2UUVsj0s9L7DTvBT7CTtFPtCw/ZftIc6efErDlLPsIfuV08S+PHU8wpXM8S8KdWYWUPMJbysOf1+5fHRbNJbLfdiezLZbLdFssbLFFrsWuxa7G3Y2jaNhUOVhllst9FlllljcIcbD6djY2OIoraeFLT2KZ6Wak7wNMQ8uFKnj7l4U6swsoeYXPhysOeJfHjp0zxLxCHCnj2EOeOrjqft9+rieFL4nU9yy2N7vyWxPctlsTdMsv4Re2FktdkWuyG8bG3aG12Px7C9NrYbXyfj8i9Pyfj8n492fjT3Nu5t3HVLcpdyl3Gsb8FfKK+UNfJXyhLPgopnpdHpZT7DTpFPsxJ9hreFPHsIc8TW3sIfSl1cPq4nhS51ZhZHlwsysOeJfHidWY05UrnxPE8KdWY05UrDniW4TZZbE2Wz1M9TLZZcXKHL46Li+i2JjLLLLEyyzg27FrsbU9j8TY2NjY2o2jhSyih5KYk7Q07ZTEmUUxJ0yiivxXmXx4nVlxpypWNXgqP1+5eFOrLhZUrDnhS4WfdYujVx49xwhwsTxPDnhz+v3PCixudWYWUPLjTmU3TLfc9T7lulvyy2epj1PbwepibNWp28HrfZCe+EX8FrsJqnsi12LXYten7LXYtdh+krT8m3yOrZsaas27m3cSVPcpdyl/2GlS3KX/AGRXyhr5KEiiiimUymU+xTH1OXnpocJdDhD6EcOa2nif1+5eFLU6suFOnP1Kw5eFLjTlGrMaefDlYcvClwsjy405niXLz1XNsuN4tlsscIeZcuXCsbLYmxstlnqPUxN0MVHBcbG3Y2ODY2HVI2Nh0bCruaqbe5S7iW6ivk0878FfKK+ULS6Z6WeljTpHpZTNSdlMSdryNMpmlPfxPDnhTqzCHGnnxPEuEPML2X08DjTlDhSluPPTpyOFKUocfrP6/c8S8LxOrjwoRq/s/MLKlc+JWHLwp1ZhZXktlsTe/gtnqfct0WWN7Isv4NT3wX8Ce+EX8FrsJrfbgtdj8exarBt2NvkdGwq2HRsKjaaXcpd0V8lFDUUUymVtOnI66VkaKKKKYkO7hIopiHLyUcTxPEvC8Tq/9KEPL8xp/spWH4nhy8KdWY0/2UrnxPH3LwvE6suNOVKw54lwsjhe2hxxOnqUqU5TLLL2LZZZZ6i/xPUz1sb2LL+EX8FrsWuw3jbgtdi12G1eC9PYXptbMb029mfj8mn03yfj8n4/IvTTzg27lLubenPJWn/sUv8AsNKluil/2RXyhpXlFfKEt1uj0+D0sWl0/B6dXY9L7FOsclPsU+w09vBTKfYadvYp9jSt5WHL/qp1QsocLqcuF0OFz46lK9/9ZeFLwpfHiXmNOUPLjTmVjVPH3L48S8wsysOf1XmXx4hNjbt7nqfcWp9z1M9TLdM9TPUy9ker4R6vhD1b4R6v/qhNdkWuxa7Ca7FrsXp7G1YPx7M/H5Nvk/H5Px+R13Nu4ku5S7lLuPE6cONhVG3eaKKKF0VFbFMplMplM4niXheJ1ceFOrLhZQ40ysap4+5fHiXmNP8AZSsOf1XmdWfqFleZXM/r9y8KdWYWeriX0qeJX9XKw5Uce1exbLZbotlvuW6LZbG9kWy2NvYtnqNTZ6vBbG3bL+EJ74Q2uyLXZCa7LBa7F6f+omq1bG3YvT2G1S2Nj8R1tnB+Pyfj8jq2bGmrNu5t3FXpe5t3KXdFL0rdFfKK+UNb5RXyjTp3W6yelnpYtLpnpZTP1+ymUxp0vBT7FMa3jTmV1Pp4l4Ur+sqdPM8P2eJ4XVcvq1f2fmFwONPPhyv6uXhS+PEvMac/Tnhy8KdWYWVK5niLi2W+7G3Z6n3Fqfctli1MsuL+EX8Ib+C12E12LLXYVUWuzPx7MfE/r9zxO1Rt3NqKil3mtiimNFMpjWyloqHLRTKNS3hZQ8vzGnKlc+J/Vy8KdXHhQsoeXGn/ANOf1cvCnVmNOZXMtfipcLI4WfZfsOeF7/EuXLly7LZbG3ZYm7RbLZpb9SLZbE8+Cyy3TLLL2RZfwanvjhFrsJq1sNrsWuwmt9uGbdjbsbel7cmx+PZjqkfj8mxqq2bGmrKRS7iwyivk4W5RQyimNMpiTsplMpldFFew8y+Brp46uF1OXOrPU8whwsqVmVhzxLwoRqzGnK8zpn9X5l4U6sxpzK/rqn9VLhZQ4Wei+hNlstiZbLHguNWZfBsbG1GxsbUunYdS/MvcoqKKY07KZQ0UymNblMSY4S3RTKfY0rPgplPsxJ04pn6/ZTKY8KXmNP8AZeZ08+J/X7l4UvMacz+rniXCyhws+y5dvpbuXLwpfHU/8KHClZi2JvfwWy33E3TLZb7luvstlsbe3gtlsb3jTlFssvZ+Isv8fssv4Q3jbgtdi/gbVvaNNG3YtdjamfifiWqNjYdGwqKXcpdxKKEek9MpFFMoplOUahxqzLl9TlrpWR5hdSlZlSuZWHL/AK/cvjxLzGn+ylYc8S4WUPLjRmeHP6qdWXClD925cIeep9Wxt3Nh+wopiQ8wlvOlblFOaYuSiivxZRTK2UUNY8S07ZTEtynCTpz+ql8eIWUPLjTn6n9X5l4l5jTnorrQ+ly+YXXf+FZlZlSpUrDnieFL48Tqyy2aXuXCw4tlv0otlsbexbE9xvdnqYm9/BZZexcPgtdocIdQo2NjY26fs4mihDy4X+hZlSpUrmVhzxLwpfHiFlGrLjTmVhz+qnVGnKHC5niXhS8wsyvZfsONPMbGxsbCnYdQvZ27xQiihIooSKKEiiiiiitiiitvsooa2UUNFCW6Gt2V4EiimJbMplMa2RTPSzUmeli0tNbDRTEpraXLhZ9x9djhYfUpUr311LmeHPDnheZeFOqFlDy4U8OX/VRbNTjTlDZYnmeIuLiy4uL9rY2qdikJIccdS/xL2e8rDnif1Xly+PE6swsqVz4crDl/1U6sxp/sp04c8ewvYXtrM8RsKjbpXUq6VXQiulLZlFHDKKOGUUcfcvCPspdx8FFI1Lcr5Et15KKEs+CijgooeEUUNblCW6KKFzPEuXCRRRx0UL29ORx//8QAKxEAAgIBAwMEAwEBAAMBAAAAAAEQETECIUEgUXESQmGBIjAyUkADYrHB/9oACAEDAQE/AI9znmVlyp04UpbIpDQkikakqPSikNIpRStFKKVlIpFblFFblFPuJO3Om9/MbmnD8uLE9iy0LCjX/Ll8eVLyp5lZcrmVjp5/Q/0NLq08+Z931K/p+JWXOnH3KxDwLCh4l4cvq39X1KzKy5WXCNPPmdOPtysQ8CRRqSplIoax5l5U8zyzeFzK6eelih/oc8zp58y8lnqL3LPUroT/ACcWKLE9i0NiexaG1TE1DwJw+JeVPulPdysuVzOnny5UrCh4FiNQofHmXlTzPeVDFD/QxQ112i0Wi10aefM6so1ep6qWEKl/5ElyjU1p3Zo9T1ts1LazS7p/ErqWDYdCSKQ0ikUhpbFIpG1zyUhpHJRQlu57m/cp9zRe/lyj6L+DS9lsWhtUxFjaqLHx5nlT7n4lczphnC/Wuh9Chw0opFGmdXHk9LTtGnRv6nk16W9SZov1andjNErLORCislbIaNSbo4h4ly+DCGcy/wChQsuVDNGPtyo9osIoeGUUauPMUPOkoordFFHLlcm5uL9HPRYxfqc8zpnVguHHqNOEWWXuxMtCYmizTFiaLQ2qLRaG91FIeVPulf0/ErL6LRsacQsqXhGnCjVhzq48y8qefqeXOnnzOnH7l+m/gcNl7llmmdWJ1Typ56liGhJUUikUoaRSKQ0tikV8FKykUV+T8FFfLEt2V8lfIk+5T7lM0p0bm5pdqG9mLB6jU9mWWang2jlCZZ7vqVlzphmjCh4nlfoYsQ5XS4fRpxOr+XLxLyp5nv1LH6HlTzPulZcrny504nR/Kh4EtijVdFQ+PMv+kUelCSv6PSiislFCKGaU6RuO6NzceV1Jyi/0vq0y8M0vZeC/geC/gv4G55LLL3LRaEy0WhNUWhtUxO1DLRaG91PM+5ysvzOnny504nR/Kh4FiNWJ1e3zPuU+5zy5WIeBYUPEvK/4GKd53jTiWaf50+IeHLnmalQxQ8CVKGUikUrXUssahLJXyyvlmjD35Z9lPuJOjc3NN+leD6G9nsy/hlmpqvtFlobVqb/JeCyz3P66lhRqwxQ+rnpf6Hjpc0LEs0fyobl46uZUrpc8qeZ5lZc6efLlYnThQ8Moo1Y+0VDyp5+ior8mUJISKRRpwijUtmVDWDfubm5+R+Xwbm/Va6n+hiliwbjFiHLiyy0WWWWhNUWi0Wi0Wi0WjlTzPMrL8zp58uU9pWF4LG9nOrjypeVPu+pWXKx9udP8qNWHL4n3fUr/AIKKKin3NxYUs04EPH6eepQxQ+IpHuKRsUrK+CkUrKRQsuK+TSnWSvk3NN0jctiulDbrEWN48l/DLG90Wj1LuWrLLXcWdXktFo04h4ZpwvEPHV7vqVzKx/xPAsKWLAsdK/UxQ5fEvKnmVl9WnH2504RULCjVie0vKnlzpzq8lFLsLSqwj0rsPTpp7CSo9KGlRRQ1vliRRTsp9yn3FZuOxXR+XYt9i32Li+i0epdy11PDFiWI3N+hWW+3RvcWJyntDLLQ2Wi0N7otFo931PMqdOPtzpwoYsKNeJfHmX/SlZc6efM6cKNWHL48zzPuc6YeBYhw+vbsUuxSKXYpCS3KQ1t0M0fyul4l8dSlY6XLyp5KRsUrKRSEslFGlbFfJT7mm6W5+RvTwK4d0W+xb7Db22L+Ger4Zf5Y4LLQsudPPk9SPUjS1S3LXc1NU9y1DePMvIoWXOnEPAoeV+5Q8PoZo/ldLl5nmVKxHEueVPPVp58ysfbnThQ8MUOXnTPP1Ky5UPDNOFDSopFLsNLbYpFI9KvHBSKKyV8sr5YkU+40+5uVq7o3tYNz8vgXqNxt9i/g+i/iLLm0WjU1T36dKrSjccbxubxubm9w7EWzcRY2WX8RaLRe5ai1ZZfRp58ysfbnThQ8MWFDFDyp931Ky/M6cQ3sxYUasS86Z5lSsQxdKh/ra2hw8MWOly8qeZUPEuXLyp56aQkrfkpFISK+WV8sSdLd4Kfcd09zc3HZubm9ot9i32OWfRb7FvfYv4L+GJ/DL+GNiZZqey8otFruPUrW5a7otdy9y4UNieyhiZZz0vAv1asPo1fyxQ+q5UqHiGth4F0vKnnqXPmViVjoofHmXlTyVCKhYh4YlDwvMvKnkpFIVFIpCRQ1gor5K+Y3Nzcdm5ubx9dFljdqHGvEtQyumn3KZuONx2KzcYrhxZe6nnqXMqViG6l8eVL/AKU8uU1KjVhy+PMv+l46WLEqHx+h/rfRqwvM6o3HmFuhZnmGLEOXLypeV+lLJSEkaUqKRSFiGtnL4hX3N/Uj8u6Py+BXbNzcVn5dh+rsJulsW+w26wW+xfwN42ZfwWX+X0Wiy92epFoTVFruNqi13LHlTz0v9b6NXHkuHmLHmLQhdDli6XLyurlyuZUrEPHVyvErOqdGIeBQ8RRyp931Ky4YoaKRS7IpWikUhJblFCRRRXyV8lPuUzfvO5ubwpa3NikUUOKK/Rv0qzcdm/Yt9ht2ti32L6FlynktHqXcTVSsQ5fE+76lZc6cRqwxQ+PKFDyhDOYsUM04UOeZUqH+tinmeehD6n1qOVPKnmV/TlTpxKxDSopFIaWxRXyyt8vBv3ZT7iWdyn3KfcSdZK1dzUtVPfg3+D8vgfq2xkXq+D8uyH6vUti9XYt9je3sW+xb7CL+GN/DE/hl/DG8FotFqy13LXcTXc9S7obVZE/2sU8zyX1X1X0qOVPKnmVlyp04hy8S8qefqVz5hiwo1YcvK8z7vqeXKwI1YfgSh5U89LSKKRRSKR6VeCkUhZZU0PgUrL6EprpXXT7wkyn3N7W5v3Nzezc3N7LfYt9hXbixMv4ZZpwobVMT2RaG0Wix5UWe76nTz5hmnCjVhy8rzN/l9SsuGacKNWBQ8qeXKh9XP6GKdPPnoWOpDFgd/q5U8z7p5lTpxGrDFhRqxLq0UuxS7FL1PYpHpXYWlb+T0oelUzTpVLJ6Plj07ZZXyU+7Ke25T7m/c39WeD8u5+XdC9W+6yfl8H5fBpv0o3NV0b9jfsO7Wxb7Fv8AyW7f4l/DL+GJ/DLHgssbRaLXctXktdy13E+pSsTYpuFKL6+VPM8zzKy5U6cKHTU6sL6l5U8uVGrDFhRql5Ur+nDFDwLCKNWJ5lSv0UrKKKRS7FIpHpXYpKhQxQ+hdFTVdFRRW8VCR9m5v3Kfc3s3NxXbNz8jTe/lm5v2NN+lF/A7pxZqwtuUX8Mv4Z6t1k9SPUhPdlotGlqi0NqmKqyWu5qePKnlSs6pWIb2c6uPM8yuZWIf6V08oUasMUMUMUqNWBDl1LhRzPunmVlzp58udOFDw5fHmeVPLnTgoa2YkUjUlt5KXY9K7HpXqxwUikJK2VGlbZZXyxrZ7sr5ZT7mpPbfkrV3Py7lO8m5v3QrNzeuBXRuOzfsW+wr7FvsW/8ALLfaGJxZaLR7kKNWGbm45eCy0XFjYh9D6uZ5nmVzCNOPtysLxDw5eV5n3KVlzoxGr+XOrOnzPu+pWXOnCjV/Ll8dSh4ZxD/W55lihldVfqaiiitykelCW5RXyJfJXyU+4lnfkp9yn3EnWSn3H6qyL1Ut0fl8Gr1Vwfl8H5/A722WTcvV2Ld44Lf+T1PsJu3sW+zL+GaW6WzPV8MerZ7M9S+T1IbV6fJ6kepdy1ZaLXcVb+S0Wu4sIs1Yl5UrLlQ8MWIc8ypUOeZfHmX0KGKH0uF0rMrLlZc6efMrEPDFhRqxLzp8z7vqKFz5lYQkasOXlT7n4hoRSGlWBJUtil2Hp09j06ex6V2KVo9KKRWSivkWnbLPT/7MadZZT/0U+40z8u5WruflZ+XdH5fAvV8G5ublvsb9i3/kt9mLOJ1ZXTvFlxZcWWouUWiyy+hZcrLnTh+XOnCjV/LOIcvKnn6nTz5lYRZqw5eVK/p+JUPD8Ch8eZ931Kzq8zpwoeP+HmXlRUKGI56OeihwkNRRRRSKQlkpFISRSKNOlUeko0pUivlmrTtllfLKfdmpOsvJT/0yn3Hd6dzfuU+5Tt78G5uK9/J+R+QrpG5qujfsW+w79S2L+C32E/yex6vhjfwzS9sMv4Zqez2eD1Kj1IbWxaLRz9FotCat78lruWhPZFo1PYssfUpUOVly89CjVlTe/UswxZlZcqVKxKxOn+V4h4c6uPKl5U8udPPmGhKNePtS8qVlzpxGrDl8TzNFLsUuyElR6V2Hp01gpFFIooSKK+Svk9PyNOsiTN+40ytXdG/dC5n3dG5ub3PJZZZY2WWWJlosRZYmWixMtFo04nThQ8MWF4jU/wAXOr2+VPu0ysudPPmHhiwo1P8A+qX/AEvErLnThRqxLyp5cqGLEPAl0rpYulSsvqroSKlyxQ4SGhQxKKElRSKQlsUhpUUqKRqS9LKRSNSx5KKK3UUJbv6PT8lfJpW2Sn3GnT3KfcrV/o1J7b8o3N+5v6lvwbm4rtm5uab9KjVdS8qPo9z2LLEyxtCexaG1RaLL6Xj9KwKOX0KFnqWehDwKGKdOIYpWJUPDnVLzp8zzKy504h4fgUauPM+76lZcpQ8S8qeXKh4FiGipoopFDSZS7FI5KRSFkoo04FG/RuOzk3HCs3hPobE6LQ3FnqEWhsTRaLQmqRaLQqRaG1RaLRqePImi13G1enyWi13LV/UrLnTiNf8ALnVx5nn6lczpwo1Yl/0peZUPBxGrE8/qcvBpxFilZcqHLFKlSoYoYoYoeBQ8FKNSx5KRSGlekpFLsVv9FIpC5ikLEakqZSKGseZrf6KKEs78lfJXyJbIp9zVgp9yn3N7W5ubnMbmnENusCb7Fv8AyNvsJxZZYostFostFro04nTiUpUOWKVKh4FhQxQxQ5eJcvjzLyvueX4lc+ZWI1fy57TzKh4FhRqx9z7lPedOIeBYh/8AAxYhiWyKZTNzc3EbjFDjcYj6GKHFzY2KobEy0ansWWNlotDe68lotFr1L7LRaLVsssTz5lNUob2ltWp9zlQ8Cwo18eZf9LxKy5WIeBQ+Oli/UzRhQxdSxDFKhi6XLFDly5axLzpl5UrLlc+ZWFGrEtK1Kr1PwUihKGlTEtj0o1LHkoordRRW7Kfcp9xJ0U+47FZuM3ned5vos9Q2acKH0LpYpWIeOp4ly5cue0vOmfd9SsuVz5hiwoeJeVPucrEPDl8eZ5hHeVjpf/CsKNXHmN+8bm47jcYrNxiuGKHLYmXCZZZZaGyyxsssbLLL3RZZe5ZYnuyyxaslliapFobm91FoTVstFoTVFruNqmJqi0NrbyWi0WrlZcrEPEvqX6mLCh8S5csUMUPqcuXxPae08qeZ5crLlYh4YsKH/wDqnlSsuVDwI2Glt5KRS7FblIpCStlDQlsUNbFFDWCipaKKfeXfRubm4o56nLFDFD/S+J7S8qeVPKnmU/ycrL8zpxDwKHx5Uv8ApSs6vqdOI1YcvieZXM8Q8S89Sh/oeJ56nx1o36HfVZZZyiyxvdFlje6LLL3LLOSyxZcW+wufM6cKHhih8eVPuXiVlxYnsWN7S3gssveLEy0NiLQ3L/4NbrT9oUf/xAA5EAACAQMCBAQGAwACAgICAgMAAQIREiADMRAhMlETIkFxBDNCUmGBI0NyMGIUggXBJDRTkUChsf/aAAgBAQABPwLDUyl6ZfXlH1xoQ/8AsoUKFCS5Edi0tKFCceQlyKFC0oSiWFpaWFhb5ihaWlo4kUULS0oNEVyLS1lr78JLkLY5nM5nMnXkeY8xVlWVY+qImVKlxcXfyfoqXFxUqR+bP9Zaf1f6xlszS+XH2x1dl/pZP5sfbKPXPFkOlY6m37Fi+rKOLFisZemUcfqxlsLCiEiiKItRaNcyhRnM8x5hVOZ5jzdir7H1/rLU2ynk+pZR3llH/wC8XsafSsZ7EdljLL6sWQxlsR2WM9spbrKXVHKnn/RQoULUWiXnkUKFGczmQrz9zmVl2LvwXjl5WQflRUqVKmq+n/SKlSpXg/mr2yh16nvi9mQ6Vjq/T/oWL6/1lDbGXplHGXpixY/VjIWMcXvixY/X+stTpFtjqdIsZdUco9csWR9cWQ6cZbCxmLH6sWRxnsQ6VjPKe8ffJ9Sy/t/9co9c/wBZae37woT6X7EV5UURRFqLTUXR/otRaWFpaW/yfooUZRlGcyKd0/c5nM5nMlWjIdKKlS4uNX6fcqXFxcVK+YqVK8dPbGfplHF74sWP1YvJYvF7C2x+v9ZT2I7LGfSyO2M94++S+ZLFkPX3xZHbGQtsZix+rFkcZbENljLKW6yfXHJfNftlHrnlp7fvHU6JexHZYz3h/rL+39Zaf1/6xlsyOywoTXT7lChaiiLSnmKFqKFChFcijOZzOY61XCpUqVIsqVK8HusXsRx+p4vKOL3xewsfrftlLYjtjLYjssZ+nvl9f6yj64shtjLYjtjLL68oYz2I7LGe2Ut1l9ayXzX7ZR6p5afTjq/Ll7EdljPqh75f2v2y0vq/08Z9LI7Yy3jl9bxZHbFvmsaCRai0tKDXPhzOZzJbCZUuLipXzMqV4y9Mo4vqxewsfrlkyOxzKsuZVjuoRrQqxSqT1LSOpcTboJsqy5lWXFfMVLi4vLhPmy88RF5cORB8i4uRci4k+RCXJFxcVKk2VKlSpU+oqVKlSpEqVKlSb5EX5UVK8Z7ZS3j75f2LJfNl7ZR3l75afTjq/LkLGfXp5L5svZZaXr/p4z6WLGXVHL63i9iO2Mt1lHF74vYXGhQoi1FpaW/kcShzOZzOYqlX2Ln2LvwXDfMuLl3Ll3Kob5Cxj1SyZD6vck6E9ecpWwPA1YK640J3xrwjsfE6nK1HwtfCQ4pmqnoTUlsNpwqRx+rjy4rcoa7ouRFckUQ0QKFqLUWjXIiuRaixFpYSiWlhaWFpbzLShaWlokVV1paWlpKPIjHki19y19yjKS7kkyjOZzOZzJVqjmcyrKsq+xV3IuNT4q3l6kNSsUy4uLvOy4qVK8I7y9yuOn0rHV6GLGXzNP8AeS+ZL9ZafTjqdDFjLrjkuqWMtmR2xl1LKOPrixf8TyWPrwoWrsWrsOKpsJFqLS0tI7yz095+58ZJqCp6s0/hradzW+Wz4blXhqatlV6jhTSbluaKppx9uHxEL9Ka/B8NK74enYjtxnK1VFKU48iCcZrgzRdzk+K34a3PUhHh4ka0qMU1EjqRls+D14oTqqknyNN1WMxY/VixS5EPNqP8YS2FthJzWsuxqbZS3WX1mpJRi2fDaPiSepIpxXWyhQoWlpy8x8M5zub7lGTuUW/wfD/EPVX5HdQ062oq+xc+xcXGq/IxSLkXIuRchv8AkiVKlSpUj8yf6KrHRfkWOp0sWMvmL2yj1Sxl0sjti+rF7EcfXF7CxWLxewtsfXGWwsVvLOPVI+Ni/DT7MhqxlGpraleSNCFsOe7NaVkGzRkr3Oe5rat6okaUro8Gj4X++P5IbLj8R0icVFUP7E+GvK3TkzQ1bYbC1u64LqZq6liNGd/xFWuFspa7a7k5KKIRerV+h8PG3XklsS6TT0pajb/IvJBIlqXzojTVIrGWTfnHIUqk9S08aI9jxUkz4ZeS7uaupTktzQnN1UlzRqathPXfY0NS+BqSoiE9RuqXIqcm6mr0ktaSnRI05qSwlvHL6/0a7epqx00RSiqLhq/FKHJcx/FyUbnHkaclKTa7ZfE6vJwW7Zoafh6aXBmvB6C09RejE7oV7o0+lY6nQyhRFC1Fkew0lqR9i1FqLS0tIx80ixFpb+S38jRpw8q5lsu5SRSR5id1BVOZVlWVH1p/gqXF54iL0RfNlyLkXFTUfkZHF9WL2I4+uMthYrF74vYWPrjLYWMeqWa+YxqqP/DXpKhp/DQhwaTI6WmpPkalPFghLj8P83XIbcZRuRHRp6klzjw+M+V+zTsjpr2Oc5fjgutmqlbzPhYKjf54Q0pQnLszW0740NONsKGjCjk3wjoqMm0SjVNGnoeHzI7YyxZqyrOiIx1Irm6ogtxtPXtZKMUmRXkRqaa//wBmlG2NCa//ACYduElLU1qGpBLTa/B8GqQZ8VWiNO23ka07UaMWo8/U+I+Wz4eSsbe58N86XthLqjl9R8N5vi9Z9uEulnwWmtW+U+58bZ4DifCKkMZyUU2z4WPi6stV7V5Yf/I//r/tHw3/AOrp/wCTT6I+2Or0/tZP5sfbKPXP3yh0rGfTl9f6yj6lChRFqJLkJFChQoU5nM5nPg9hFSpUqV5lcJ7CxWL3xYsfXGWwsY7yzfzFkutlkbrvXD4fr1n+SG2MvThKKkqMXw0V6siqcPrJqsWaUbYJcWRxkR2xljLYi/53U5zKcjV+GuldF8yGi/q4WXf/AN8KJ8LUT2IdKGk9xRS2J6V04vtw1ekj8Ppp1NPTt1JywlvH3y+v9Gl/H8dqJ/Vtx8PV0NSdiqma/iT1dNS9SCo2u2P/AMjKmnFd2aU9VQUdNENXU8WMJrfbj/8AIyr4en+RRs01HtEh0rHV2X+lk/mL2yh1T/1i9mafRH2xnsvfL+z9ZQ9ffGWwsfXF7C404UKFChQaEjmczmcxFS4qXDfMTKlSo9hY/VjLYWMfX3zn1IozzHmPMeYpK48x5is+xKUkjRUow9yLkVl2Ln2LmXvsTbFJlxeXl5dzLy8vLi4iypcXlw5EZFxci5FyJyFIuLkVNSXlZoRW7ORVFyKjZD1KlS4qT2IdKx1ukWMuqOX1Gv8AD+JRrqRHXnDlqRI68GI11/8AmaL9CHVMboj4fW8W/wDD4/8AyMLvh69mfBOmghfy68ZekeEnRVNGPj/EvUey2JdLNPoj7Y6u0f8ASy/u/wDXLT+v/WM+iXsafRH2x1Pp/wBZfW8tLb94y2Fj9Txn0ix9cZCxWLXMoURai1DQkU/JT8lH3KMo6nM8x5jmSbE32KvsXfgu/Bd+CPrnPeOX14U4Qxntwph9RQpgihQtRahxRFKhaixFiLESiixFiLEWmppXIjClEWliPDR4Y4EYlhYWFv5JR5EY8i1lr7lrKSNROhSZSR5zzlZjuqjzFZdir7FX2KvsVd/6L32LvweVfSXodk90QfmmfFa/ktjuz4WC09JIuRVEkpRaZD4Vfc6V2IxjFUXD4qdf447s0dNacFE1OiXsQ6I+2Op9P+sv7v8A1y0vq/08dTol7Gn0R9sZ/T75fXLLR2xl/wDYsV1PGWwsfXGQsVi98ZbCx9cZZQ9ffPU9PfJ9ayh6++M9hYvqWUfXGWxDbGWX1Ysh64y2I7Y6vTlLdZfX+uNChQivNMj8LFTufMtRYixFpBcv2Wlsu5D4e2V1as5krrWQrah3F0vtLn2LzUn0f6Ly5F6L0XIqvFfsXIuQ5pIuRVGk1R/6ZVFSpU1Ply9iHSsZ7x98l1SxZo9Cxn6e4sV1SxlsLH1xkLGOP1YyFj6vF5Q9ffPV2yl1rKG8sZbC2xfUso7vGRDbGWX1Ysh64y2I7LHU2yl1LJfMftlDefvlpdP7eOp0S9iPSvbHU30/9cKFEWotRT+WXsWrsWotRYi1GlFOP7ZYixFiPDRKHlYoci38lr7lr7lJdySd0TzHnPMebsebsKtWVZVlfwXfgb5Mg+SLi88RFyJTXIuRci5FxUi/NIqV4y2Fit3jP0FjHH6sZCx9cXlH1z1OkW2Mt45R6pYy2I7YvcWMd3jIhjMWP1Ysh64z2I7ITw1dhYy64ZL5j9stPefvlo9H7eOp0S9iOyx1OrT/ANZL50/ZZaPQsdTpYsZdcco7y98ZdL9iGyxmlyKFqLUWItQo82WFpR9yj7jQkzmczmcxN12KlSpcSewmVK8GRx9cZCx9cXlHOfSyOyxn6ZLqeMiO2Mt1lHqeLIbYzFj9WLIevvjPYjwTE+Gt0ixfXDJfMl7Zae8/fLS6f3jqdEvYWyx1OvS98o/N1P1lo/Ljjq9DFi/mR9jVlSJoVtwh9XvjqdEvYhssZbxyj6++Mxf8NBlChaUGhIoyj7nM5nmuOZV9ir7Fz7EmKRcXFyLkL1KleL9MoZy2ZBO1FH3JS1K0RGU60Z5iVSkjzHnG5ITk0ea48x5isishtkXIul2Lpdi59i5kmy5lxcXFxXmXF5eeIOZBl5ei8vRqS5GnrVdC4uLkXFfMXIuRUuQ2ab6ipUqVJ7EduNRM1ekWL+ZHJfMllDefvlp9OM+li2xn8zS93lH5up+stLoj7Y6vT+8n81exN1ZFxpywh6++M+lixl1Ryh6++M/T3FisXvi9hY+uLwoUEihRFqKDjsWlv5LfyW/ko+5DbOWxpdCHsaLrqM1l6i2Ji46j9BbH14shhQlwoUKcPXhQoUGiKKIoi1FqNeiiaEPUoi1FqKIpzLEWItRYhwFAtLSwtJR5CiWlj7lj7lsu5NO0SZSR5zznmJXXITmV1OxWfYrPsJz+0q72XMu/BcXovRpy5y9xzii5FyLkVNF+RY63y5Cxn8zT/eUPman6xezNL5cfbHV2Xuspv+T/ANSMak97UaKajz46fr746nSxYy6llHGXpksZbiwewsfXGQsVi/TKOctjT6TU6GfCrdmv0kelGs6QqacrlwYvNOvDVnbM09S7g5pCmmS1DT2Lkiq4PXSlQnsLH6sWQLkV468quhpqkSSZHZDY5C6sWR9cZ9LIyrJLHV6cn1IWK+ZLChQilz9y1FqLInhxLEQgqFn5LfyWy7ls+5qqVj5nmPOVn2Lpdi59ibfiaf7LvwXF5ei9EZeefuXIvRei9EpqyXsaMv44exci5FUVRrfT/oqipXi/mv8AyOMmyGklho9P7x1egWL6so4y9Mli91i9hY+uMvQWKxlusobZs0uk1/lS9j4b5Zq85JC2PiW7aGjG2K4arpE05vsJ1NbnqI040RqSpEgqqrHymakfIaXSa10tSiNK9T5sZCCepJk9hY/VxnKh4moRbI+pqVcjT6TV1KCm7eYlVleQnXg3ViifViyHrjqPys+FVfNxlK1HjalfwS1VLlwnrKLoQncuDnGtKn9kcXJIjJeJMrjHVinJN/UVx0+lY63y3lL5sPZ5Q6p+5QoiiLUTSsl7EErI+xRFEWotRqJeX3LIlkSxFn5HCvqW+f8ARZ+S2Xcsl9xbP7ik+5pplJHmP5DzGrdaK4q+xV9ir7Fz7Dk79vQv/B4v4Zf+BaheiEkkXx7lyLkVRJ81xrxhi9xYS2F/xSFisXvlH/g0vq9zWVdNopqQXI0YPd8NaNUQ6Vw1vQVEiI1/KuGpC6gkeHzqTVSJzvZCHqMh8xk9iO2P1cGakuYqUEiPqKPnKcib/kOoUaIl0mmvKT2NFevD6sWQ9cfip0VO58PJKCQmnw+JfSi6MYURGLvrwaS+I83rw1J2IUZ6kqn1w9uC4yimR0/PISw1pWwI6V0XJv1JazhGKRpyugnxexpdCx1uh5S+dH2eUN5/6x1OiXsQ6V7Y6v8AX/od0jw5mu50UamjXw4V7cF8yf6y0+lY6u0f9LJ/M/RQphDZFq7Fq7FkexYhwRaWln5FH8lBJnM5nmPMO6pVl77F5eOXIjIuRUuRUT41KkhYxxe+LI7f8Ed5e5y41J7EH5VwcUyxLhLqjlHdlFwnGTNPStdSexHbH6uE2RhcR06cIepThLSi3UUUiRTlxSS4fVlD1wZrebUIKNiNNO7hqaV9COikNUcj0Jz8RrkLY+J+WzRiowQ/mLK6XiSI1w+Ji3FU9CDm04pepLRl5akVSKXF7Gn0LHW6P2sn89f5y0vr/wBvHV+XL2I7LHW+ghShLViij1J8/UXLgvmT/WLNLojjq/R/rL63j6EOlYvqyWPrjLYRRFqLI9i1FqLShaW/koUfc5nM8xzFU83Yq+xV9i78DfMuL0XovQ5ciG3/AARXORaNfkp+S38jjyIx5ItZRnM5jTKSKSKTPMeYVas8x5xXnmHcKpWRWRWRWRWVSsuxNtsjyRe+w5Mi2XFxeXkpCkXl54iPERfzLy4vRci5EXuVLkXIqjU0V1I0UrFU5FeOrS3hbHtwlFSVCKoh9ayj83U/WWh9f+jUVZQwezNLoj7Y63R+1l/f/wCmWj9f+3jr/Kn7Cx1evT/Y9MekkaUVxj1zxlszS6Fjq7w98vrljLZmnssX1/rKOPrjIWKxeUcXvi9iG3/BDefvw+M1JeIoJktKWjG5SNOV0EyWxHbgzXlbA0J3wJbrJb4yI7Y+vC1cWQ9eNChMU1yXChQoinmKFEWotQ1FEVuWosR4aPDRKNEacOR4f5PD/J4f5LH3JQdNyx9y2Xctn3KTPMc70Umec8xWZWXY810hTn9pe+xf+DxF2LzSlS7/AEXxPEiXx7ly7jkqM0n5I46/R/7LL+7/ANctLZ/6eOv8qQsZ/N0v3waqiMbeMOrU98ZdL9jT6F7Yz3jl9Txn0sjti+v9Ysjj64yFisXvlHF74vYjt/wQ3l7j2Ivxfi0/yfF6nK00Y26UV+CbIbcfi5UVD4WNNFfkep/JTCpUW5fHuVGyXxCTN1Uji98ZEMdXYjzmsfqx1lVGltjLY0tsdTbHVm/Eikf2L2yj1zy06eb3KIsXY8OPYsiOCozSgrI+xYWFn5LX3Jp03KS7nmP5O5/IVmea/wDRWfYrLsXS+0uf2lz7Gm2lt6l/4PE/DPE/B4n4NWdYPkX/AILzxEXo8SJOX82n7MuRci6PcuRVEHzn/ouRVFeE35JexB+VYy6lkt3jqdLI4/W8ZbMhtj64sWMcZbiwexHH1xlsyO3/AAQ3kavy5ex8Ev5GyPwyvufD4ybVEj4ZNaaqTlah/ETr5UaknOSIq2CX4GoSkuGtruLojxtZc/Q/k1fU0qxnY2TlbUjpS1OdTTuhqKNSa5Glp3TdxSiFj64SdCWo5bGnKSqLY1JyryNOcq8yWxqa1eRoL1NWdqNGTkuZKVDxpM05XPhNyb5GnWnMuQyHqa+o1yRDWcVzIuq4S2IbIk6IerNvymnqN78NTbDUlbGpoq6dzP7P1lHrnlo7S/08ZdLNL5cfbHU+n/Sy/sftlpdH/wDeOp08aFCiJfOh7PhRFq7FkexaiMV5vc8OPYsieGjwkSgrX7ChyLPyyx/cyx/cWy+4cXcuZSXcpPuU1e6P5PwfyCv5nnPMVkVl2Jt27Cb7F/4L/wAHiI8RFyuZei9FyLkTflZCSoVKlSpXnjIWMcXvixY/VjLYX/BDeXuT6WfCaVqfH4jT2Zp9KPiE7GKaUKLcjotThXuanSzRXmqS2ILxdU+J0pSUbTShZBIiq61exr+otSMYKhowcpXvhq+WVUVqhY+uGs+RCqryNKDfNktj1NOHqMnBXEVRGpzkiKojWqRhSJpdY9jS358GqzXBepP5jLHuRVIrhLYh0onG6NBShpcmKWm3WpUnth8Y+UURjqS2NC9alsu2UeueWls/d4y6X7Gn0L2x1fo/1l/bL2WWh8qOOpsvdZP5y/zlp+vvjPpYtsX1r2yj6++Op0ix9XwoiiLUSSoRhHseHE8NHh/lnh/9mWfkUX3KS7lJHmGpCqVl2KvsXPsVfYTLi8vRehz5l6L49y5dyo2J418+Mthf8Ed2VRVFSqJUI7cFp6a9BpVGUSNzT0owba40SKJti+H00zbhOs50KUiLH6uLKVkURHhZGvGS4OFWIpwXXwphH1HoxbqWLjPYh0rhLTjI/wDHQtOnqT2WHxa6Pc8SKjRGlV61X2yj1zy0dn7vGXSyHSvbHV/r/wBrJfOn7LFmj8qHtjqenvl/b/65ae37x1OhixfzP1lD/wC8dTZe4sVu8Z9IsVi8lhQaVSiLV2LI9iyPYcUKCLEWFn5Zb+S3zlr7lJdyku5SXcmpUF/wR3ZRFqLUWocRIoWlpYSiWlpYWlpaWlrLX3PDGmWvuWy7lJFJdykijqeY8xK8ipI8wkzzHmOZWXYlU8xV9i59i59i59j66lxceIXlxCW5ei9F6LkTkqEJK1FRTRXhMT4zhGW4tOCP7P1hXhD5mp+stLZ++M+iXsQ6V7Y6m+n/AKyXzJfrF7Gj8qHtjq/R/rL+5/5y0+nHU6RY/wBn6yhtwXHU+n3FjHd++Op0ixWMhYMX/FLYWP1Yz2F/waf1e+LFi8lvixY+uLI4vL6uFChQaILcoiiLV2LUSiqEYqiLEeGhRLEThsWI8P8AJZ+S38jT7lrv/RbLuUn3POUkeYjddMrPsVl2Ln2L/wDqX/g0578vU8VdmeLE8aB4se5OcbJc/QhJWr2Ll3Llx1X5tL/WUfmT/WMul+xpfLh7Y6u+n/rJfPn/AJWWj0LHW6f2sv7H7Ys0+lcFxn9PvlH198Z7CxjjLdCwYsfXFix9cZbC/wCDT9ffFixe+Ud3ixY+uLI4vL6sWQ9ffGWxHZYVJS2KlSvH+39ZR655aPT+2UKFqLV2JxVj5ehGKtXIsiWRPDieGicFWPueEu7LH9zLX9xZL72Wz+4infPmUl3Kanc/k/B/J+B+JR7ELrI+x/J2Q/EpsVn2LtT7SdzcOXqVl2Lp/aXS+0ufYufYVfFm6di78F/4Zf8Ahl6PERpukEeJEvRfHuXLuak40XP1FJFyKoquFf5Hi9jT6Vw9eM945Q9ffGewsYYy6hYMWPrixY+uM9hf8Gns/fGWxHbF7rKPri8vXFkcZZfVlD1xlsyOyxnvESx/t/WUPman6y0en9vHU6JexHZYy6tP3yj16mOp0S9iHTH2xn1afvlHr1P1i9jT6IlCiLUWrsTjHly9RRRauxYiyJYixXMsRYWFn5HDk+ZGHlXMsf3Dg/uFGX3FJ/cNSquZTU7lNT8H8n4P5OyK6nYV3YrLsXP7S+X2l7+1k5PlyFL8F54iL4niR7kJouRVFUVQ35ipXjLYjj64sWPrjqbCzZp7fvGWxHbF75RxeLFviyO2MsvXKOM9iOyxlusv7f1lD5mplpdP7eOr8uXsR2WMuvT/AHlDr1PfHV+XL2I9K9sZ9en+8odWp74y6X7Gl0R9sZ7w98l1yxn0sh0riuEuqOUcZemFCi7EUi1di1diyPY8OJYqlqLS38lr7jT7iT7lJdykjznnPNU8x5uxWXYrLsNugm+xd+GXF6LivMvRfHuXx7l8e5OSFmzS2KjmLVPEPEUkRkXlxei4cvMXovRei9FxGSLkVKlSTEypUqMW5XBkdsZZV82LI4y2I7Yz3j75f2frKHzNTLR6P28dX5ciO2Mvmaf7yh1anvjrfLn7EdljP5un+8obz/1jPol7EOle2Op1afvlDqn74z6WR2WL6llDbGW6FgyOPrixY+uLFj68KItXYtXYkl2FnLYhtwnsaO7JbEfURQoUKFOZRFqLUWocUJItRai1FBpFqLS0tKFpYWFpaOIkUKFGUY6nM5nmPMcznceYrLsVn2Lp9hyfYi2XfgvLi8kxMuLkXouRN80XCkiqKoqf2/rKHzNT3y0Oj9vHW+XIW2Mvm6f7y099T/WOt8ufsLGXzYezy0t9T/WOp8uXsR2XtjPrh+8odU/fGfSxY1836xZHbGXUhYPYji9xYSFj64yFit8ZizlsyHSuGpsacXZy3PPTmKPlJStjUh8RXdYeuLI4OaXqT1or1ITUlVYVFixYvFjrcLBkcZCKFEWrsWolFVRajw4nho8OJ4aLFf8AotLPyWv7i2X3FJ9yCldI8x/IfyFdTsjz9jSc1HYv1PsL5faXv7WeJ/1ZrT/jkqEZ8tjxEeJE8SJfHuOS8WHP0Zci5dyqKrhBqs/9Y6/yp5S+dD/Ly0fr/wBvHU+XL2FssZfMh+8tP6v9Yz6RYv5v6E8HsyOyxfUsZbEcfXGQv+KQsVjP0FnPpZHpXDWXlIqiJopyNb0Fp1FsTbQpVRq6rWqkhbYMjx1JWod2rM1IWOhpeXSNDWnKVGyprTtRoTk3zFjIWw5pEdRS2HKhCakTdCGtV04Smo7nixexHUUm0epXBkMdR+U09S4c0iM4yGxasG9ye8ffgsPr/WUeueWl0LitVeK4cNb5cuGpq2zSoIoi1DS8SPL0ZaiyPYsj2PDj2LIkIKsvcsRYiz8ss/LNSHkfM8P8ssf3FkvuLJ/eWT+8sl4i83oWz+4pqfcfydz+XuhLU7o01Pze5/J+Cup2RKc16IhLU7E7rXyFKfYun9pfL7S9/aXfgbrqR5ehf/1Zd+C9F6PFiQmlX3L4l8e5fHuXx7mpJOIpIqiqKrh/Y/bhUuLiUuTIPyrF9eM+lkcfqxkLH1xkLFYz9BZ6nSLZcKcZFC3g1U1JPSPhoPU1bnixcdVViyE/Db5EE9TV5mrpuykTS+Ha5ltDXi6Ghp0VRYyFsTTlKhGCia8vQ0o0ia5owdeGpznQnCMfc0I82yboyDvlgyGC1W9S015q00VbC5ml55NkF/O6Gty02aaildXmaUpPV55f2fri9aC9eMeufuT1LKcGeNCtOGj0Li4J6imuGr0MuSPDV9w5KK5n/k89uXB/Oj/l5aX1f7eOr0Zf3L/OWj0/t8dWX8iQtjWdNKQsX85f5yhtwoiiLUTSoJItRZHseHHsWIsVzPDR4aPCXdnh/klp8tylsdzTul6lsu5SfcpP7ikr9zzn8n4P5PwVn2JXU2E5di59i59i78F/4LuZcXIvReiUkJoqipVFRblcJixWOpvH/g1NhYy9MdZvU1LUaUFDksWLDU0o7mit8JRqJURHF8HDnXg4RfCcakFRcJ6TbqhaXcUaE1Vmlp2YMhhLT1IzbijwnvItrChpafhqhCNJSY1VUF8Mk9yy3Wy/s/XDVk9iGklze/GE/wCbU7Ev5NRU2RWiFOepqU9DVgoqJWkP0aSnqeppqUV5nU1pO0+HjSHD4udsPcan5asWyPirnOCRq6cY6L7ml8uPsP56/wA5aWz/ANPjq6q06VFOL2Z8S6af7I62opKr9eGpNQIzm+Gpq2a3/qJ1VSOpXUlDsN0FqOUqLgtdx5JGlrX78F5514a8la17EGa07ImjO5OvH+z9ZaPQsZ7CxXVLGWzJycnQhGiw+t4y2Fit+NCg0ULUWosRYi1FqLSws/LHEoU/JSXctl3KS7iUjzHmPMeYdaoWeoUOZzOZ5iV1UczzHmNfVlFUPhtOS8zQtyrKsqVGxMuLi8k6kU4suL0XFw2JlxUqVJMTLkVRUqPfJrzYshjqdJHZYy3WX9n64a65qQoaj+ojCnC2d013Zp6aiilTT0Vp1ZKNWifQ/Y+HklGguZqwcrfcS4fGJ+U0NOUndLjqxc3GPpw/u/8AXLR6f2+M2/iNdRWwoqK5I+IrLVjH0F8Or614RXiajk/QpwlR/FyrtRGprRguTPhYusps+Lcq6cV6mnC2J6HwqjVp7lFWprypps0VTTXDXf8AI1+UQjRGv8yNdjxLW2lyI81w/tftkp26aIy1u3B1lKhJShzqN1jEuS9RakX64LeXvxnrKLIuqqarpBmjH1x+p8ZztI6k29iWxekRlXhJ0RfqEBtI8WJXgxYrj4kPuXCRd/xS3Qs59Ucn1LCUL9U9Bb4sXC6NacWUKFCg0JFChRFBlEWosRaUKcyhaUKcKebcaZSR5jzHmIXFZFzLmVfYk3TYjJ0L/wAF/wCDxPweIhy5ouL0XoviXIr/ACfouROXiOhGiSRXhDqn74s0YqxY6y8n7WX93/rlodH7fGOnGLbS4a8ehruhcIwlGtHy46mlfqz9kR+G58xKhKEW02tuGp8uVD4WLvr+OE4KVOOtFeV/9lwlpxm+ZqwS0pURDpXD++X+cXsz6YOnIT4XeG3yPNqy/Bq+WKoacLubHHzrCO8vfgyUJSexBUika79CHJYrqfGlXw1djTXqak3VJC2Ji4bjSIcGLFcJXzdDwkiGxqyHzZBcv+GW6FnL5keLdBOo3QWspai46moomlK70GLW/kaJaqiXcqn/AJFeSIKXqa2uoGjO9cPD81eDY5HjQrSuDFixY+uM3RGlu8WQ4rhLYjsuLYnUluuFEWotRaii8T9E9KuxHRijw4lhYiMecvcs/JZ+S19y19yj7kE7dyk/uKT7n8h/J+DUvoecrPsVl2LpfaXP7Tn41afSXfgv/B4n4Z4i7M8Rfk0ZU00eIjxI9zxI9y6Pc1Jry/6Lo9y6PcuXcqiq7ia8XU/RVYPZmjSyPtjrf1/7XGaujTivmz9ljLpfsaXRH2404T3h78EsI+vGnDUXNe4sY7v3x1vQv7IhHnV8JSSI8Hf6EYd+MhYrhQo7uGpGpDSSxWMt0LP+zj8Q3aaPQa/QaWm768bb9QSSJ7MhOMZSbFdqzPitSyKSPhNP6nw1UnqcyEVFchzSdOD1qSoyt7Nbyml8O35mRl5qYLCdS6opLF78JatCE1Lhqvkaao8WR9RsuT4z1EiOy4VqU4SfNe4sfr/WUeqfvwrxexpfLjjrdP7XHxFfbx/tftlo/Ljxoii7GpFeT/RauxbHsWR7FkexZHsRgvE1OXY8KHY8KJ4MTwl+SWkrXzZCCsj7Fn5Z4b+5lj+5lj+4nF1jz9S2X3FJfcUn3Kancpqd0K++R5z+T8FdT8FZ9hudHyIuVq5F0+xdL7S6X2lz+0nJ1jyL39rL/wDqzxPwzxF2Z4i/JCR4iPEiXx7l8e5qNVj7l8e5fHuXLuVXcqiD398ZehRcXFPhHGW4sVjIWKxe4s11vi4p78JxqiC58YxpJ8Gf+NFtshCMVyNXQWoQgoxpwnc9U9BQbnV8NXRuNOFqPiN0ePJqiRowe74sjg0TdrNGspVx9RlKvmae/CXOQlzxYluaqbaRHRtJu1F2oSrKRDZGtXkjS03Ek6ISnN1JfMiLH+z9Yt0ISlPWkltU2JyuZpqkSepQu1OxGVulE053xrQ09ST1X2NTUsoRndsauqtvyR1E+GnGs5S4KQpV1ZU7I2XM/wDLd+3IjJNVXHQ+VD2x1N9P/WWn16v+sZ9EvYh0x9sZ9el75Q654z6ZexHZYy6o5Q4URauxREo80WI8OPYsj2PDj2PDiQiixFiPDXdnh/lko7Fv5LX3LX9xbL7ij7iTKT7nnPOecd1Tzdis+xWXYul9pdL7RN9hT/Bf+C/8F45CkXIuRciqE0VKoqVHuLNPmy5FyKoqVF1PFkcZJZOKk+YtKC9MGRwkyfnkacbVj68LeZFU4U5i3xZEa8yfDWi2uRHTbLaMjsakly4airFinKlqQoOqb7ix/t/WPxF1nlPhoWp9yfSQ01vwj5pj2ZJfxQPEk0oxRpadqPiHWdpGFunT8FFy/wBCjHsT1KStEqcIOU/IQjScvZHxPy6d2LS04Q5mh68HszR+VD2x1OvT98tPq1f946ny5+xHZYz+Zp/vKHVqe+Or8uXsLbGXzI+2UNsZdSxZp7YvdYvYji9/+N8KFCiKISRaixFiLUU5iyZFblqLUWotKCiUKFCjGmKLKPuUl3KS7nmGpHmPMeY855jzVKy7F0uxdLsXPsNvsJsuLi81dU00XFxcXFyLuZVFUVRVFUJq7KPrjNEelHg+avFRXY1Pp98v7P1lp9Wp7jEqcLOY9mQ6I+wopenCyNa05kq2uglK+Nfu4eGr7uMNJQqL5s/0a0HOJHQlXmKNOEul+xp9EfbGfXp++Wlvqf6x1fly9iOyxl82Hs8tPef+sdb5bFi/nL/OL2IbLGXWsXsyG2L6sZbEcXvksWLFYvfN7ENslixYv/jYuLR4fmHxoULUU8xQtRai1FqFFVLEeGiws/I4fkjH8lj7lr7lku5ZP7iUZU3I1oec855ys+xqXeX3Ky7Fz7F7+0v/AAX/AILv5P0X/g8RHixPFieLE05q6fuXx7l8e5dHuXLuSaozTasj7FcNT6P9ZR+ZP9Yz6JexpfLh/lY6nzNL95aX1/7eOt8uQsX86P8AnLT+r/Tx1egWP9v6xezIbLF9eMtmRxfVixY+uLI4y3FisX1Zy2I7YsWLFi/+NkcXl65Ld5QxnsQ6Vjqenvl9f640KIouxBKs/coiyPYsXYsj2HFUZCMbUWIsR4aLETj0r/sWFn5ZZ/2ZY/uLX3FF3y5ls/vLdT7xrV7o/m7on4tkq02IX2xpTYrqfgrq9kXan2l0/tG5Xw5dysvtLn9pe/sZf/1Zf+GacqKXJ9TPE/DPFXZnjR/J4sDV1E4NewpxFOL9S+Pc8SHcvj3HKPjLn9JfHuXLuVXcqiqNB+V/6eOt0r3WX9r9sZbMjtj/AGPGXSyOP14y2I4+uLFixYrH6hZS2FixYvJ75LfFixeS3yjvlDGWxDpWOp6Cx+v9Zae8/wDWM+l+xp9EfbGe8PfKPVPHV+XP2IdK9sZfNh7PLT2/bwoa3R+0URRFq7FkOxZD7UWrxNvQ8OHY8KHY8GHY8KHY8GHY0dOLgjw1+Tw1+Tw13Z4f/ZmpHkub3FD8ssf3Msn97LZ/cWz+4Sd8uZSfc8/c/k/B5/wSvp6Cv/B5yup2Kz+0rL7TzXPkXT+0ul9hfL7GXv7WTk7dmRn+DxP+rPEXZniI8RHiK48SJ4kO54ke54ke5OcaEZIqiqK8K8xPBkcXuLBix+rOWUhYvJ75LfFixeS6so+uUcZbEelY6n0+4sf7P1lp7z/1jPol7Gn0R9sZ9en75Q69T3x1flz9hbLF/Oh7PLR6F+8dbpX+lkvmy9stH5ccdX6PcWMeqWOp0sW2K6pYz2Fj9RQtXYtXYsj2JRXYUUWIsR4cSxFiLEWFn5ZZ+WOH5FH8lr+5lr7lsu5SfcalXcSZ5zznnPMK4rLsXS+0ufYr+D6hZTEVLi4uJMT5D1YoU0ypUeXrixYsX/GurKPriyGMthbY6vp75fX+stL6/wDWOp0S9iHSvbGfXp++UOrU98dX5cvbJ/Oj/nLQ+WsdX6P9rJfOn7LGXS/Y0uiPtjPeHvlDqn746vQLGPVL3xnsLH1xkL/iewsXuLBix+rN9SwqjkPh8RTkaK8hQoNFChaWlpbzKFpQoUYlwozmeY5nM5nmPMeYdxWfYrPsXT7F0vtLn2E3UuL/AMF54iL0R1EeIjxIl6LkOSISRciqKrhJ8iL5Y6n0++X9n6y0vr/1jPol7EdljP5ul+8tPq1P9Y6/yp5P5y/zlo/Ljjq76f8AvKPzdT9Yz6JexDpj7Yz64Zaf1e+Op0/sWMd5e+OpsvcWK3xkL/ilsLF74sWP1Z/WuDITbmS0oy3FBIfDWdZkFRLi+MnQl8XK6iISujU9cWRxYnj68JSoJ1XBi3xZAoi1Fq7Fq7DiiKRai1FiLESiqEYckWFn5HD8mm7m1XYmtuZa+5bLuWz7lJ9zz9zzXHnP5Dznn7FZdiFVd7lZdir7Fz+0vf2mpJ2S5EZOi5F/4PE/B4iPFiSmnq6f7L4l8e5fHuXx7l0e5ptVn/ouXcqu5VFT4h/wy4x1k9SUO3H+7/1xezNH5cfbHV6tL/WUOvU98dR/xy9iOyxl8yHs8tL/AO8dT098oevvjqenuLGO+MhY+uLFj64sWP1Z/Xw1HRELq1SIub3XB7j2IK7Uz1OlmnoylIhG1UGamvNSoaHivnLhra1h/wCTqM+Hk5b8NSTSI6vLmLURLVu2I3JkpURpa10hslN+hCXPhqsh0oc4rdlai3xZDhUvj34SNPbGWxHZcZ8os+HW7NT09y/z24N0IzUtT9cK4Q9ffHV+XL2I7LF/Mh+yhQtXYtj2LV2IRXm9y2PY8OPY8OJZE1YpabLETjGMGz4aF03L8Hh/9mWfllnn39Dw397PCf8A/Izw5feyyf3jjOj85pQn4cfMW6n3FNXuhrX7o/n/AOpqX3aexWf4Kz7F0/tL5/YXy+0jKVZu31PEf2M8R/azxP8Aqx/EK5RtZqyrpyFPlszxo9meNH8njQPGgPUXixf4PFh3PFh3PF0/uPEh3L49zSaoXLuVXcqu/DUa8vuJ46b5Yz3iLGPrjP0FisZCx9cWLH6nmut8Ndmj0IquHqS2NFc3h68WhJp8JMhouTqyIzVd0xyjGNFufDry14SjVHgSJwsiacOVSK5mrGvIhpqBqTbnQUaIgvMSdEX1ZXkalZTNOLjHmR6niyHDVuup6ENJbj2FrVk0ae2M9iOy4PYlrXKnqadFFI1PQ5Tap6Gs6QZ8NdZzJSomyDlqltvxEaduGk5eI3hpbS/1hU1flyNPVjJ2+q4p1HqRvt9R/Oh7PLS+r/THJITqTlbFs0dZah8R8v8AaP8AyVXkj4nUrFJHw8LdNfnjPUjDUbfZEZKSqjVbUG0ac1ONeEul+xp/Lj7Y6nzNP9lz/wDIp6Uxh1T/ANYafm1JSNXoYuFChRD+b/6lEWrsWR7FkOxbGmxpxVpZHseHDseFDseHEnCNUKCoeGiz8s8Jd2OH5ZDTVPU8P/szw397PDl97LJfeShKq8woS+4tn9xTU+4pqdz+QSn3P5Pwfyfg855uxK/sJy7F0vtLn9pc/tLvwXfgv/DPEXZniIvRKaFJF8S+Pcvj3Ll3KqomiqK8GJ4rfOO74amlef8Aj6n/APIL4d15z4evCmHrkinDVflNPRTVWf8AjxRHbBpDQkONSh4KuqNCXMZHTRQS/k4R3eLI8JpUNJ+UlsR0fUhtjPYjsuNinqewopHxOyNCFImuqpL8iVEkfERk4eU0oWwRT/8AIr/1HsaWn/8A9w0dn74OsptVokajsg+dT4ONXKZqumnJkdZuEV6kVZA+Z8XBj+dH/Ly0tpf6Zp11NaXbh8T0pd2aEaNtHxkvIl3ZGEY6dZbs09O6X4HyRDWjONTUnfqRUTWT1PiXFfhGnBaUKCaaEktjV1KysiODUJVfoafTH2x1XTVh7M0/WRCVxKVqFrSu/AtVOdpfapP/ALM056knz2PQlrznyoaSklsa3QPX1W6x2NLUvjXD+5/5wlJR3PFjJOhpakVSHrTh4ivt9Sq4SknKNHizT6VjLdYsjx1JNUoJjwqXITKpCknxkhIoi1di1di1diiJTgh67r0mnSSqWIcUKKLPyWfks/Jb+SOcTmczmeY5nOpVlWVZVlRPmVLi4uGxMqXI1HUjsMiyqKoqVJPL1wtXCO7xZHhNTZpqkeFORHbHU2FtxjGnDUVbffg1h9f64Uw0un9vCWlFnxUVHTovVmjG2CRJXJo09CGnwenbqKSXuP50f85aPS/9MhpqFacNTTuEqI+MT8j/ACRUtX2IwUdh800eBqJ0SNLSs9zo+J1eROtjbNGNumlw+Ej5pyZPol7EelY/FVvgkQhbE0t5e5r/AE9it3KKNKH8jfYl8pvtJkdkN0RCPOr4fFfKL4w06Lc+Fbtde+C+bP8AWEq6s/wT0rI3Jnw8HKdzEal8dWTRo6b6pHxE6K0+H6sZbMjsa0nGPI8PWfNMjWnM1dW1pH1LFkeDdBu6RbJeo3QUpXHicypKsiUJRT8xo1oajuNNtSoRZUYsdSbrQhpdzVSjJENuDFismQ2yWS4UKFOCKFqLV2KDRai1FiLUeXuOBaWlv5LPyWvuWuu5a+5bLuUn3KT7jWp3IqR5jznmKzKyFU83Yq+wn+C78DYpfgv/AAXniI8REpVQpFyL0XIuROXOJci5FyLkXIT/AJX7FSuGkvL+8fieckLF/wD7C/xlodH7eOvSkf8AaFjFLxdX9YUS2Nb5U/Yh0r2xkv51/ka5CjQpUpQtSqRU5K38iVEU46/NJfkWhCKNONqwj8zUwV2m2qepruTRoxpBcKcJwu1OfYUFGap2xn0sjsfEN8kkadacLL5Op9X6Fg9iHDUTaIadB7kkUkKHPhK5bIkpeppLkS0ZNi06SEuDFj/YyqSJyv1ORHbhIWKylsR2xYsWRxZHFi46j5GjHnUeXriyOLIYsXDlxnsIoURauxREqVRRFiPDieHE8OIofyP2LEeGjw0LSS9WeH+SEeVSz8lj+4tl9xSXc1NOqFGX3FJ9zz9ykzznn8X/ANTz/g/k/BWXYrqfaVn2NG9R29WXT+0vl9jPEf2M8R/YzVdbOX1F/wCC88RHiI8SJGS8XV/RcjxI9y+Pcvj3NSUXpy5+hGUaLmXR7l0e5dHuVRX+f/0K46HQsdXfT/1lDr1PfBkvMpSIbLCh/b+sZ9LIjSfG2jP7P1jLYhhQe+DdDcguFnMpwYsXpqQ/hp/caego8ZCxhlPYjsakrY1NPV1HuKVScqIv1GLWaRpyujUlK0hO5GtrOPJGnr3cmRxZHGboLVjWnHVfoaapE9clvixHiRE68ZGntjPYjsiTojSuerXjq7Cxl1xyXzJZaXQsdTpy/t/9ctLox1Po98tP5mr7/wD1woiiLV2NRJQkKKoWR7Hhx7HhQ7Hhx7Fi8Z/5PDiPTizwV+Twl3Z4S+5mlGsFzLPyWP7i2X3FsvuJRdV5i2X3FJ/cefufydz+QgtSsufqfyfg/l/BXU7Ik9VrpKTspaJzpsXz+wvl9h4j+xnif9WOb8Stp4n/AFZ4n/VnirszxY/klqJxe4pl6PEieJHuXx7lyvLkXR7l0e5cu5JqjItFUVK8H1cG+ZckOVzKciOL3yhjIWDIZT2EfET5qItVKNKGlV8zVVYniOlqRHSdOZBUia9zaoQjbFGrS/mVrLkiHSsWLHXly3NPuR2GSXm4euUnQXiSI1pzNWVCMpIjqXNooQgmdKHq6leRDVfqS2NPpxnsR2RrS9DRokVXDWk5OiIStXMTqak7UQ1LuF8XqJZR+ZPF7Gn0rHV6f2sv7X7ZaHyo46m8P9ZafVq/6x1vlyy/ul7Yy6X7Gl8uPtjLrjlp+vvjqOi/eS63jLYXCiKIoinmZRFq7FkexYuxKKoRgixFiLEWIsVS0lpVW54M+5HRp6jhy3FD8lsvuLZ/eW6n3FJ9xxlXc855zzlZjuFd2Ky7FX2Ln2Ln2HL8Cl+C/wDDLy9DmqENspkpURpRum5Mtj2OXBpCwnpRlueFEjixY62jzqaehxp5uHrk0QVFw1Y1GtRmlCiqVIbkthSjGtSNZzHsQ2xnsLY1eojpcqtkOvlwn5JcyepcuSNGLUDXWxGKSJdLNGD8WuUeuWL2NPoWOttH/SyXzpeyxexo/KjjqdWl/rLR/t/28df5b/WS+dP2WOp0S9jS6I+2MvmQ/eWl04620f8AQsV1yxnsLH6njPYjj9WLFi98li8ZbEcp+g9NMWnQoWlBoSKMozzHMdRVPMeYrLsVl2HUqyrLi4vJOomXFSqLkV5lyLkXIuRcuHIrwdD0LSKpwloqRGCjsS2IdKxkehLSbqLT1diGnbw1Yp0PDj24Ti3IQxKmouD2Z8LWj4x654vZmn0Rx1fp/wBLJfOn7LF7M0PlQ9sZ9en75aH9n+3jrdH7WS+ZP9Y6ny5exHpXti/mx9stPpx1fp9xYx3fvjP09xYrqeM+kjj9WLFj64sWL3xlsRyl1LKQsZCxeVChQoURRFChai1FqLEWliLSxFg4CiWln5LX3LX3JRdNyMHTctl3LZ9y3U+4pPuO48x/IfyH8p/IO/1PMVn2Lp/aXS+0ul9pV37Fz7E5O3Y0/JHpPE/6sv8AwQfmmeIjxEeIjxIktRWs09RKEanixPFh3PFh3PEj3NXUXk/0Xx7l8e5dHuXx7l0e5FrxJ/rGXTL2NH5UPbHU+ZpZaW0v9PHW6P2so/M1P1jq8tOXsLbF/NX+cXszS6I46nVDKHr746n0+4sVu8Z9JHH1xlsLH1xYsXvjLYjl9eTymLF//wCEsZEcZ7EdsZ7CxlusvryjvL3xlS1kErUURauxbHsWR7GpFVhy+otj2PDh2PDh2PC0+x4On2IwjfLkWI8NHho8Nd2S01bLn6Gnp/xx9jw/+zPDf3ssf3FsvvJxlfp+Ytl9xbP7y3V+8pqfcU1O5pKdN/Vn8n4P5fwfzfgrq9kT8Vx5pbldTsV1PtLtT7S6f2l0vtIuV8/KXv7S/wD6s8T/AKs8T8M1pp6ckKapszxEeLE8WB4ke45x8Wv4L4l8e5fHuXw7kpxtfNGlKNi5lV3KoqVNV+fTE1jp4z3iLGG8vfGexHH1xlsLH1xlsLH1xlsLL68nvlLJ75ev/GyOMiO2M9iO2M8pdSy/syh9XvjPpZDpWOp1afvlDr1PfHU6Jexp9EfbGXzIfvLS6f28dR0t/wBLKHXqe+Ot8ti40RRFF4r9iiLI9iyPY8OPYlpxtfIhpxtXIsj2PDj2PCieFElpq5Hho8P8s8P8s8P/ALM8P/syMPyWP7iyX3lkvuLJ/eOMqrmWz+4pqdz+Tufyfg/k/BG+rP5fwV1uyLtX7S7U+0m5dhOXYul9pfL7S9/aX/guddi/8HirszxV+TxYktRCmi+JfEvj3L49yqqXIuRciq7knyI4+uM9hZLqy9cnvl65euLFiyOLFjIWM8pdccl8x+2UPX3xn0sjssZ9en75afXq++M+iXsR2XtjL5kfZ5aPQv3jq/R/pZQ6p++Ot0ZL50vZY6nRL2IdKxl1r2xexDbGfVHKGMxY+uMkIoiiKItXYoi1diyJ4cex4cRwQoosRYWflln5LOe5Y/uZZL7i2X3Fs/uGpdxYsT8xVFS4qipXmVKlePrl65LfFkcWLGQsZixlk+tZLreWns/fHU6GR2WM+uGWn1anvjqdEvYWyxfzI+2Wl0LHV30/95ae8/8AWOr0/tZL50/1jqdEiOyxfzf1i9mae2M+tZaeMvQWPrixYrGQsVvjP0FlBc2URRDlBCoy0pzKFC0tKFOZQox1IOTbOZRnM5nmPMcxVOZVlS4qJlxcXF45CmXIvRei9DkhSRci5FyLkSkhMqVK8JPmsK8H8xZRf8kstLp/eOr0MWMvmaf7y095/wCsdb5U/YWL+dH/ADlofKjjq76X+8tL6/8AWOt0r/Syj8yf6x1Ohi2x+vGfSyG2MutZaeM/QWPrixYrFixW+MvQWLIcHJ+NQ8JVEqcFvl68ZuiNDb/gWS4U4UGhIoiiLUWoaRai1FqLEWIlBFqLEWI8NFg480Wln5LPyWfkt/JZ59yx9yx/cWy+4sl9xbL7iMHe+ZbL7ik+5TU7lJ9zzkIypuUn3P5D+Q/k/BO+3mLxCs+xdqfaXan2l0/tG5Xx5F0vtL39p4j+1nif9WXv7SE9/L6l/wCDxF2Z4iPFX5NXUUtNoUkXo8SPcvj3L0OS8SL/AOpfHuXx7l8e5dHuVXc0WvDiV4V4anVpf6wbSRDVjPY0fr/08dfaP+llD5mp+sdToYsf7HjqdEvYhssX8z9Ys09sZ+gsfXGQsVjIWKxluhYy2IbDLv5HIhKcvThKSQtVVy1daw0NSUt+HxEqI0ehcFkuHiRqVHJIeqiDqhySwkLGWTy9Vl9fDWk4x5EOcVxg/NLFkNsfiZPyr8ixfzY+2Wn9Xvjq/LfChRFq7EnCNKnJ6v8A6lq7Fsex5LqULIdiyNHyNKK8OPsWR7FkTw4nhxJRSnp/lnhos/J4f5ZrxSXUz4fS3Zpx6uf1Msf3E24/UWy+4pP7jUjLy8/Utn95TU+4pq90fy90fy90Jal8uZ/L+D+b8FdTsiup2RqPUt2E502Lp/aXz+wvl9pe/tKu9uhf+DxPwy/8HiIlNOLIySRfE8SPc8SHcvj3JTjeeLDueJDueJDuXx7jku5BoqV46n0ixT8zxkLFYy3yWMuoWMtiGxqOkGaDh6l8e/DWU56lPQsUUR2WDNWstVmjC1cNTzaiRFUXBYsRIhppcJ78I9I1z4TnQul6leQsZcZTSFwnNuXIhsTlREXqMRU1J2mjqOZKVFUhqub5Lhq6jXJGmtS/g2punCepGO4lKfN7EtRxm1A09WtE1g9jT6Vg+SLbp3MvS3Ypx74P5q/zjKaiaE1KvvxbSQnU+Ia8NikmSkoqotaL4ayrEjy1P/TjYq1G0tyfxCo6Gg66UfbGfzNL98WP+SYlRGls/d8OvUrx1Po/1lHqn746vT+xYrrkaztjVEeaTJytVSLTVSfSysVyZRFEWooiiuNR2zjyLYv0LIdiyPYcIkIIsR4aPDR4f5JQ5rmKBb+S19y19y2XcUX3LZfcUl3KS7lJ9x3dxX9zzn8hXUKzFcVl2Lp9i6f2l8vtJSddies9qGlKdeaZf+C/8MvLzxEeLE8WHcvj3K1kLGexDpRKNyof+IvuI/D09eDEq4shp+dvgyCrqN8GQxYsHBFqPQXN8J8mOblsJcspcectThPYWnzQkaiqLYZdGNak5vVnRGlCyJ8VW2iNCFsOE5J6nIjuPY0Y7vhqaN8kzaJoUTnKXci/E1qrbCXSzT6FhqbElSC9x0c3calK+Uj0rj/d/wCuNLtR1Ph4rm/y+HiUm7tiU/EdEcoRJN6m/dEVTU/Br+hGCSNSVsSFZR5i+fL/ACjVlbB0K6iiabqjVcpatpqaajoy7nw6ppxxn83S/ZqyaVFuKWrDnLYnqX8kacLUamrbsfDSuhX8mo+VDTjRcdTfT/1lDef+sdfVSX7ISuinwrxj1yPiXySF5Yo1ZJx3NKStRqdJOF1vCvF9bH59QRrrykOlD2ZDbGe6yW+Lk/EFgxY6vIhCrqJcXsRRQoiiLUU82U9iL5FS4uKkpEHyKoqipUbINFeEVQqMhtixYyFxlFMWnFDye642qtePrjLRjIhpxjLg4rj4Ua1I7vFi+Hvk+1SEFBcsJ9LNPpWDVTV2XuT0YT3PBiqUw/t/9cNSMmuTHpyj9XM0E7f3wnpqZDTUBqpOKjBJfcinOpONwrvUnByNhfPn7I1I3RoW6jonsJUVCiNZNxNPoj7Yy+dp+zKrxOZOd/JENKnC25up8MqaSJXTnyL5x8rIt2VZoOTmT3h75ae8/wDXB7GnPU50HqakeT9TVhTTTe9TTVII1ehmnSEeZpTcpvtwj1S9yTu1SlVQlo2yomQ0aGtJqiETlahOTfIi5RpXhqdTNOBeq0J+bkJGtqWxNPXWzXDVl6GmnDdlTWlbQhViWC3w1JUiJu8iOSQviI1oLUix7Cx1Z+Y/8iS9DR1b1sT1bTT1VMexWTluQqlzFJPj9WWpsRXIoUKFBoiuRai0tLRojEoWlpaNCRQoyj7lGOoqnM8xzOY6nmKzKyLpdi59ipcy78F/4Li4b5lxcXF6L0V8xcXIuRei5CfmLkOaLi5FSL8zKouRVFUVRpNUfuVKoqVJvysh0rHV+n3y/vl/nGlWaHy/3jrbR/0so/P1PZY6ny5exDpj7Yy+fD/LJaakRgo8bUaHyojjqJ+UhpfcNeVo040Rqdel75aX1/6fCSqmjS0lBEoJtPsa66P9cJKqoeDqM09OxcK9XuaUedeEY1lXhqIWxqOpCcYr8kW5vhPnqMWwlz4yV0mRhHtwnWMqjvkQXI1It6v4IrliuLdDVlVkYeYRqkub5GjF1PQWM0vEdTyvkkQjRE5czRreOatNJc2yT9DT07eP1PLUFixYsji+GpNylbEiqLixYvJ75epQoUKIoU5lChai1FEJcyhai1FqKIUUWIsRYi1FqIRVBqPqWItRYiUFQjHkWFhYWfklDb3LSz8lj7lr7lr7lv8AI+foUfctl3Od1Li2Xctl3NOLt3KT7nnPOec1K+X/AEK8rqFdTsVn2Kz7EbvEny7FZ9i6XYul9pfL7ScnZLl6EZNRXlL39rPE/wCrPE/6s8T8Mcv5ly+kv/DPERejxEOfI0ZfxxL4l8TxIl8e5Npzh7lyL49y6PcqiqNL1/0yuGt/X/rKPNy9xcEuGrsvcb5EID0oP0EkuFP5JcKcZw3ZDbhQt4S6kLFcXsU5nqIlC48FIjGg9hY6mldIhpRjwelFkdOhPTIxoiMcFu8tT04SlRVP/MXM0tdy9DxES11WhF8sZEdsZE50iaEfqeDFi8G6FRzinuRafCvH1yW+NRbvKHrhPUtoehDpNWMpSVC5acebF8RFvhPYW2OtK233ISUo1xXzJca/zcdLoWOrvD/WUfman6x1OiXsLZcVJNtcP7l/nF7Gkv44+xQoi1Fq7DSuiWosj2LIijEsRCK5+5ZEsRYixE4KsfcsRYW/kt/Jb+SMebLX3LZfcWy+4pP7iV3LmWT7lJnnP5DzHOrPOVn2Ky7F0vtHJ02E32LvwX/g8T8F/wCCUuaL0XovRejxIkWXovj3LkViVVS5Fy7l0e5VEnyEyqw9cZ7Cxju8pbrh8U/IaWnUpGKIeasiz+R1OlEp2wqaMtTWdfTjIWMifmlFD8sR6mpzd3I0NWcp8HizU+I50QtWS3PG7Ii6rhqtpciOk5PmRgomrqWRqRerN1PHa5EfE3Yh/E+alBa0RcGR3eGrN1tRHTkvUh68b/PQlJR3Hr/g0XcicrVU09Vzew2luTgpofKJDWmacrkfEXS1lE/8eKh+TQbcTU6RY/FvpQpyt8q5I0pXRqOUVuyqG6Kppal05cuGrGUlyZo6fNmyFrTb25Gn0LHU6tP/AFxl8TFMjJSVVwh8zV91jq/LkLbjp85t8P7v/XGXTL2NL5cPbBs8RS1I8ZukWfD1o+Gls/fGb5w9+HiU1baYafr74z9PcWK6njLYjjLfhQoUR5eFEWotRai1VLUWosRYiUEKCPDRYWFpaqnhIs/Jb+S19xxfcUX3KPuebueY8xDJ9XD4l80haVIJHgTk/PLkJJKhq6T9DT0fWTqOCkRioqi4yFjIUedSUao/8TnzZDTUZcuDx1auPIho282LTlOfPYcUlyFyQqmpsacvNw1tNzLLdOho6LrWQ4jEoJtsXmlyFyXBkd3hqVTqR1Zv6TTNWtvI8blRGlCnNk4Tnrfg1IxjA+HXkNbpNJUia6qjTVIIn0sjJRi+58OvKWRrUlsacbUamwsXpynr+bYmqQZoqkCdL5XfoipOS7Gp0s+G+rhPYhGiNXoY5qOnRb0PhpVhjqden78NZu0enCEG3ufCOXm7DdER1I1nz9SM7jUlPxOQtlw1vlSFwnsaapE1ZURKUlWu9DQu8NVwn0S9jS+XD2NWVEeeMakJXKprP0JwtlF/gg6xXD4hyqkjSTUaGtqNckfDyb0+Z/5Ek6EdaSfm4as6LkRhJOLYmixVqamooI0tdT5Plw0/X3xn6e5ckKcXs8F1S98Z9LFjLqQuDdCU29jzRmabrjKVCMk8JCwm5S2NJSW45xjuR1YS2fBjlO4jjHKXUXEf5NevoipcXDZcXouLkXEmJlSpVFRvKuXrjJVRDTo83oJvcjBR24sjhqvkafSQGqkdGEfTjqRqjTXlGqijQpwn0sj8PGqljPbJ/MiSV3Bwi/QoT05v15GjG25fng1z4MlpxUZcvQ+HXkxn16fCUVJczU0/SppxtjQaqqGnoK6fP1FFIUf5Hx1/lPjJcNSLex4b8SjFthqdEvYhyhH2JXTfIrqS5UIqiNVS5NFspasbuwhkVWdeDX8vM0/lmhpO6skasK28FznzNSXOJop3vhqSTm6iVZqnDTxn6Euc6EdGjrXhOU3LkLYlOjdO5Cck+ZfJ6ioLhPpI4y6hcNR86EYmt6GjtixeVinHvxkLjPpIo2qdT5k1SVYmm6xRJ+hQRLVjHcfxMfQTqak7UaGpdl9ZQhpqKKFCg+FEWotLUNFChQtLRooWlpaWlChRlGUZzKOpRnmPMeY8wqnMrIrLsVkVYmyr7FX2Ln2Ln2HIiy4uPE/A6ylsV5EWXF54n4LyUyEuRei9HiIvRKaoRlyLi9F6L0TkuQpIviXxL4lyG/5V7FyL49y+Pcvj3LkQkqy9y5dy5dy5dy5dyclZL2NOiiiqKlSpJ/yQ4y61x0n1/wCsdboy/vl7LHV+XP2K8lH8EY0WD+Yvbg9hKnHR6Fh4Ua1JrzwXuKNOD0KyqR00nw09sdV0oanOjRDZE9iMT0FJKTqUu5mnDnxn0kcZdQuGp5ZVPF7EY15kFj6mrKuxpafOouDFhShStR6WrU8AiqI3kM+kc+fNEIXTIrka78zPhuoWDF1Za0qHwrlKreL3yeXr/wAixYsWRxZHjJqIuY9iOxQoURQlsJFCiKIoS9Chai1FqKIor/0Wosj2LF2LI9i1EIrze5auxZHsWR7HhxJwSixRVEeHEsR4aPDQ4LxIliLEeGiz8ss/Jpx6v9Fv5LPyWPuWPuasOW4ovuWS+4tl9xbP7i2Xcin4k+ZSXcpLuUn3P5O5qX+HL2NOE6VP5D+Q/k/BXUHd4i9iup2LtT7S/U+0vl9pfL7SD5bF77F/4L/wX/glLzR5F/4PE/B4iL0Xo05cjxIl8S+PcuRq86EVFF0TkzkVQtONzf5OVBU4yfIWL6hcJRUhaMUU5EcZybdEQ0xLjIWKwoS3QjVUO3M0oU4SiuxpQ54sj1Pjeq0FJPh8U/Q+HjSGL3K0HrTlLykK28zU1dRztiRm0vMXJk9TUcrYmlGS3ZUvj34ev/BVYLFkcWRxYnRF8eE1US5EtiO2M9hYz3WX9n6y0/X3x1fly9hbYv5kP3lp+v8Ap46vSvdZR6546vy5ewsf7P1i9jT6FjLrjxpwoQRRFqLUWokti1FiLIlkSxEYp1PDRYiwsJRohRLH3LJfcWz+4pPuc6nm7nmPOeYd1BXnnPOV1CT1SMZHmKyKy7FZdhtib7Fz7F77F77F/wCBS/Bf+C88RfkvQ9VJ8x/EL0I83Viki6PcckQ2xZD14zfN9z4Zb14T8+sRVFj9RNeU04KKGN+HJuhqTnqulDT07VQkrXU9B3znuS5Ohp1tR65Smo1FrS1HRbGzJSpETnuRdULGTojSncSdEVbZHYZK5kNipdwvrKg9hqtCMETlREduGpq+hdbCrF8TLsacrlXjPKXVHL+x+2UP/vHV6GLF/Mj7ZaW37eOttH/Syj1zx1vlSFj/AHf+uL2ZpdCxl8yOUNsZemUPX3xnsLF9QsHsR/4mLFcaFEamjCTI6MEURai1FqI4sh68XpRrUgqNmo6RNCHNvL1waR4fnrwpPUnz2KE9CTfJml8OocFiyenKciGkoIt5klyPM+VCKohY6ybRpRpEmqigIfD0LkheZmpW3kaMSew9iOxJVFwemq1NVXOKJ2wjRbmiqRXGXpk+pZLreWntjrfLeT+avbLR6P28dXaP+llHqn746vy5Cx/t/wDXGXSzS6I+2MvmL2y09sZ7xFjDGewsX1iwYv8AiYsVi8WLGWxFlSpXg+Yty4uLipUu5lxci5FxVHqVRUqV4LFkcKIZHFixZ6HhcxKhThPYWnjPYnF+hDSdavCfpk+pZR655ae2Or0Zf2r/ADlofLWOp9P+stPq1PfHW+WxY/2v2xl0s0+le2L+YvbLS6VjL0FjDGewsfqxYsVi8li8XsRxnsRXlKYooUKFCglzKItLS1FEUKFpQoWiRaWlpaUEihRlGUYxVOZzOZzHUVTmcysjmOpzKsqyr7FWSqKpVlSrKsm2Jsq+xUuKmo3yE2VKl34Lht3FSpcXfgv/AARfmkXF/wCC/wDBcXfg035S/wDBf+C/8FxOXIuLy9F6L0XLxP0XovRei9FyNKStoeJEviXx7l8e5qSVYf6LkXovRciqISSlP/Rcu5Vdyq7lUa7/AI2VRVFUVRVFf5H7Yz6WafSsX81e2L2NLpWM90LGGMxY/VjLYWDFi98li8ZbEdsZ7C2xZHFiyWSxYsWLFixkLGWUvTJ75fXlHeXCmEOlY6my9+NCnD6/0UKIoiiKEKWooiiLV2LUai6fctRYi1FqLURgqy9y1FqLIlkTVgrSxFiPDieGixCir2Wln5LPyWfklHk+ZGHLctfcsl9xZL7i2Xcad/6KS7nmPOecdaELqFZFZFZFZdiTlVci6XYvf2l7+0vfYv8AwRZcXl5cSYpFyL0XovRVVKoqiqKom+RFlUVRVDYmipUrwe4sVi8ZbMhtjPJixZHFkcWRxYsWLFixkLGWT3WT6ll9eUPq98XsyHSsdT6ffL+1+2L2ZpdEcZ7w98ofV746m37WS+ZL9Yz6WR2x+v8AWLIbYy3WUMZCRQoWotRTmULS0sQ4iiWotLRxFEtLCwtGhRLS0sfco+5QoyjKS7lJDqefuec855h3UIbYy3yYsWLFkcWRxYsWLFixeT3WT6lk+rJdTy0/X3xlsyOyx1Pp/wBZL5j9sXszS6I+2Op1afvlp/V746vT+1kvmT/WM+lkcf7P1iyGyxlusoYyy9cWLBixe+SxeMtiOL6spCxZHFkcWLFixYsXk8nusn1LL6sl1PKHr74y6WR2WM94++S+ZLGWzNPpWM15oZQ9ffHU2Xuso/MnjPpZHH68XsyO2L6llDGfoLFb4vFixe+SxeMtiOMn5ipcXF5cNlS8uLi4ciMi5F6LkXIbFIqVRVFRsTKlSpUbFi+FcHk8vqy+rL1yW7yhjLYW2M94e+UfmT/WMtmQ6V7Yvqjlp7P3x1Nl7rJdUsZ9LFj9bxezI7Yy6llHGfoLFYsWD2Fi98WLF74y2I4/VjQfChQoUJCRQoiiLUNCRaWotKEkJFC0tLRooUKFCg0UKFGUkczmczmeY8xzHWpzOZzPMVkc6nMrI5lWVkea4rIrIrIrIrIVbjmVkeYrM8wrjzFZHmPOeYhcVmecrM85JzoK6h5zzFZFZErrkeY5lZFZdisuwrr5Dc/RFZdi6XYul2JSnR8iLlRci6XYul2Lpdi6XYblfHkXPsXPsXvsXvsXPsabfP3Li/8ABf8Agv8AwTlWnuXl54h4iLxT80jxEeIi9HiIlOsWKaL0XovRei5eIXIuRcu5VDaoRkqFSvF7rFkNsZegsVixYS2Fi98WLF74y2I4rfJ75SykLF5PJ/8AJ65euX1ZLqeUfXFkdsZ9LFjLqjkuqWMulkdli+uP7yht+8dT09xcKFCglzZQtRRFqJLkJFEWotRai1XstRYixFiJQVGRiWFhYWjjzFD8lr7lr7lH3KPuRiy2XcpLuUl3POST5HmPOec855hXFZFZdi6RdLsNsTkVZVlWSbE5F0uxc+xc+xd+CrqXF5eeIi9CkXIuRei5DfMqi5FyKom+QsGQy9cnlIWLFi9/+T1y9cvXL1yW7yh64vYjtjqdOUuqOUd5e+M+lkdsX1xyhtjqfT75R3l746nSLH+x4y6WR2xfVlHGW6FjHF4v/gpwoNchIoUKFpTmWlqLUWIkkLB7ENsvXJ75PJ5euXrl65euXrkt3lHd5QxlsR2WOp05PrWUd5e+Op0Mjti/mL2y0+nGf0++UN5e+Op0ix+t4z6WRxfXiyOMupCxWPqeJ5qC4yFj64sWPrjMWE9iG2S3y+rJ5euXrl65euS3yW+LI7vFkPXFkNsZbEdsdXZe+T+YvbLT+r3x1Ohix/s/WWn046m8PfLT3n/rHU6RY/W8Z9LI4vqxYsX1Ysjj9RYsJCx9cZCx9cZ+gsJ7CkXFxeXDmKXMuLi4uLivmKlS4qVK8ypcVKlT1KlSpUqV82XqVxW+UerKO7xZD1xZDF7Gn04z6WR2WOp6e+X9n6y0vq/1jqdLFi3/ADJf9ctHoWOpvD3yhvL3x1NhYrqeM+lkdsX14vZkcX1YvYjj9WMhY+uMhY+uM90LCYkUKFChQiihQoUKHrwoUKFCnMoWlpaUKcyhQtKFolzKFChQoU5lpQoyjKCXDmczmcxHM8xzOY6kanM5nM5nMVTmczmcx1I1OZ5jznmHdQjsczmczmSrQSZzOZzKS7kq8jmczmUl3KM5+IvY5nM5lJFGQW/uczzHmPMTrac6HmPN3OZzKPxK/g5nmPMeY8xp1tR5jzHm7nmJVqjmczzHmPMRrz9zzHmKyKyJt0FUqy5lWVZV3suZcy99i8nLysjIuLy8uHLzFxei9FyJS5EWXFyLkXIb8xUqVKjfIjj68KlSpITKlSpUWM/QWMXWuM+uIsP/xAApEAACAQMEAgIDAAMBAQAAAAAAAREgITEQQVFhcaEwsYGR8EDB8eHR/9oACAEBAAE/IaMF5FTn5C1ggj0IIIIGjPyIIIIGkCqH5ECBAiIkKmpAgRIlwLgR0x0qEh5j7nkeWmzLklyeRYM+ldjyJ8j4yWQ57ndoIfI6ySTyIC7EGAjflongdJ0j4R22QN411QDEgR0Nd6Ekk6Sfep9NnoqWEVOJ3FT7C+qcGehTh8DClrfFW/y6cV8bkFpAh4Zgqd1RhrCOgRLOo6tKHZZEuTsI5EckNdC0tE8ETwCEpnNbWFTj+RVJUMxu9FqzfSzVLKehTt8ipeOsCMDd50WuajPXSRBAtPdFrBAhJEEEEIgUCHBHg6CCFPpjTPk7SOen2hPHST5HgybwES+iJEiQLRkmiGiRk/LE6Xn+eKfWPVVL28Bh/gC+wVDqZBUYMxp3U4VN1OCnBmKp31MhipzmCpt8oqfp1H9qcTFTmMVS2PNR40IwN/nRa5j0NXphWiqqpTv/AJmvlTk8tYRARJ/YV+FHUdQ+IgJs5QRRI8s82S5MNzPk7DtO0gTBUNPAaFGwzwbHjpgQGk1pQIER+kSkdEkjWk0ZeYtFptUxU4OrupxQvi5IVGYxU79Coy+D0qbwwUPT1Sv6PjTEx04GKlKjx8Cow1LXNUrUKn3RU/YrJU+6qWfapb989ZVQqd1W5+Wn1j0iCCEQESCQidB1EBrIS6nzPMbgdpBa02/IE2NuBaGBaIakj02bwYUqm2+RfEw05jGletUlw9uskmcf9BJJJJi3QTpTvpMz86cRqeYx1VS8KW7GD86LXKetVKn2RUuo9GKn3FSz7nT7Y9JVEqfo/G3pmCn74tVovpFRgzFTES1jQrQgQ5Z5jYXEmRqGchyWDxIENKBEgSSN7CdOFODxTmMKV9FWArl5Gi07nYIXkLcarsdchiy0bIcwIJ1nSdRLgldBMlweJ4aY/IeOgkIiIIxHWoC5CPxECHJEiJEpEgQGg2oMgQ0xGkD2fkhoSkBExX4NECRscJk0PUH6HUn6Avip4MH5p9AwVPtP6F8QmYf0vT65iqfsULRUubwYqVJUPBhTgFRmFtpCIEC9jQiebPIYLibkjlrtxwRrGm7BLkLoWDgSa7dwqVxrEk/GkWssb1XeCRbs7kDu3GrH3Had2TOfLFsNGXu7oiTDUmC0ggsWiJEITYhDQlxAiuQvFtoIgRNfkjqEBYXDWIkBSEmr5D7lmejzPPWWWsrs8jzF2Ly5uWsD5tInliGNf4my7icSeB0HRpHJRsT4FvBTwGPllE5wRYv00IJSBAkYCEk6N2Hmq+FP93QqfXqLH5P7qGKpax06Fp7wha+kYqgqHgwpYVGNRZp2CoeGY0sQQOkdI2oIjGhAh2eTLFVMwBvIgIrT3MQWzsMTAu7sb/hC9Ct0wGSOhj8apY2BqaRwJNuZnRoRwlMaMyjHa3cVkhokuMBc5e5vITA7hsShMMWmEJpwMKXjS8aV09TMWk6RTtutNOn2RUyoeB6ODlK7CRbEIhCL8KEhAgQIDyN4ZMS2B3EdPDMxmOBdWI9dCXAuhIihjsOwU/CyBEhqMv5bDVF8kkkkkjO39k07Cn21Xs6LX1TFTh8CoyGNLC+KZOnNCoyGL4ucwp974Ewmt9iEj2JOcf5AxsPPQ/dJWL6CJtEW0mTRCeA+lqjceWIDgQ9B4YGJSZuZYzhNtFcWP2IoHgd2SSIcWydN5tIIzCnMJ0CGqxTcQhVWKGJSCEpF4iciwnORkw0ObyX3IObcYEsUCMhJWYQp8ZEuYj5EsIAeAiylF2Wc/ItfaqZfmFFnAh4HEEhO74exZoKliF/KGXoiaaM2txCULiT9ifr1ghEV+D7IHUR4OnQJJLdqUCB5CPHA2R1g8ifIlyGxkYotF7NBLqL+1aPgdB0E+CWkWqGiFoCZO9BBDkgJ/CNYkkkk+gVGYwpdQxpydOIVGYx+OYU+zX6QhieGOVzJwXHL70WwyNVEgEIWNGJHn/2YdUwMQ8t30QeQRNWcBolrAUKMHp6A20MEjrIgcCdyTLBMHYeqXbIQ5GJ2PFguTXZgpxFihrEZm0VGYsCFxCeW4xeIac7sQZZcQaOM0IIh5UyKPDdyBFgTHOxPsxNMWxu8NiNJ5lR7lTv+A0h1Wjw3pmYEGCwUtQP/AECoaVZaZxOsJvxErlTP5O6vc1P+l9UvFU+5CpYQQiEQhJCJvyIcEODqOgXPV+ZPklyNt5GhIljuQ7hVsJJJG9jEmjdTiFRizH45hT7VbR4BMnVjW+iZdrViSK9us6fchMfsBw1wJWFovoPUXB03Q3U4GOnEVGYm4jFZhWEqghiYgRu0sahEd2JCLCVokOYuZ/AqUAthJRjxenw05iBEdoQl8fHX2QtE3Sswj2oWr4Klq/v8InJpPItAY3a2Jlyg8SB6NP8AM5FQz2tWb/Ip9Yu8Cl/0BU7qDEfYpz/G2sYaQQIRCSFAt5GckafiTwGa2J8Hg9MBcRJAgQHuMad1VhTnXI7YuUjnQvR0TxIw+uB5tdpFFZaxdGgawcAlwS4F1Z4Etp4C6kSI0Lr1IERUCIIncdx2CREERcxE/WD7iyJorHcdhEVAy/YiREhEdTHX4CSSST7hpS1nT3RU/wCpFajCy7i25jWMmiJ/Z/safMhUhsm1rYWVv/QmXy7k0nX50Q5tkOXr/oW+F1ZMZUvBfy9Wfnp9gejpx8QqfrVTS/lS/uqipMhjTvpw/PwEEECIkDq1JKWj5ifLSdhySD+B4E8SDgi3HdJczyHkPurs89MDdvihoxpQJZ+SCCCBAkoWiCCEOBAgQiENIVS9EODoOgiYNkOg69cU2FBjRRxJVJi36COk2bkOTsJJPI8zyPIcgtbnZpu07jMiiyLReIuA2/cT4jIzLnHeOMIN455O9D9CgwW1yBaftKIegG8x3Z3C5jBk0OKGpGC0kkfG8SefnyewLfAp+kKnd1/tVenpvbHoquqV9FLMIqHsvAw+NmFM304L5FXxBZU7BfIN0Kn1BUMamzmCqSoZlUGq1j4mJ9msaWMYqUkKn2xUQQpCCCBAhwKaOx0fLY6zp0FAnbyJcj2jJv3Bo53g/WDbEdwatxLhlyCeAk0uw7DsLxO07juGBsTknOkl/JcTtyBAhyP+wMvwoknVhJ0++qbEzME6MfENT73xxZ07aTwYUulhUVVXyDd7rqVDPfpzD2VBUOpYVD2FhfEwPspzj/qE6GK1bJ0KRH+A35v6vT7Q9VRApEkQOg6DoEr8E6R1nUdOk4Sv+h06PmHzMUr7wIhdnmoCme8iXJH4E8USUg+HudB0DdbifMfieCKJWPAiuRaE7DsQdx3ECIj8pDRJI/t8hGFDxUdLCosqdoqfurW8xPqnO7FT9KnMYacdJjU2BhS1jBUulifZTkG/RoJ0OGrQj3BU+vpdbfwd0++PSVP8HQvjl7z+6bCwpwfIiU/hC3yhP1EEEIhEjzEh0I6zp0F/lPJnk9ZnRk5JGnPEngSVwn4evDQIgholDKHrmiqMDClZU7RU7vNa/qHX4ySUSSZeQmSSSN1bEx0Mb9gsUPRKjGoxGsv8A2cwRMUpY0NF3kYqX/Qpdb2/m+6s9Sn2P0KnK6+NvoGFON2GNSyx2aeaMqX2An6qfcFTn5qcF5MKVl6wiHAqlCQiQ02Xc7zu00cyC1IJ8dF3DsEuzOggQO/QdT5ECBKJHQToZcq/WHHSMTDswKyRBbfJwMjSRSyQCX6RCeB0nWRcCiwMi0m6ieoQuA8SfBMb8CHxPE8SAhojX5ICCFBlJSOlAjdpdxE7BcCZ8iJAiQIthlDRWFoIzMKWj84tZE5PWWk/FuLy/un1zB4pv6/oFT/F18afS+xU/qOZTAqqawnOv36fWMVT9wVP3PjDJ04hUZPkqRBCIEOBEshxrERUhDzHkJcx8wsrJdoLWemYo3yXq+ixTQurkLAn0FrBiJbSCENBUhJQQIEBpCSMIgQIcCoFHUdR0HQIwXm+qdAzgemhtAq5HS+x5suLirXJ80QKelkHI9h60hGbucFaTkLCgFjeBcA4bjxYtIQu0wibO87TsRCCTzMknVocjBU/zdCpye/pT6x6OrSpiYZbG/NoKw8lNlV9Nip3+afuExOjfThpZqqyp2+TCnJ05hUMxryH3jw3osC0L5R6gtwWtrR4Re7FpBPocmCdAwAlOBpn2PIYmbjZbEwMxoelaSSPYaz8jRliRkjdixCHQ4rG6zBANeCcBUvup9QcmI1kZTFQ9FYxUfVIIIIEOCZaG3KOs6joIBRTzE+Whum5+AkqWCeK0nZO+TiAnHiQ4esLXjfWl26HaZpuEfgnedh3HcNbxC5iBAlEoWfCIcrIyeaPsU5vKMKWt8C0nXGlr6lo6+VGaqqX3VM3UFQ8fAYGbyWiRJR2v2dxIQYs7n41o5ggIgkbrSp5jyGcKIG50lWZgikGA8iwKMV8B6sTBtXMfIeCieQyxZ0U2XsSJPApbDcFkQpLSqMDLypUvASnogmGTSSC/mLBbSWKniNEldJG/ZotcgZ1wJXQzLwYSNUPBdSfX+6lMgghEIhCL+exDg6jqOgVsbjGNp1HUdB16b6Bh3MjORGiSEklLsg250VTri6zYfIR1HwSPEkj2izdUJfsEXcJpZki8wjh/oYwh6TvO47hBpokSE6YU4zCjIY0rNO343EKh4Ma2WIGqtxWUdjes+itLg0RIWERs5IGeBkSghMwoLZQ4OgdMhoQytbrQwVmJlRtSyXLyJmkUBeSNPVlEJp2TNtqVGAl/Ohst7R0wj0h7Tdlj0wsFgLYCSWBbGyJ5yQ1pG1yotX+BSonnzZDMOBjEuTsNa5PB69PtL7+Q1/lU++PRUvD/jA2B2GjDZfbKcs7po9akxpdUBUpL+JDUi0MVNzWw+Frp1khCUfdnkGcyfJAyRz1vAfZEhYOyeDIk4QdhE7CJdZKJQ9DZ8ZgFRgx6zIoEiUSiA15+oLGQEKx7gqGtL1CMCx0x3EkYKdmkaFzbE7x4PsIzMaSsJLFiIMJQNJmARNRmXlSadcCgTj20XmhoT3uOffNhuAxJXJiWeBSS6Wx6rELItGKJS3OWhn7kvT0FHyHXC1yeD1aXj+Wavb/AHU9U70FTn5EUju3wKdTL9ISCSrjBnrU/UFT9Spbu8HqU4l0KjaqytYIIKjoOjUSm1Zckg250UcyOZGjxE6y8uQ2FjwOhnk0FSMdbJfOMwC4Jw6Vx2Y7TsGuRG1khSdx26EGCugYdjblqLJ0HQdQ+IexLQgkDPBoo2C+sT4JcDbg8SUt6I6h1iRkdWZLT8iOg+Qbi8ZcfAmmCBKJQjBQJblJpMBBKcHpPTcWqVBFt3n5VR61Wf3d1bP5mrCopivFKSnv6EggkQl6t+xU+kz16UlYVK+in1j0qcAVGxhS6eOmaMqdoqHiuJLSEQhVMS34cZukZFBhxk7vRkMWju0DWsvE4PdEqUvpwMBBBBA8SC5MEIhCqBBBCIECKRMCEQIcHQJBHg6joOrSFt0JPIJaIakeRbuJaShdIWoS7UeY1+IcBEtiT0rTTKSvY3DC5JbvO4JWhd3lpdh1DpGQbCvwCZKJ0az+b1f3+av7vNP0PgbaCI/g33QkUr22KlUvrmKpKjBjWp3ioxXkX4mIVDwzGoVGYxfAgnhmcOf6ibOWOZBCRcr0akjTJPIdF+RY1iiDwNcR5QSMgIdBMfIwpwCoZQNnSdGNcLplqtMrV9nknLyTQt5jIob3Fqxh1jI/apZ9bSCCCEKy8p1IfC0XUL2thl0ZCXlnkxMt2nzm5fYixzGp2SBeB0od9xeiPlzixmNl2TMstNHmJeQtKWUKO4hwzylkXMIk2QIOw6h2o7hecdqOwhySuRH5Ar8JNH3RU+xoqHhT9Cp9YwU7qcaTqYKWQxpdP0jF8HsFje5PxV9l65uOyE2Syet2IY2PsE2ZOmg5FlM20eZEKe0ENfDSHbYNcJSObwIEhCjGlhawpJJFhJk8iwB1ExZIuYGcNsD+zHk2CPOjdiFsIihocCSiz8zkETVeyAfOmYtBczLMWLSsPT7xazwewtnloqE9fxg9Vnovi5pNQxOx0pgvV8v7EaQiEKv2QkQQIcHUJb4cQjoOtoOsn2ad1Dbyd7/Yk2XkLhd4FBQDIh3kW7S1G6WheQjoJO7cXiJ8UdGlccRrsT5keR0M8opjnQ7TuOwTkIC5HkgQIEJEqh8UnipgFRhVYVGcxVb0pZX0Jdau2QNDnAsM9MYgIB3jIyaCfoHpuw0Ox13kSCYOfNyUBGwkmvBBTwbEFFYvoxpeItGYCHMaMEhhO6S4EsYhCUpCQBUaFeEtxWMSG0uBfR/AQ8H3DZSRdiIdaZhAm0FizCUlwle5i8oWvkjN2xrQVH1/j9749FT9OpVd9n7q0qfb/dWPnpeH9GKn3wqWl+TRa/cjDSCCBJFCOg6joJ22gSbEOJI6AydwkHtDtRHUciSHULtD5g5bHizstDs0CTlnXOsREQK5JRJJI0kKjOYqtjR5yQSSGkzIZJBw8j+UsjaPgi0OOlyOEg3cCUWFOa3IsycCSSENioIKEuDAknRseGr2FnDVsb9MyDAyGWJ2FSaIDVhEoECTjVkX+RKY7HC1ynrCsP5auPZcDy9hC1kZJMklNIqPq0upXrnpqcwKlKSwdUYeMVP1/wBqs/lVcKcAVKWflotfUGFPt05quTqqh4oQiBsh1HWOhoE1gZEvBHl6CfITyvSL1kGY1sSfPpdepKgtkdWHZdQl0+RPklyK/JLk7BuCZOZOeKMIHdpu3RQIKcBBgeqvAniIEqwSm1KWib/AY40wWzIl6EL8haB2nYSGgGvJNhsgShlbyIJWiGBshKToLWExp/N1rOvsafcHrqfU/VXr0sniqH9YqV6P3V9zpeH8r7qOrx1Dj8TN7VcnS11SwqvIqMlXcKlwrZdKliY05oVDM1XCh1mFEaGiCCBoSCSIEOCIgV+51HVpusnrGFbD4RijGgt/kJW7H3E1vJLQCk31AJC5NjxMFm06Fc07ZLkT5jVlyGoE6cnYJo84DPdh0jsJXJKIP44J+JvdHrafVi+MP2KcK5+4VP0KcHUGYLFOdNi81bp+JMKjCoxqbxU2FbxUsTFU4hUPFc4UMVLEwquaUFRhVM1KkhE+YkIDDl6ip+vSzIUCPB0o6xjrIfssI6Dq0PKbj/4P+gRYDvaJ3Tli2i6ZHIYWuM3sYqpURGBvaDYkkt3TQPJYTQjsPfOydkZJByhOM9NH/wADzDheRaB3HboOsRlbJAydqO5HcShJl2RKJJJHu8EPx6J6vZFT9ynF5MacKcFLGqwqMKipfYYVuqMhg8VRUMS4VNUMQVLCu1qxBUM+6l/1HrU+xoQRQL4gYn9OafYHrU+8+qvcX1TZ5Z6Sn3n0Kn3vpRAlx6hDg6jp0WysTg6Zt2Ooh2FheDzkXuyPLPMbkwLyMHYJKuOR0l+37HVO3RSTojrjcILXuFydMiXMj4uxFbMXadw4GIGRc53HcdgiAkIEkjXmGkk6MKh7VFn8qwM9LOXrTgpZk6XgWP8ABMoY9VTYmfNOQ9Klf3iqFT7K+qv5O6Wjyj1lT730q/r6p9meqpb9/wBBU+k+qbfKqR7HJVPuqlof0eho1q+wKm5U5eQkQQiHA48BrY6WmmHQMCLzZLkd0hakHaiOSFyga4zxROt7tAlu0keGeQixLM7dJ1DoDMKd/gYsZz8jfgcthD2PAbyCBK2iOhAsKDe0aQXGhHkiQFQJggQIDDIwJRKJQ9hrCSSSTYIY9JNkVJ7PzTmMFSJ1Sp9lfVWP+L0+oYPAqP4Oqv6eqfanpU+iVS8/2xT7gt8anD7/AFV/N1T64v6qEz1HVhpeKVgzGlsqjGpAVGImsDSFkQjqOkdISiz4GQUwIpDt8elb+RFpCQgRIDSB1HSdJ0nA03VrEdEggQ0MpGyHJ5M8zyO0tk+SfJ3HYKjVxKGSC0GJLtck8dVEWGFlgmE3B4kCVFkidx2nYJcb3Eq3OUdx2DTkkEySdfVUsw/xen0zF4p9T5Ppgqvql58mn2Z66pl8cjHV6YUFRgzBq9Pu0shh8Sw0qjdThUyeacF5+Ng8OJu8g1LLUMRsBOVoxsqjClm0QukT8J0kgNelzGnNC0Y9D4B3F6V6/JGkIhCpIVNIgdWifAKW9zoOg8p5jsZYjzG3Mv2bTPaOQ3lHmeaPx0aY3QsHe9An5dF4pA9yNywljyinO0TA/wAYO86x3I7CVyfmAlUP+oUaTrAhU2eVJ7o9arlTl5qXhtE0WI/7ek9Q9TSdfWFRkMKqoaxhSssXxGVP2fCi/o0kh2RqHtWHBBLW2GXwLZ4G87CJEPDMXwEix4xaLkv2XCEJGObBcYzpxMRmdLKvYhbRYCbfRVIWeOFpgxQtcRrPzpJJJAzFJHBuRbExCREld8SJLX3VS8Cez7I0lHKx2QL+oSsPW+QiaTg6kdCMbZCXZEmV1yiwhlvc853MSrQWYfbRdo7Z2jtjuzNzvo+JP0Rx/oS/8xuQvSaz1ARA6rqOyXZBAwFuF8gXLE/Ma1NQ2k8x1P8AQu82b/oaSm7s7tZugWI90RMnYjuR2EobX4AmtMCAleIn8BOk6P6ipGFO4VGFVZU41cqXv5/AzHqaNGQNG0i8ogJCkuTTWBg2xfAR4jbvJVhJYAj5QxRWY8INjN04GAUSiUIuLkRfZK0DCuNLJxVYXXoHj1RgYPzqx9hZEik7khwF1YItgkO2VwSX0CVK0ipnSmBzDCcqdPVCrqy4EMkJlweBvd96NpK41z86LKxwJebGb4HRsLeBNNJowP4mrH+t6Wu8r7qd+j/elGf+r6wwcpexYREw8fenYeRaey1hEEIVXdshcHUdaOlGybkLB16wdZ6Y8o2bvQIciB7sGbPBCmepq4w5m6BLktCeI6QzNIR0vsE+R5BXLCoQWHk52lHk7iI6kJCUSSNZeRySSSR7un2BfBtQ2ZBatiVzHgipjq1Ik2quXm7FqhblrMnVWBkUEPU2sGESUWbSbh5bL8thcXzRgWL86skqSJ6ZflUJbKZHtNxTm3HRuS4OBbYVdMS7m8ITWk6OWfA0TIP0B7VldJXkdw9ggUMkQ3yhRv0MXO7nSzrLC07jvHBK9mBVs4Zb/ZfsnfyPZ/dS/n+3XsJm/h5ZoMydNFHnRJcvcWEJeom37ItNzpxIhJbHJFluKYF0Z3d/yOsSGNwpFXQ0ak7/AGJTC5Y7eELR07Pvatkj2+UY0+1VkFSLVIqbChmQghECHAq1hLwdB1nSdIpsaUeyHL0HYxd2S5aVf8ekkO4l0PxPFE8CaZfA2LsTEBoRrAjPAngRVliF3jJDpOgnwT4Gxgt4PA8TwIDREYtJDQiQEirkCJEiIgTB2HcQ0NaJokkkZ6mskjWLk/NOQ9alVP2Kl6EEqEhAnizObljVi1VyHYhwNDxW54oLKVyLLXEaSxYi2uIElpNdKxGPSEc4EsSSSRs/uammf9Trhuv0iORITqQWR5JOy8DwbdcEQWiDxCVN/RygsLbyIJb7jy8ChTbLjImXYfNzGjmrugWpbkWnApPyEDQPSbXWl4LVWw1DuT0aMcIXQMu5aN4H0K6hdJIlJoSpN9JT30o1pxpOLRg0Bi4jSfYuCwzeRJLYnuJEj0zWhUZaNpFyPYJyWEORNMS1WaphXidiodEZHp4SISgQlRYwFGLMXIRCEUogQIEOBECiPBA6iIiFxHXoQ0MonkeR5jT5JMOUdhHPS7CBPydJ0i4dM+4QSxLmNoyF2HQyezuJUdh3i5DsGm8WckCuCBHhECUMnRrGDEWxelDu/hip/v8ANWF/xOtyA8vRnKSiUXzo2gSc6qjOGhiuiESRI8eGjtbqB+fbTcWznXFLtfsQsPYIzg+xY8ein8Cl/wBQlO2EKeNLW2c4FElNKL5IeOSJYqicW0A6ILK7EEomj3dc1iQ8L5JbhFyThIsodQIab3F3YRpEj4pPTNjeyQ01uxIQeoSFhhkCULP+AAWssQlhSSxMKhbt2GAu13Hancaom7wkCXLDEsTLGjtz0QhaauLnInPwLHpMbtFRIMudo0QRobPkYy3TOelqlCNhH8okjqOgXGdAyN2gR4OoidzFmhyPKd0St4zrJp3QI5LQaGYyhPiqR1pfwHslzPKR/wDI/wCAR7foKR8/ZDrlMLUnsOodA6R3I6Blmx7EJ9krkkdfiZclSvSAtHM7IVq8N+0em1g9i2kJWLk0fdpAkQybxhLCobXQtMSniGDAIUXEm5sbKD5nIWjXQ1DG0gN0thWQuJcyI1fzE/01USORGkknIiGQhjS9sLYS0WcIdBxYZuImUA1YSQiwgSOQ8DW4BNawPBQXLgcrurostWYmS5iTQzCSLeBBpiUBA0JY+4iExZiJLU2esNwJMGQLIS/kycCZBE6ZvA0+CnB/VxaKfv1+jrGvpkIhcHUjqEixYHSOodI62m4Kw/WkfeeX9lvP7C+wJ7mcPA/s9SZcseS3v/qLZD2x0/0dH9aElg1Nj8dDpHSLyTArCmD+LP5M7B3ixnEAnD+SP+QdP6FtzyRtK526boDVzExQYCftOkdYfMK3biUSiUSP7CJLRtLGklpghEEGDStXV2UnUx/Aud1rgBCRYiCGjHuc6LKYn5yQpCGkUl2HgbAsLHwbXFpLTRZy1hEHk0ZqJ1pHSqGM2Ii1hduNLRUyBD3BQdxrJyXUnczYRM9Ia03MiyZZDzgeErlT8YQksfMCUC1odAYKuzNNolzo2SE9ObNvmdEscrNbsLvbRLTZb4m7jYNp/vELQeKk/k6q9N9U+6PWU43b6q9lfVLw7sesqfTdLMCEdA+AdSFYBcB0zraaxgj4PIeY/wCwQC7cxPzO7rg4RtGdAjmj8T8dInxH8Xp+wdwS3DOZ5CPISvZk7QnWuwcWdMl5O4gQGlazIqOKJDQSSSSNYfOk65cCxQyKJJi/hkCGcKwQtD0RKJyTViFZaSmzMOkmfJHxTIqQM2oGp4WNuDumLA5LTUhwj4wjxyL3WVxriVMSFlbF/UOXgG6VWuX55IxEdwEkXwEsCU3CkjRokxMsRGBnY2EQWM+yfjp6zPV0+7+qv4OlT7kX9aoR/N1U/wDXil4Fip9pS8GOn7YqMGYasqM1cVDEJC0gVWEiBDg6h8RwjqOnXnCswJpdnVrUS0ua/mdxyjmD02SQ1zNyxLmRozwJ4kXNUlqQi2xPglwOGwxqEQJNoVmCJEhpQ03cdx3HYTlyUNrklEjdh/YsyEWLEyk9QhkEQJ7B0n4RC+Kf8H+okqByRpZJOBY8QqfEMEi0+zDuEE94hEvPq6Zbk4egkJZTkelaKWFp7I9fTH876q9jVXpfHz3/AMZfwd05PB61PoCo9QWynF4FRkrKoeNCoe6pOuqrMJSdTD5PfSCCNWCNC+bEXAkQiBA6BKIHQdR1HUS1hsH3keWLsOwZaR7GSKx3IH4E8VoJsAiLnneJczzk7oCXkXsMauRd53ifbpnXOodYYvbGcCHJKJWmfhFT6dL2dXP5OhfEHpGKp9pU+dIksu1U/wBP3T6x6VP1io9IxVP1ioxqMqjB6FRgpPFaVWQx04VcTGnNCpm9XCnKli+DHq8GD8kawZRahJaW1aJEIhwdR1jEj1o6B0tIva2GnxsdejLydzFb10Eqw2SKQdjTz3qXRdskcQQLE1tPKMxDxA6dFdD96FiaLw0nf0yWokUlifWc/wCg6P0PN+hEJz9jlGG0boi455UfZ0zpHWOwat0IdzP2E06VKdvpT6Rgpz4UKj1DCl/QVGcwpYVGGlUZ0niq/grFU4V6pxCodbxpyVLqWZNXo8GD8056h9lJVTq72x674x9pfVNvmifrfG2Lf+rkEEIhwRX9MigwdSOkdXSOOMmV0N2S3aEwvJ/Znf8Asf8AaIv/AOpCrMgxK2k1wO6fxR+OTo/ojiI56K/FsTxR0Rcb96ZOcIR3tI5ilCdGZ/VaR5yfkcs7NJ1zpkjciZO47iHJKGhQSiSR7MYTJJ0e2lhVZVWIsU4GKqqhmAVDMnxmaFQ6zLU9GYvzTmqn1DDRfFUqPcHqKX/b+qvQfVPtT1Pjl732pxefvFT6Wl4Z6lOQ4U+3WqPiWqjWEQQpEODpHWOgJqwj4Ok6zo0Lgu8hyxq9DOjMbz0xas3KDknSD8Ceg3HCG4aDsHZJ8hNuubAzJ8EuDw0WNJmRXKZAgOJkkokbQ8SSSdWb+IbG7oVDM1LPu1ejWMKUuMVSVMVWXnp9gLHjU+2+qv5eqXgyp9791JH5fulyL4oPHlHrqsVLul5PK+zH4mxeTGneKjCpuKjNpVDUmFOBlVyCCw15ZLkBIggLgR0JEmmGpDR8ifJPkfMPvchj5COZAa3iQek3xJ4lxWFBQ5zAg7gT8aXizqYySbtodx3k+5ByQMi5NLsJQudxUdJJ0WfwC+My89PuD1qXs9/Spf5cU+tV7P7peHVvVfQviD3AsK4Sl7HkVOXnpSYdPkYGNOXzTtMKZuL4yqjB1XmKp6TwiKN2HMyMAZGxAogWuQtIElhbERqTQalhFFh4aQRSHqzEEIhEIRCK/k6jpR0hi4I8sHXRPOiH4iPLPIdkbPA1eSlkiOIh8rwdYPwJ4oniGPbMu9b+8dgaVNWM64I8iHI62eT9Dgvb/QWtN0zqCF8dI6x3IhyfoRNc0vDdvH/3T6lXf39MVPpvqmJvYs8VOICpwflS0Lxipy8lSwpyeaXwY0MWQqMajKowdXcKpfTSRHRpA4waYC0XPsWrzr6g0OCFDXGxRLg40h9jw1AmehjaJQem5fIRFxc4yIQhxhzg9NjTbSEElGanAxfnRoi/ENMD76c562rSOizzsQk6tWjOkrRCXHSNCSYmj79RekQQiEQuBVi2EOCHB0jqHWJlu/WLrIsItxx9nWTiahEqPA/q9M1cJF7SdVaxn+jx5wWRGw9lD/jGw/WKKu2O5S/oSVhmdUQva5F/1imQeNCFE7wZCId0LSyH/JEzb9Dyfo7X+h9KYTabrk2w6pZmBuu7OkdQT9hK5N4KIpk/KiS/yGFOflT9g9qcmKh7VZvFQ1qiBUvWxpIRIOzWl5C7V0JEY1Y2IpGDmLEkPCPw4q3Q9Sb6WIv5sSMZIZCVeiCgmncg5l1HXDLBK+JRbkRwTqWD86OySC8NdlrDXtTnPW0mmayOkqAiIPH5imtwlgkj3uwp4NuhxfkHhs4ZbFq8+RQ0Qy/AOiPo0lC1lCCPkrV0aUZTcfsOvUIXyiU/4uOzkU5EM+bs7lc9G0txru0IOBifboW1/Ojr849XTh/yxIiOy9UvOqcJNi9bgt/EQIIEDoQia9f7HQdI6Z1RzLCKsdcbAkYHQJWcvQOxkf8A0Lk+8sv7hhHKH93qgd4vhyDpXUOkNckLbBBPATwRJPZYJad3zuE+Ym56b/gHQ9OOtN3aTrE+wvbnKO4hySuR1GlJJJJkFS9WpcwJWHF0bWYQtKRasVJiJtyQWjUxyoE/MipQVDWUL4FrSY6TYIAtiVLQ1SI7x4FqmGoSBb/AtO+oznrau+qwwSJWuRkzyzv4LWbI52kjm8XJz4BLvAnL2C0Z7Whn4h6KiZaPpD1mYJKy2RlzyyYDa/6rplk8q7SIQzaoLRLYRBxQbE9BFrlcZPeyReiIyNmFnbQUEWeNxCacpkpCJOVtxsbk9JTIeHjNOC7EpbbIiRkJKuHnihQjcrVF5PoQRjItrAeHnlDAjwgiIRQvSoRSwpW2GmkfjUl6JuSkQaPIqMH4PQq6owL9WiCwbBatFk7RDGpdmCYoIQqwjg6jpHWOsRt2O5YhwEfDThaKPI8pLmT5iNNipeBG58kUA2U9J69LqJ8FxbT46iRREfIIwGUB7CIO47iBASJonV67DG9yOyHrBsdWwRCGhwYwU5TF41kN86KZGErCXmjeIEi0kke7+rierGWKuQE9eIaYaL4rvl6K6eGB2+6v4nJ3Y50s74ZEIgLVksjOXuHvgL2iFLCJEpLvyE29dMQI/GY0+eGMeWmPzue4PVVL8kTFq8C39mJw8WO5NbVEXhBMvKX7Hl3KESEsIgsbyiNhcLjIi1/u60gglodjFuw1c4jLRz4wybuHkRJKtrio9IWwQNzcEuR+xUXcMXfkmfAKjBmOikbY20TExbGewNEiFYT4WizkD2iS6g1r4FJoJcMwSjgXwWQqcahmTI0ggaISQQIEBpCIgdGmihAgeksIZwESLseRPkS5fBIS3Sa7i0pPQODA8MEy0BqMuQ+MDEshT3EVszqZ5hcCFRpdp3nYI/MLnO07TsR2I8NEgQJJGyL8glRaeDCn9BvuppZ/1NKMt7giShUzCL//AANJ5I0WISHa889FShy8/smZC1gaJDQkSEoEwy3FlsS+yIQ5EaJ2yjjaXAmGKL/MvqjJ1OxkTYhXoRDjRfGCiBUegYhe4bkizpFrYxq2kyGGkbXJFFkOlC4h9zIsSoBjQrQxpNoRmqi3i4OxDILCaYKk9KpyGOlrD1N3z1A4yTmSpYqWBk9Y0xGlCIIIMBLaTIhEEEEUEDqOkdQkONzrOk6DoOoR+BrDcsswgeQU1k9yXM7wlbtLeG7iC0GOA7URyQ02a/60p4izgdb96d4OP+w7o0AtEB8U8X+hcnIRMM6GZ8/rQXuZf0I1nRNGQmYClSORAIYOgdE6B3Ia7/4yHJYkkk/an7FR/R0KnOowSlkooT9QtWkjBUPB2IyiEo0Uh8jYKjL4MFSwiI0Ug1kQLTIxaM1Sk86N9DsWRptpvGhUteYCeFxwFibZlrBdykjAtJZeh6k3GtuV+FMAfuaMc4EIMKhjGVrKMRkpL2ReGuJdSaHG/UTjHelbVvca1UVPqKl4PvfdP2qrf/M1Y/L+6fqi0gggS71EI6kdR0h9RsQVkdA6RcmI2idEbBI2M5P7LOf2P+wO99pKZKxLmJO87B3y/d1izYXf/gjgPAd2iRpMxBPDQzqo/sgxBRDB/wChcwaNwmEgjOyJ6caP/gdH6C4S/QXGGec79VLl9HfpOodIzrYWWUdxEgSiARGg0JbH2MCRORil4QVDxU2UsGYCqsEWx+RScIyagbYGvMjchCIVVgLS6HR3iZsFcY0MUohOQ1uiRTYdJkpsmSp0xiQi4vGnDZpiS4krA0+wlpG8WpTnPW0zX7uxOw9OwgyMrSUYZXHtDWkKu6q+tTkEpnt/q9S9Ol1ilTezx9KoLCpXo6wQWN7HqtYIMXyRpGuHkpgfAWKIE9dFhUFIR0HQjqRAEXWOhokXsQcHWdOl5tBHlm9By5DNwZuDORxNTr7pckfgTwR0IaGBkwFp92TujpQbzHEIcM8w0xgrpe+tOPSFAsxPZCKFpC0b2DVEIRJUuY0MkuCElLEoUD+AsnbEQ6NSxYngkmyQSY7bamjTktLDSgx+CTcnBlBCLGRyLeCnJYCJCHhnRHT71TT31S74pzeD1f8AABbN4PVpf+nFWdK9/wCwvihZ54n69PqBU/Y/unA5Qw+KYPJjShVGUxpbCowrKoeBCCNcxaQQhFMxqvh2I4YjDTPknyOgbGTsO0jV1iSJ4a6O2wkLB1EuDxH1ZxdKBEdCZ3ned4+QTUiYhyStBpSJt5EoOBtMwK4rQawg4DvQR5aXUtyJqAsCxwJCQkqCGaesTT8639DVPrHqU41ZblJ61Se++vjbP/FxUv8Aqpe7FhPSnE7Co2FtpuPD42GFPu05jCl5ioxqMqjCo9oqM5hWFTiYUtBhrBGlIghEIhDkxCBA6B8RCSJ1HUdZ0iXQjoQ5Z2aU+SXI7p3dINI5iVRI6qrsVtmiOSPxPwJ4onaCfFDnsOTVs3o+JHvG2Se5PKFaHnNseToZ1s8ulbnAoMoO8a8jp6LFvZPgT1gdc6p0zqjV7YSiSdHX5h6+n2H9VLHa6n+Lur6yl02MHin+zsVHrF7uqX/axYpufkqmFPviozGFLV4qMlVhUY11UZzCp4CpzQvjMxUM3pZvS6uBhTkMWkEa2FPsi1gg/wBRUMjoIRCIQuBsYHsdSOkdQ6BgodAbttFpTQsIG88p3vSMyZCMjwJAxO2d4yhNzjc/siL/AMHW/R0yQhf/AGM86DLiPZCISFgocTqfvU3ukqTXak7Gsil/8iBTuuD/AOYEK3/R5f0WJnRZBa32LkOudM6ozDie4smODqHcR5Icicm7GFmiTF+XT7lT2gqPvMKi+IzeL4qyvjq+gqcQqUuhVCodVizUwpwrBLKcRYp9kVP+gqb3SemehTif21TT4n1S375gdafSqL/TmmNbMoFT6D6ogX0iEEI6DqFidp1HQOgdMRgXBiLA9Jus82j/ADkf/TTTCaC3ZjtHaO3orwKH1SOAjmOwS0ayWbaA6Glh+ZH0/uncPOMpd2gdI836Ie53zuO7UBTLi5DtR2o6gvcMtJoqj7jGlmRipYVQqWFQxfGMTCnExpxMadvkWP8AACOreuehT7j6q9T9U+8PXfGz2vtUSpzf7anP5X2L4jWeYWeOlrQVGTwY6Wj84sUM3PsVGC804IUxIghEIRGBVwdR1I60PhCmwTjq0XQK6LyEeXpPILkHEXYGJDUiZVyZCKJA7iOhAgQJRI2FSwqHWN1OBjTgYqnAwpzXkXxFnoUszO1PrnoU+26v7+quX9VLqLtV9mn1X0L4mSU/q4qVu9UvQPSpxFUW+IwU+iKhmFP3f4NZC+Ia6n7KjENvesNIkTGQFQ6XJImJnYIqyXcsiDcI05CfAbLSwSOgnwS4H0IpseBEakBYqNb7TtH9yDk7DtO07DmCIyREhDklH7gTWk6JGqZ0cUvB9ip4r48SO+oGCp9p90vDGlvn7p/s6q+xT/I5FTd/LFRxUvPwhUemY6fWFQ8GFP2GFM3CoekzIXwzM3mnOoxMX50bv2J5MTgPQVDFqmSU32MWaWLcjWBkCNEIgKFwdR1HQdBxhQYOo6jpOksBRaXmOxkOWWoieY8h5Ca3F2Q7J2juHbIws3Wj0dFhdivkOkPhBPBE8BO1kDW2UD2T0NbX3bU9N2tGkSiuw2bwt3H/AADrZ0/oKnN0JpHfqt2kucjoHQOmdUcbswKLnYhyT3olcl/VL0J6sDbshHeNopocqfb+lUwpXrVQelTjCowZgp+8wp3Co2GFDq7Kmfxhk08GJ1Am4+2IQtux0LFDLiM6ztnIsAzKl6W4HaTcUkZ9kW1yBeiJzQxVRU5oVLJUp+giSBmw+NGxDuU4F60MSaHsMKcTtVf+UjSEQiK0YHQjpFpMshS3P2dYfEG8WdUaegOtgIzdseY8woOT6OxkeREEpKR7DlfakfDSDtD9XXFDnpYPTLAt4/oX/hECgE4STKkfEYYCh0Gde1YEks1o7JfzIpzYnz0UeR0MUF8CAr0SkgQnOwg9ck2nQIbsISuJCHJK50z8hrEk6/sBUbKbq4BE6vGlUNZUzGEkPRAbZSLGk0TUQ8ib7ijAgC5M6MQqAQ/gqNocOR2Qk3ES4FhBLvEoQyxENw5IYVFrt6kbhEIDtrJeh3OxKLkW4kmSIHIh7bGPi0i87GZNmx06JQoMqLyQELYY14J0ZqU6Yx8STsPZgxhCdfbU5JkZXJ6zpiElCUz3X2YlkgDSIekf5FgXC/ejEltwtloRYDYQyqXvfTVoUkmikJH9rkdkJPiC0+oL4o+l91E/YNfmH7RSScMCEm4pKKzJ0HUdKOocm2wuEkCUup1NNGdiAtX7mQ5G6BK3ZPkd0752SRSHwvhA80fgeAcF0NSRihgimlwk0hC7CINeGJVsxR4Z2v8AWgnELFTJoJnkLmCWTmJQhNEqMRSg3kRhqg9hpmpiQQQMDVhCcaBFhlIxykhYSKnJCHgbi7IVkTnGhQIsBUkRgJlnEBNiERKu4yJ5YxI4MTIeGLjd9J6eB7GyEcSForKPUPVp4V0IU1iwXMRqXMX+Aio2BLxmk17NjInCN3OyEjeH+4dGsh3C9irYwmdh0Gf53IxrLC/IpxuUMuka4ThE+7D8Sp/l6N1L0OUxuQ+GEXNu8j3hJYiFykxGWee0nTFTfrp0UEtkEIMNEiR4evsFijKVwQxIyKSNeXjdMWCJOj/oRaeRLDINPDHbk4PWMVLCnYmjJ5FqxzOxjRhTgcPkCUQiEKpCCB0HUdBGYqXhy1IkCBERAgd2lEiIhkLQ3YUz7ID2Z9xJJJI1N6EsJJaZUxOhUz0mhI5NGiLdGpEtHEssVbaMZREDUmwDWiJEktUsycyEcSh/0Hp0qzwxpORglCzoQOIcp5NxS97tMkYYUkMXrn7hKEZRlaR4oeBKCQ+hgl4AWpBTTFx4jZNifoVRaHbjLa0ilTedEnYC1e2Kw2HvxnMkDo23D05U+y0dJm+BhI9pHt0bxCEJ6GgLy2S7eoEKWyGrWORDFxbdyEubmJIsb1IdJv0aPwkCkUveI4CJCHbslKAJyOdpwUxS0BXyyCjJ5FrNGdGsKZYy0Gh/CY11V8xL4jZnARtkT2/RmJZJkZTJjnrvFU2BAiRICoFw0IENFsTGmR5nkdpZyT5OzTdonISOark4YOk6tUm3AuAmJBvwJ+DKgXUiR1jfIaXedp2CZPQSxcSQdg15FZTuOw7juHBnQCHJ2ECAr8Qy/GSiUSSP6xNUr0KGx+GPKTyp/h81Tp148o9JT/B6MsYbVyzAv6CIYDZm5k3QEOsPY7/QqctN24iB7jfK+BJ1gInw2ocwKh330UZ9i+cbhEm+l+Y3Q4e8LYhTQQXwISF4LBePcS0cyx9KwSgmISS0MSyK0hSSnNi0RkWJGQLYlbgRAnWOrulYZpNodMyljcWaRzJPaTp51QKnFeTCnExpxMKiwKriBXxBawRqJEEEIaRgQIHQNBIIEToOkfEIkR4OjQ6BlMdjpOk69Jx4P2Bugk40vOKOJh4PJkeWR5Z5i9ewu7JczsnfFySWZhrj5rQQJiHjc9BHM/E/En/ENDY6EdA6+luupWzdscm3i7PGlS0o4E2eWSIouhnmOti5QLiaeNLuO3TNOcN9C5zoHUO9HcOlnlhDklckolD7OImiSSSRLjkIkoQ1KINPQDlFG8xhLGEWik7vRJqxJDMWjV5RDX4UvcWipsKJWwQQkM2FDqoTNIksJDaYEvY3xFouSLX2hU5eWiHNsKcNbwGHbCdCSdcKjAk2eWeNJ1YU5qnKSLwGEeqSVVZnpaDzTPA1/KhDy3JmZej0ANLtIiGBOVJlMVKpWEJcOn0Vq7Ojw6v6Kp56P9Ku9TXfKiBxF3+9YRCIy8ChQ4Oo6EdIiEcnTpusZwdJt24bNqO09AeTPMT5EuRiHuzvncO0MiopbtCk7o80fgfiL94ngXNWzjhRCfImt55SPIltMXE9BB3ncJnJDvpO8fMhjXKdY6h3it4oXIStZUhNUmAlR7gqGLOk9OluNdN4kutkkLLa2ItnKxMdx83geZwolGrGnEVoR1b2Q27IIybtrWKGhCLWR8je4C4DghAXG4osLYG6TSEtBSy6m52GhilAGENKmso4FcsZaJFI8sFCVa5JERxhLcIQkvSJULAmUZYVthtJvDJeOzMhjShucSVW/I+cYQRJuLc2EdjRpEYhEjuNpj4HtMPVrhuCPw2uSQGn9Din1zF40Ymh73/b0+8PWUISlkbW0i0ngiNeG7aNPk0qcTCHebHvR9r48b9tNrmGkIhEIRRElBAgMYfECSJtjo0OgewFwHWdZ1kTUcSPLIrcmY7GecnzOzRYKA8x9yUvyKnBpMjuRhmBfqAhIRQhxzmQtMMLoeCPsL4z00hSlbEGELTIVCOIMbKx1CFJpZmxAyKb0QQhPAyLOrwSORLvSVS0lhYFphTFgVgRBm5nkZZBu0yDkeZikg0wtiD8i4pTyPT5HIs9c5IDM92bHcuZFhPtqJj3RSSVoI/seVPoZhQRNb4Lp9rRofstZOxoQGXtqfZ/WiyJblwBhj0+REjwKvFU4RlONh5Z1rMVo8GMGqSyzldBF4z/ANUezPUjre4lfJ6IGA6yEmO8hzD40a38SmQp3SapeWNrmxJSWYmOash6GXI9hjbbuSDL4GkEtPuVaFd1SQmTQMafW1QB5AcZ7MgComzAgtRhQbhDBoTU5uLbhtGg0KR7O0mCoelUMaEHYPcrQxIE7EmhDQgJEQRIncQFSJolEosSO4RJOjGkEkhqSBJItwielkTJOmMM1wM3QhFCtn5EpDGEq7SCxkSC0jSNHp6A04/wJJKjF5FT6jIUCUKBhLRkBy4ubHiWhjTjRE0MhbhFPmn2H9aQgIUSORa4CnNhk4eBUwkXhrVZ8q+xY0mSFZCXkO8ZdhIRUe3IeAFa4DgW+SHRZGWieWXCwoLEX7tpME5x2Nt4xLgtxWQ6a2wOaF2LNnbThAPxFxYMH5dP3iu/GqQTCFmTJwkenkG7acYGGmQwpw+NTnEJINothGFQibYs62HHEJ1xoZC0TcIvYl/YHShTDWxiWthVrIiJi3ciZLsVDMhzQ7Jbu5AgQEUiSOrQgdAuRLGmJEgJFpeZ5s8jMTcnZodpHIbMjtI1LF0k9Gi6B8JMY6NgGcDOCXB4j7BpzaC2CQ9LB4niyHIS8Ms4ZwzqdETDCYETs1X94QjuO47jvEtk2Q7xr0B8Y7RG/oXWOkdYyTcOinY7kQ5IckORWXdkolF3HqifOSW1hPyvsVMT0UntRzWzAVFQv74hW4EbRpCQjzSSPACtE5sJ3p9jpjv2M3yEScxlFQOzDjyk/CI5C0zGFP06nusDWA28RIWrJuF2Bt0wqmpFtDgQcgsCexYBKVlsEuTXAttMJU4IkQwslRnqhi52nEKnIXxGb0syI1jQl2QQQQYmJCIRCIEsIoIRCE0sgkkZCqJAhwdBAVBEIgdR1EeBUsNyPB0HQdJ1Di2HQdA6R1joJNmjN+idAy0tjHtiDC0/KJfIj+Uk5O5nYyIWbhe/LHmG3M7J2RrvfKOVO6LThIP44oCEcBvO4RSSk8kfgSVzCLpAaNr0DSXBMhM3D4wGreS5kuZ5BjdK0nnIchcTPOM0rQd2g7x0vlpi5BtGRNNzsJeYatKBEJRIoPaiT6tEiC4wILQWrHANxiFrsq5aQQRQ8oMTEgFpIhlOUImYvgVrvXHkJ6XVyPzdOEaJLIslhu5oFvKJyUYqiHMyA0bCU1bSqGLJJ3aSMypw1StXsY0SNIi4xOcJ6W6IkRnMfxj2fkft0tDBi8U+tUxqglT9KrlsqXT5PB6pGsFn5BEIgQhpwIg6DpR1o6Bf7i4DrOo6jrGEudW8jzN0JVlj5J2NRWt8SLzPwJLSD9CepPU6EOKIJsihsdOulpYR0ft6GXMctx5iPDOkTcnRTIGnCKydQgu4tlOJn56PBG4PTbIZOJbCEKlhzZIxu+5gOuoTUgpwMQz0Ona+hW1YhrByxEmyIKhkkew32Qk1cjJEZZsv9RTGy5aVtMvkmDQ7M2MJAaJk2FZBYDoBK4y0TaNjsJiCuPxodYhdWAqfYqVQWE/Kn1zBU+8qy/1f40e4qfRMFTNypesejT6jFTipzKxTl5Kfu+OMlJiUMVG3VBBCEIIRDg6CQNG2nUdB0DgEtTiJH5ataYpRly0vTGrWUQUCG4FbEKYQYklyd2MydOA5LYiMXN/SOTYLPViKItEQlEhaWrCKVu7iufYaTcPUt6DJJzpPgJCGLMXbAWevod93yX00Khl/5urrFPs6mmX8TURUv+t9U+oY07v5mn1D0FPvhE6se2n2DChm7y/jOSlhTYqc1SdTJCowZjUWtXxJXAqS6HSsWiGq1EhhqEBkmmEgjogNoZSSiSdHsb9baGBhrOiGA0JaMWwkHKTFoXCUF8CSGxKFQ4daYYCra5eYqgqfpUvB97pm2XaFS/cpaPt/dP1xU3f1xT9Gkz69Pq/H2PDqGdVu8unF5qvIROuNJ6FRmhUOrmhUZDBU5C00QQQhpCqWQIECA0FSOogQ0GSSSJAjpepeZLklyN+dKXJ2HYdgjEEUfbLOltRcBIcJjoOvTdI3AaB1EuDqOoci25AxpJ8EuCfA+4rchYJcE+BuE3BC22J8E+CfBMS5D5YJcaHkPFjtyGwtoeY8hHhi9u6PFkOGebULWn8uJiS8JFyHZrgxAO47Rcp2ncSS86luodyF5919icsnYdx2aCT8YlayN+k9SialyfICx/LpxXmpvFQ0UuGhUMFQ6maFRkMVVi+QZulmdL/wiYVmGsaktY0y8tYIIFUBEEEEH+hBBBAz3iKDw9JBBBB6EghECHBCIRQ4Oo6joGkCs6DqOo6R1iU7SmLB0nWdZ0DLIHWdZ0HUbHuizg69LznmIX0iPLPMS5EuQzxB0LjvnYLmWjhL6BHMjkhLkXQipDseHR6NI0BIC1W8g+9ty3Y8GQ4ZEW0vIvfS7TsOwU07juO47hBRB3HcdwiDmEOSHJAlD2DUOpmhUekYBUbRU4VcP8KGJj/jobBfJoqV9Ks6T1j16cPDUvRp9A9arEqc6fH/AFer0aVvjMXil02DMOsa9IgggaQliCEQuCEJgQNSOoRCUiR0FQI0okRECCJAgRLuh5j7s7J3BNyLkO3Rdgk1cjYPJE9CeKHksjBTiFTj8lxqYmFXCrjVwpzQqXBfHMIqfSpdS9I9an6wqfRU+tUHtPqrLy04/wCri+ONgqZpMHXmqGrCWp2eRUMWXxWFYVDqZCoyGFOIVOBjTiYU4mFXH/Coqcxf5iVsx8lPqHrUrPSFT6qp9ISPHTN1t/Qqfv1SVP0PqqYKl5+FT6hiqioZhTl5mFDMnkVJUY1hUOpkKjOYqlkRPweB4ngLqPFFCQiR0WhKVMQuBUETuO4gLFECBAhpNYkmioqE6XuhUt2fIn4+Zi/NOcxUva5+MXrHqqfuVNPkVWVPvVTGn6lT6xip9AVDwY05UzFuKjZWqpFRgPUKjOYC1YlLkEEEENCRAgRICIRBE6tLoFQJghpQI6KYqjVumfJLklyNE/JMfKdhHMalmtYWnJnS85J6NPSdBIdB0nSdehfSTxOknicCJgRNk6SeJImNyyOxAnuQ+EniTJbE8CeJ0nQSNjAmG+J0aoXuOBdhb5ateJDx5S3TOO9Cb7eljWbxdDyHkPIQLNgrMHiyHDOpkezbNzqdBKUCIjs0e0nwyJnykdp2nSO5CzX2Ii+xDkgSiUOSZJJI1mNZrOj3qn1Wj3XyCqjCuqjMYUMzVYhVFUwqqnIVOQqWriRGr0Ij4qz8aQQQRoFQy5+VODFqTBU+w9Y19zWNLW9HrU+vQjRbvIjWELbxiEIgRIivzkeDoOo6Be0TB1HQdR1mwbI6x8NGCTCICQ8zzLVSMW47B2NdkMM7OqUcibcJczy1J0C4NJ0aB2LaJcZ1nSQcCG1E0mHewLoyHDIdnQxsQkWhdp3iSuY7DsO4TS4G6plU5ip2VHvUayrephUOoxVVlS6sz7KcxjpyCxT9r429cweKfWdX3OiT6YqWmmZPwYU/6afXMVOLwKh4Zj8UOhBBkIWqiRBBBCIuJIgQiHAqQggQIkBoIHXpdIkjGjN8twCpzQqckKhjw/wRipsWdLHmmdUeDd5pyVZ/YVPqv449EwU4vap/Z05in8X/AHIwpX00+kY04vAqMGY0+hSdViFv86FpjWLWR7Vd9OK80mrGWp4CpyFQx4CoelUOoxUnW5KcKLOmB9lOB91OcwUt+gKn2FTS/PVcVS8abwfc6hVPuKfuRjSqkYU4/AqMHVxeBUYOghjCllISjR1k3iZOuFVZ0v7VS1ijIoRfaEIESApiJEgRI6KQgRIkRswIajCkJJJJGxMQJJJGxtU6MyUuuGv56ySYG/zTmMFL/qPWpvj0FS8KTY/uqWFP5Yful4GqOWkkklvlk0fajHSSdGKadgp+gVDx4h7U4/AqM1FaNXCo20JJE7iaNpjTup93QtblAiCBAiQGgiWQIECBASEIgRIkCBgQIECJARoroM8zzGJvITLclydx3E+RklyORHI8hrkI5PMffShbIpJDZkyXZpSZN+hoi7NbyPMTcFaPkeemOYkkssbiXMjmeWiSV+5HIjmRz0HaNZwa5kcyOZ2FnI5KD3EcxLkRyI5CzyxLAyORAeZ5iz3E8zyPMs3HY7i2TPIjmQS7H7nXkSG+Rfi9xIkvpPCM3coaGn0nWdQg+g6tJLglKxpgQI6FLQEiQmBJQElr4EpAgQFyGRJImSTeSR1HVqhHuxMnSRhjTM8qW0y1/8QAKBABAAIBAwQCAwADAQEAAAAAAQARIRAxUSBBYXGRoYGx8MHR8eEw/9oACAEBAAE/EOh0nhNhHRiQ0vBhxKJRKREQDy4QCUIxgZSskErA8SsY8QR1DwQ4p454Z+HR3Qnhnh1IrI70kIVYt3ZUN4yr5JUAUmOyicoLnMe+FBnsxOZ5EeZBw/czfXszN3nnS7HmQDtTuEaFWzlMG3DE4yRlHkhgcxKY74lgg2lUHdcOfBd8toKWBMqL4guGUuzE1HdkMohzzzwKSp2yZK6lkYFeywYOqr+rEsQr1ZR5T++q085+ybNKgSoYwNan12fVw6FX8GZtQla4H3htDVnc1L0+5NnQw7+3U0+4wY0YE+swdN+gh0ZwMJiUR4J4kZgN4tuJ40V5+YHs/KFuveoVAOHJnHHB8EoNuyAgVQRe0I/+tE+9+Yncn5jSeE+YaXqc3yTeeNCXHaOi8GPBDVmK82TbqZgwy/iCB0Ns/el9H1WfQ0xrlA16mhr+pDjVjPps3gRgw5zb74a2OvRPpR1UjA7N7IYxHdAXBpiHjDiUSiAiYOxzAgeJSA4jVtMMCDgg+rSg0Qy7i/5JfmVxmgkQQZQK+yIkncUTSG+n4oYc5ZL27EnnmfeJd5d3g19m35itmBhKsTEK8n7yHUslkslkvz2B8AgkshWjpfKK5xGGgB8hMDBl67LwD7hDoV25Xpde87TQ02TZqaDagx0fSm10/pIdF61yTZ0O0yfZ6f2YdH0p9DQ1NrwhBuXqB9czXx0n5SfShpUSL2mQagx2jaIxCGixLvy6Xqs4aHQNLmUD8ZoaLKvwTYasWMq8MOhuwNeyBNuhDLJdDFCqgU1zBxoENPoptI6Gm25uCBKhGYu9hBCGo+T9OgkSH+/vKIBoWdoLzZPg0lPEi24iYr2mebDgME8j8w3z54cZPPizOsX7hES0S8KeeGYM5+wlTXdUE9tE+xyocVYBLHdEm4wgc8H1lYSEQQmcmkNnxnIhywEDzKVBViJZBlxbPedkWKXFyjs6f2YGJWv0psOn/DDo+5NvQ7Tv9vSpbNWKvSz6h0n0tSt6i/en0EvoFDxE/hJWomC+E29DK05P1CENBiL7oMHS484/shDRmLjv0HQwEPc2HQ7Q/Mg1IMo7t8wY5tp9aYFwaJElMdC8zboS9Bfp9G5cb+KCEIEZ9PNuhruP5qEuOmybn851NP4ztP53EdHQ34Qw6GjKyeP76nb8PxDoVOcobR3RKSk8UeCOL2+CUto8OgOJPDElWwTgS6BJblFgt5UWonjaQdiFdyMtMEcOUN0fuMpE2hk+aU5lIGDR7g4lwdHXvRWHp+wQ6MekO2g1uKvTDbo+hNjqgamlxckN8dksl6CKPpljcjojDrhSKpel6EFzAkuDptjxyMsly4i8uHt0NfqRX6ZcHXGnzNnQx/BCXpelp+XKzFBNFl4Jkxw6Gbfs1Glx/FmBL6MvCMDEIaM/uc6L0GMOTxfBDo2Mdn+My4S5caRrh8fqi6seHl/RqNTPj/e6joy9J7r99Lr2Z9M6cS5Y2dBmRcECGgxfEw9Ayo8s2kxKJSIplPBFspF+fmBQEd0sT2SnvOdJUjwlWrchDKHmjIkCHv4shywbvKcysOoEh0OzGN9L1cxt0fQm10u/VBoa5qV0e+A2m5Ra4hkQFRDwwl2CDGww29LrEr3PBQjKzE8yHLge7mHfBsi6lRtDmQZ3QXKNjZjrre0SbqXeIvRvIFPlhySjdncGD7MM19mI9CeSHCnnnnJTPcqbzyx555oI3mYJiM6FOYwVFftaCJyINsw3rn4nlNCsGA/nDQgJcuLKy5ENugiw+aDLIMGMqXmCIaEZX+/bpeUx9v7S5eu05r8zEvBqxmcdshDXd/xbCMIaMuPpGQcqfWOk347Q6DHf4YQ1VP5TH1dQvBGWwYsoMOn60GIkDQ3IKRCPFPDPFM3CX9o8rKm0rm0G7jmFMaVQ7kviQqwlUAmVz0bHCzd/E3YwcSiLZM9UnhQbYw6IISMwEpLJZKK+Q0YaDNjO1w4rhbASotvUKIBbZiL4QLwowmyyXYgQVuq+JT0ks8avBLzWUMJ+IgEBESxFVNbJAjuRiirISGtoddRr2JgwFRDouk8UtsRbXKPHBNyFG08MesYqWyu0dIXKtj2VlJTDmIjlgeWJ7OCm6YpZG5h3YOFPdHyYnmUt5mHCJaMGEIZ8CbItoG3OXEdnF2xhuOoYwwHeBCdpFMXW7DOyQ5kzbol3w50rV2IiJlkW8dhkompxDaKoA2hd+QRUJeaVreV2u9z4IPJKykUhW9Ql+/308vj9k2PUdGM2nlxs0IRivxlqQjKjy/yul0vifS6fcH0dGRm48NC1dPw59DoVmXpY8HRv+osena6Szjx0MWfvpeY2dH1JtypRKJU/TASzcIpv8E/5kKnYixDwT2/LPN8oj/0h8AkOgZtmDO0B2wGWuQFrefnaI67aowGYV0I9x8+My+WAWdj8505iD7EebrZ+ihovNCIFtiEWrJCClyh3svxBixp3QzfUVw1uCCwCaCMuxSqLTaqEi9P9vLCyJS9oqErV2m17mx0JiLH4ZRUKiRiiXJ8sOpaN/csJcuZufXigQDPUFM1aVWvkhpBhUqVAbEkqUSiY0aCszTSBG8IWsHAABpeCOgcKHBL+08MaIMoDM+iW9/VJgxO4/wDEFzKt1S3SUpTZlCDtEoR3cqMuK9xFOMtfuAFPEG7w5o12iW7CUU7RA7w5YckBzES5woCC1ERK8ykRUsR3/agIpBIJHivej5Y8CWdCKe/+Y0dDT+3x0/vZ9DViQ/Km3ox9cWMdSHf4mzQ0dKbehn2ugjjt6MfR1R+NQ6RsdL+NDVdHaYn6ZbuqLxD15FwwY51zLUMkCKkGByzZs1OJWlCxluIU9SoChhKYgQxj+Un0GhDRcDfqVCAGoI970EHE5WKHtjF0vYxtWQN3i+EhGS20RwwEGjft6MI6NFS3KXV5jplTGim4M7t1a9oNhiTNNaQBCqIMHRhwTa1Jsl7vMy1iFK5spYOihFyNmbEBYhHdMws0DJKGeRixaPb2Lsg53wHmKx2JeRVGUGYAhFCpm+EgpKTwRU5jA4ehj6MGXpWmJfKO07iYI1BRFSYh8BlHLGxLTjI+44QhElirRo7EsNt5fLoqCxEfzBHpByd6m3PT6FwIAJRKaVy8/ohwTwJb2RYyZQNCYDC8s7Q4YR90ryiyzl3cksDaq/Binv0AOCNyFiBl+WUNlp4k8pAbwyjQf5JgMRTLy55so7o8Zsz5ZgbMCyPxD7RjS8weCV3cOac6C9k85AV5ZAPqBlJWUjKmhev05gegig26K3mx0O0+xDpu3oyCYjpX6Q6Db9kWHQxjCaLqwV5ZHIQpIR3nZGjLngKjERGKdqzclYu+wQHANNsExsuDaxhHkqyDt2Qq3GDETOQSpCWL5qBbC4vMHEMiOCCyLKW9eibKg1G+OGZvQuVKwpVErHoixSXccKFbDmNLS5fQUdIau0ZNehUo6yoqVxn1KU1IxHUwJYIVqhW7kMSIE+YAzYEGrWyPmDShmYQby4RrEK5m2A1SL7iCCYc8CIWupfEe5mUc0fmiNh3afmB/8DYVfeNvkQJ4Ab4IAZVdMI0Q4DhtjkTexoGGlPAbZn1mpAaod8SEXrZND4dNPKz+TDoZn4P2kIMNCXeMek6T4i+PpI0r/tBg0o0xKLOB+4eEYMninCJgjvJ408aD9ksgaBArEfJl+esy+aoEbyoo7Twxpg5IcqZbh0UlIm8BUDKQED4oiKSzVi+0On7TowbxNjpd0NLlx/Ym1DVm+5k6WBwF6uyXFPxhFgMFDBqXNs87oPln3Gg6LlbXDTAQOxURKQ7QFOgjtMU8xvFtCMsUjMNBiAv3gBCGm7M4Gly9J4JcuDECeGKt4mmFV8sJbRKmuRHDJckKq0/WlyOG2toRKSLdhG/lBwUJFpeBlzglp4LPKG0Ao2WRBkrGeMH0YaMoyHQxs/jvGJqDTl3imEpiFr6oQLOPCXU2lfpEIQ04eNeCA9Wut2sNOHfIG2tVNuf0IY2xfAn1uqQjrzD1IX4v3QhBly5l6T4B0XHk4UQjlOmgOQm06X6HSUS2gaDCCG06e70Q0qVKIlUSiUhwR4o9nMG0qRPLL8sugIh5CBbtL4IiQk02eXBOPolYz/CYs3hzzzzyQWSKSyWaWS/XRB6CoDkigdWZv5wjqy461luDgPcacHxFlBJuwVNolKjGMQ+YRJXZcJHdZ5kr3UefDlwMomYMLcefEe+LtIubo5ooUgHuhwsG5iiCeyViDR88e6Yclzyy/shoIE3izmeWJ7JX3gFDm0QnVrmCigQkQ3EeeX2YYs98OeHNORBe8332ZuvsieZWUhDTHhB9KCS5SYjqVRIuYOjSzvJ73aRAS4VLGUe6wUmzO2GT8ihr/mogbQEOorQHsjCEVP1/com1N5RdxhfK0WyhFlk4haFY4lZV4dNgHf8Ab0kieBZ6Ay5dumMvVUv9VCBfzXTkENvSfB0LoCOf2aVoMMENmror/FDpJx0NbwQ6Nv0iwaVrvZRKSkS9psTtCvYlnZHinhfmLUuAm7Lx4oeRKJLEeUmEX3CMdbXfP90yjfQ0cVxYirdsOljtMlJCVK0UB2k2lSoUiDBVCB+fAxHEpxAQRM2UbSnECdoDQoBRBO0D2IcZPGSlsRGA3lJd2Twp4k7AihF3ZO7DwOjlooo8DAt0xchoQs4XQrieRgFKgPdCByg2bUzPuj5YVbvBwZee0Xd7aUBuHsSH2x6HKyhCjaRAYIvHMgZaurVjTAEPMK5TLhihvb4/ymyYFgqeSGIF6gWCAmzbzFNpwjR+CAi38SNKiecOcJCeFwkVUTA4hUACIgt9OQ4m8CZfMf3uJiOIX0ns6GZeIfvqL+bp6UCMsP68dOT6H6Zt6c9G6M2sT88XRWb3/ZNqX0K/CkOjNkeEOjZQ2hr9ybTodmWZ26Nj1NnRkpsOpHRs9ptJUolEQiv1RCPQzfxHoXFmHsR2GqTbL6cKY6U/iNa0WfwxY0uWzZF80IavKWD26GjUNlTY0Kgx2jt9dO9FdJCMYqOB36YRlaYDyR2GtEohP59tGGASoQeT/wBtFYcEOEjxpTAwYnhlQ7EsKrpztkDlCeLt/cew4kcHsmaB7iBMJc2gVe5TadsEGWAoMFAZVb/FFSBlcdpU2YNEd4ti/sgXHX2wU2zwI+WAvGZUAWDGreLQ7rHZE85PKTxoLSwAF7F9SspLJZBD5X6hVLlyyXEPi/Ro6u1wMy5RoD0SoAg9A+D+ul/cm06HaZPDoWPebTo3I7D05/gQ26FTm0/+UG3ubehgp80w6GJMTwLB1qJA+FslRKlSoGtoKD3l6Vpl65d6dB0Zg0eCVDTZHh9amhzhqnl0GXGVRV1DRMGE20ZvQ5hc3iRKlfwz4pNro+6TbBJcEgWIp5XQICVo1Dg/uGhosGbkHwakI7RW3OodFS8P9QfwdtaIiCh2r+mUtp4Zd2Tw54UOqKPtXTHiwi8GY3ESrLq/FJXtK24/MwIOzmLP88DrDkwwBYJftLydDVDWrhp8QZChNBm6HcEaoKnflPJnmzuxEkjnGZRiYQQ83xO6PhLNZmC7jJN0WMLuHAhxIL3guzNxT5oCV0F8UeCWS9GZeyGhos+3Tb02HSs/RDboy/OHB0OkNWOn3m3oZ+zCGZVSokSXeGO+UHS9GH1p2aVoy57dFaJD8E+rDVn2ZshrshVeoQ0ZuxLny9DKI+p0XFhDVgyjzMNWOVfqS+YIBEiD8iJppvLoqajwnL9QaBKjNz/FsOkmr3IaGjsx3/Ld00Q5kK/ux0LHQ8/5Js6GP8Y/vodBm5X7dCR25seodDHxn+ogIaA0Q+5KiEqIRCOP0Ss/GBlYcBPERFoXKTYin+qXds8OB7ESReKyvaVyQXdCCvvugDBnlJhM8MwHstnDpjuMrDnhLTmVGZ5JSeaG9URRLJSXLi5xa3HR9k2Olj7YdG/3mzodoce7So6ssGKlwJTQAxh5eDDreB5lIglxHR8hBIVMabsdxqoMHVB4QZcuLDE0+IsQl1LjziHDmXqysFvdoMNO0OgzawtyDWpj6Za7xBxaaCzd8JLUGVo6SpfxU2aXBjLC4/ZDQ0Uzb+Y1HRYDB3WA6Psph6nSyu9/25sidB/GfqOl6ih8P7enH2D7mx0v8j+yOzWMYvtxUvorf5aulirg+SUFwIa3EPvP1NkOh30gsZ3MWEZUJRKvuhUoninhQeCVxqPDPbK9lnfkat04JoY4hPTMACsQJKcowO5BQHemKla3RvA2zB5t0w5J5J5pSXsu8FIMs0RTFl5XprSn504NYfbQd2ElgRliULgEMCEY1xjmBCkunvC4ymDQ1LFzGbEAgNit2Q77nkxjpuQIZwZup5EOCUN0ayEsYVAndAvdEOzF5TFciveK0WBizAdmxvqE5IzqFsQ54LHfueNFqmZM9tTyzzTyzzxZPtPwmYSZN5l3lhljsO1lxCPUEmIxqEb+YiE0WYwRiWH7SGEXLjHgO2olxaJUlh0TQ2fnDXpQ6D7J+51C/k6ZaFgr1odFceRjb01t/wCpgkUA1DWUIOx0Y71DEgs4IB46dl4UeIMNGbujXHj1RWEro+5oS9Kx29H1JthFg6JbhpRKJUD3CqU0PCSnsmwu88aeKeCMr1n5gBuxT/vgwmz6TIYPL1JPips/cyDYIzU3VgguwRvLCVtcmmoksH3SqOCYVhWSyUREBaEP2yjiU4ni0CI+Y4Y0vFpUtiGcOKHGQ4CK9ktsSq47y/tnizwo8KVAQkHtiGwhBe2gpbS8lSwg4oS8UKYuXfeFW7KcsB7oVg5kbSpn2nFNHfDtxVtJivGEEJ2JR7kumauNLC4ALleFGEwmWKMJhGhCZ20OaXHdMDnKxszFFl76fBFaNdp4sOLB9pLLJtDyP+sDAyyLF3JR+59I6KmykukPnF8QvQqXhzHl/wAGhoxlb/TNuppSTc/zm5Z3i1SyDC93i+NRVHf9/Qkao8HywYOkX4NKQ12+zpNsmOgZv9noIsM2dCqGzpUDS9FiW10v5ul/JNnRsZl+etdAsPEOHtE45xVXfErJvihofCJZ2TXCFGelAQ2g8lNzaMY3RguWnmGco9hIbgMqJkIsyJ4YsIajEGvw0DorM2GpCtAQARiYYmUjQOSI774k7ALgiIVDVnQZtZk9AlTCLtoEMSVCoCER8TbDRlJSvwytEoyiBGUfXJNIGPETlEwUb5kBYvuYpAGyIgUuVFZdyl2DATEm7DjkBripUyr/AGIdDsI27xADMkblk0rwYeyFC1KAKpSQ5bJdtBl70w8mk8sOBCJ2fqmXOS34lG4hxoN2TwIKVmfrlTZL+8OQnmIc0Nm9/slYXluVSBjASyLiK0rn/PLNbn8TmbXSVOsRelHDl6S/NAsg1FpsY7v30EfxTbo6OvRHjpGUOmbToZ9p6hs6FSn7HrOXqKyezitEcr2zK3kihcELbDmyoch0VjdxMCLfLBti8RFTZllWb7EGPliZ4DHhLlXmKXJKsbxAzeKtiZNTL1EDV2lSTaVk57TOpiK7x17kHPtGCdkdtyhErMsvvaI7tSXBWQhHN7nncD4kUGXFm9HfQrlx84qRjY0YNDYgrfHBBB3Ux4+pQShWqXcYsHiexLQ8QlIx2a4lBEJWkpNoYaNxUQeQ0IQTZhrivUQqEI6f1+EDEqVKlExMQ1o8U8UeMi1rsPpF+yeNPHnhzCcD9UMNP/GeJDjy3s0FrzJMUoxb8wGn7pfb759CzEckXeLbD8R7DI/8cBNj+JXu34mz2TREOBKNmGN3LIWbhMAFkyabqHdjzp52hEbN2TMMdj9U2W/DHtJ+4Fi264gFMzwodoy3tniR+XnTIl6rgWKVFavlly4VLJl6oin/AMNEYs4dAv8AObOhcTcwYaLBc9nRvTA6OlamyBBw5v5iFO92gllUBKhrZn8LjRIHa4YBbLRreEnBQjZNrGU4O0BZuym7JjLswgt2zMX5hwpLxDdn1ZWrNiwaIISqecysAFqVtYaEeyoFRLi7WUgGJb3vcsY8RiOW5U3YjhIhWjYdG5KtCy5RKVs4MuVTWZsAxIi5LEgBTMplVNs274jJsIk7ANFpBedjAQ7iv3UNtA02JLtSZEHKhB0UDf5DH0Csr5mfqYa2mGj+VHb8wLL1/m8YdK/m7kOhjFcF8Bo699tm+IaPj9GppmWxZ/Cl2IdgTLEfct8EVtLxN2rXa9a9jPNNvSq8gTYTEolQJ6F+yMEStF5R2m6QD8xW/wAEeNLd4aakJViB2uA/7I12gXue404k2EHehO1Ip2IPfFOmNQ4rZy/HMdy/Epqx+Ia1KOWeFPPPCjTvC3u8OaeaCQEVvvFiXLlxcMd9P15s1uKm8S46VK0qVofkEx5jTq7x5CE+uA+tLitjaiFNoS7iKVMQSMCmAfYQRulwUQxKo8txYENejodo0y7S3bgAKb3iGbQgyAnhUTFSjGZVhAQChBKhCiC0mIbRBHCBBCMqHDEOqZgMV3ZITFmahcu+hdrHDM8Wg0AJ/CKqbhHPm8jAu9Llv4Q/LBAWhWbPSKtQRdxwJiK1pcGHjeEi8QbpKWlvaEF2DV/KlQyCGtC/zXqVjw/0nboYy3nXQ/nzH+7GhrsPOviC2S2AtODAh7IVSIiKAo0OT+Y6VXqYa6atnkm2HQZepMY5m0MXyjv1+lfOTZrsy4yJUqY0MDGlEpxAhqMNocCK9s8CNO0sIHlmOyxTv0R6uRtqQPcseyJ5SVV2g4ohsH8wM75nyj8xP/VEpeFDKn/AY8XwZ7fiPqvZiH0w1TTM2MDOcTTssEZpB7Z5aDv7JgXZKG9ftgMNZgJjTgHLCD3oSSdgRpiEdjy+Ea3IwMTLJRmaMM8rEBvE8oG37wLTKJkq8Ss4fc3nbvCrKgzDgqyrnYEQGJThhwModmPBEhbVULxK480xbxZvPJcHPPJOAgG5PJsxbya2gVICHJDmjzRA+SNlKSpE8zEd7LMrkFEQzhJdTsJcXEraCGqCUwe1tj4AgqTB0H8iK3d0Q0NBdOf04dKX4l99Jm45/do6VMPwJU8Y0IaeT5E2MVtlDha62ei+und/1XUScg/om3pOT+41CJMPemHqS5fRGzVItL1Hj0MVwdCr848ENTtFa9w6HkTb0YKbOiiEpKBKNB4iOw9mECcQla1GO0NSbYBMFYwK5lp2bSbLxEhHyQBwq6bUwVBglStHaZCHqARBlEqKVbDNaleIitoQgFl1guBdo8UsIF4d5TieKeAjwQKQh2mXaCdocc8aPFlOUbQp2aRfsjwoBkCcWXLdyLcx7Ny1jKK4mYmLMztTt7o8+M7MibwcYHsGNWZUMIis4Io9wQMqwHsEYWPM7p1kShN3c3vRq3+GXcGDEOX+YrlYcOEYb/ZMWLlFhZtgSrdgJZKPKH1h0059ukYCw7t9+nac0+4KIQl6ZZ9v8DS+gRWqtsYSl3h+jS9f5nEoPh0MZ/dtNmqy47byH1ob6VDXsQUHghrcVs4E2aXo6bwy49DHphuSghq7M39Ljt6H8XTMWPSdetn14dFxjtKm5gmNguI0YF9EVjiu03lCz7ZkcYEx2hKCI5ZjjKXK3UUpjvQsd01KFoYMFICZnhuELg9pgTNhZBRhqwSvDW1lTn3lykNFDQlmxBIipcUn6oYJV3IIxIN8Eot3IreYJGVLvWw0bxKXLNWB6Q0StHK39hpM5AEq2BUIIhPiaKlICVZUbRWo24xk7wODFCUQyFFehBgdg/MSlMrCpcDgja2f0gwr6TxZWOazcQ3IQe3FWDEB4uUBh8yobs+GUGU/mK3CNxgIXDaPLBYMrCn1RAt+GI/1wCWP0MEF/HBKwHqUtX8JvFiUI8jD+ai9mZapHayQbaVnZHugyr4CO190G7J4UONDLf8Azm4u2UlnMuXKvjjbLI67uLJu1VeqbENbjluAht0bLlT62l6MqBt0PD3NmpG1FDp+w6PoTY1uOkbdGPsT6Oia1o7TJZaM5KfiWd/7wdMbYGCGWxKi/YFzs3QssJWLPCQuGiMcPbQaikwyyK22GZ9ueX5lN5nxzWI5QOYtmwJ3R1BcbZqJQUBgl6w0qJDhAhqDqIvcQquzErcIZqhHPNxLcCVDfFzAssW6b9g4hPbaFpxzdSgQxy2wL7QKVsJJyuIERadU1OB4wHj16YehlVHEU7RF2ceLiWlRh6aK0JbsTvItwypobtWVNz/jDbS9G6lpVaBDQRoJGpNp5/ZcNuh0FjC8L7l0o1RUZya+0RKNADtEm9n98KtpTiW9p4kOBAaWP0xPETxIrvDwJVDmrlRRtNwLZfM/9ZC2y2LwNYL8RJ14bMCp7ljtpBom4b8QtqVGoA2r6jVj45W7n4gcqKd6xVY3QgzaE3+aIGDA93LRRdQ5iqamlv8ADNz9c7lfBm8NU+oQOPo79hMOG0OFLCD9k888mgPm7w5pZLIIwg948QhpvTGG3QSybdK035idL+p0sfXPrQ6UgxFIbhu5QdjKSwjdoWs7fjpND28Cwl8hURqh5uGs8MEwRZm+pdRMEIKgYXD9usxRhgqX5O0cy/IBhDBiw4rmAP2QzE6Vo7RYoJUwIq2yynDV2mEnO0SkdpaItigR6gquP5bmDh2hIkOBUqK0syguVWxW8jGrrepglMoNkSPJN6GV6DZoiMjGyXJ20Y+qfBx78LDI84YQE2oRntLTUSIE2y+iBoT4YleitnMWjSOizLxv6y9SO03nLaOlS+HeBodA1WbTKqV0PBx+5ht0MPxfs1rTMef3Ra3LmbcQHQyyr3/fpUNPAzmfrOk34v3TZ0UVPVw0Brj7n9wYSiUlInibbNyHERbczx54cOlCVLpcf9KwJSP5nCHplzaAkgM7wDey6UEIxyw1glDaI7D5lcEKs8UKymNf9UOQSiI7waacQ7CQTb5ILt8kH2YZ5nHTzQEpKxAXsERUvV1H63S6LE99hJmYcQnnjyRMNMCDAQGlEZUf5Rd7rEThZQ2iC9JSTfI0io3IqAvdKj4SADfqFMAQwhBYGHY7IysBKSyBWhHQRRndgwbAJWvaIJGpvQATMYY7sxfUAXpIKAuK7kCxCY4YBIPIINSiIpiSSfcdyKqFbBKxp9ODDCtKT/KWrSHirkGDiRxosFDtYZaia7QCSZE3QmGgxjD3fr0E2MvW9umYJ5w1ol67Dn/I9RrIGrFTcDBQeHTX+nfq7/1zB0M/v89OQPcD5ZiDpePz/c2aJKiypeU+4zbqLHmWx0MY+KkDoxfyTEIa3PvdBOybZUomJW0MAiHE8RHhJSYQYyJfv8E/4UuNkcpsIDkZ3Z8sf/XjxL8xExK0X2Idlke39ID2fEoNnxEOmrNpiYa1HQQvFBOYmTbPFoAWISYSDyynLHngSh7ykUsz7stzlffGrfHs2mLDnmzDRUk0uMYQpBzt0ZT2R48x8w5iemLKpMtFzFsQtpUXtCXxROF3cYuWD5kORKO6YN0aaMCMlDxY7yQlYYhI9e8ymIbwaPGmFvabz7ThpgAMt2SKbJKJXtiTcnmlnMAjYOIziKcNtMiwAWzLuW8d0gl6BjEf279KpOIIf7MaXL0QX9wPdoHQMyXxdDMfalsvFlahKKc9TX4/sUHodpwf29AwFvD8ibOk7+P8odDMm9xixDTaPCKx0MeXlQ6KF6TIOhn2tHWk4tLhNyLHV7ZWhojg0NSGzo3PZDQh1bIreRoaVDahoQNKjotkqVKmyKw40CUSpsm1AiajMhCIRCVBjuMSohKSsFmDApKQOJhepwp4J408MpbRhYJOBL9xPEnjwWLH3DQCOzAlrnGvzADbkkrk+WAtzNpOlvYC6VxFzvugO08YmwUiwRY2YJ2EF4Fn6IG0hOZ3cq95V7jGqYofCEBL+KEqhXJDvv4YtRlMIF7EIaT/AEQfaGWqQ40OaFwt3ygElyyY0b4/9IPR/A4m/f7OliD/AEOghq3xgfawhoR2fUVsvf8AaVrcyN2fzGw6d/HI6FTcDEqeIk3Q0P8APiGh0JZH8yHRtuTNhDVi+SGtzOG3Ujz13Ll6W3UmTm3pNzpZ/mTY6mb0Ffn6cWx2kNKjHXnYKJWjN6J/PCBozYwYQ6Kxhq6kas2wUKlJvox1A67kX3dAxS+pokrSIJ7noUqCVDtnZAlSpUePz+solEolGgD5f2TwEt7J/wAqf8yDpshbGCRdt0HgfmLo3h5lRXLn5TYoPUDPhLMsc9kKP9UNRvXecSjtfxAHt3xHs/FEO8hlqjNXqFDWPKqgnIPcvKvtARafcLMGvcoHHcN0GACrPuCCrfkmP6rhVkniF1Tx7go8Smz66mD/AIIbaEHH8IjxOGJq9ntyzKi/hmG9sG2EabgwAu2e4sNYf+lpwmxjzEbhYmVbkRzEaKH8oxm7IpDIElzP3f1NvTld6TH05tS4Oi4itPlmYarD4mzodNishqxaZ0Wzp3YQ1dH0mx1M2xqvLh0GBqI1YL8TNkJUZtYH5tF6MCzaQ1UeljRm2CoNAiTAgCaSabJavpixBho8MGPJw0WWzGeUvn4Q20qJAYpwGmkqVpjENXaI9T+kNK0FkoWkJelsW8PpenbfyLpYx8R6CVohXH6YaHj9eixDSifLfEECMJiCSi3AaKlEpCE4IBRNzLdxPAngx40rALwSltnjTdjpTYQk3u/SUbU/LH/a42f54Uf883yu3eXgPDFxCLEAlMr8hHtH4gDJS2qcP5SIbPAN3firlH+yFWfll5SineW8483oSq7GCNMMZhMfoRFb8EUbfDSlwLqFzJmI2g4k8CeJHlfacyeSVlJdkmxBJSUlkWccNLlEOzoZ9iENf2E2kdK1Zip91pZLix16Y7PjoZlMhqcMHz9C6TahrsjtENuh4YykNB0N1NpBARiY0CDB02sqIGjoc/BPoOkiMUQjoxxPZDVgLJjUjtDWGguXmEuHTOGPHAbaGuaeB8CGrFS/xUFB/FRNHSopFjoJuvF8CEuXCKxx+iP4XTR/BBgo0uDo14T9Grp4qc+riY0ccTE4GxrVEiFRgMqVE0zmxEpxPAS/cQy/RAtukA7CO4hLZfLB99Q21/M5mnjAErvN2fjUe2PjQnsRHYlbRgqYb8yo2v5n8mcyjN0YRuQXf4of+HKO3wgZofid07yvDSeNB9oWbfJKzKuwmw6/oQKVumB7oDapsiZSrVDG+GmUIUQbwnmrMa5Up2YAWwTvPNLNp79EKHvDkJ408ulhLJXZ7Q55555IMIrTaFO5rSUNWYBCsrzKSkZ8oitVojhNjkRQhosMB9iGjo4LHwS4OjF+GCQhHRI5ntgQ0YyiY6FwxX/Rl04wtPSihq8P9qCVpWn1v6dFaIsC8f1o6M23k+Ai1NPUEfTUIRUp/ZDRhcvVewnxBXS79X9On7+UB4RidGY21uOzNz0LC8tZsOj6zMBCMGLDtMzocbNKlSioZHRUrQkFUolEpoiPshUYJZ2T/gRmXwDPYmAdVTD0QQ+2In4hLD2NEANmJ8x+JE4MeMngnim3oJuIcGLds8WUNkzsd9B4dKud8Slg1yp3YPMZ3PIlJbN8ud0xb5QC2ebPP19si2ZskNW88eV9o8MTSoACcedFsZxlhbjy++Vu6IavEG6lvZhoZhh9QjXBxJebJ2YY8QizbPAnizho42ymQgICWRSHPz+mExpZFhi/g7oajHTcSfhQl6r+TsQ1uXKLcr9ENWfex/BosZUeHhPmps1JcsHj+A6Bjpf5qYF/FS4tS5cz8L+kWNTQZeX0/WmxpWjJEtvNn7mzow9U+pqoXMh8Rs6HXpmxB1YG02EImi+8WOkMDoVD3NsdCO0zmNtL0sjGw6K1dNwQ5OSMJ/iEEWWXC7lxHAu7M8IrWSyoZegak2dG5Nj71UJ99DMGE8QrAFixJvFNmZsGLLjGCPF6dh5la0EJop+8jcOYaUQlSq+0pAJ4J4Yha7RCrtPCRfczxpw8psE58xeYg4/lP4Mr2+WKZ3ChspxDdExsCcKlTYnsMP4lVwYgio2HEzcfczXZdmYrJeZ5YEZ+DDMtDCfZEEPogMFAWkMpODtE9wfiIpb8SredkEcAU1/NENhMQ3D8zH/mhxZf2QpCWtDmlkslxipprXzCDDF0XGNFw/yk2EIy5ZMD5Oiy4OY6nY+hBjB0z8B+kGNK0ZuL3Xpufr9zaRG1y4xI0DifaWEGXovmTndkuJJa6bThTb0KvXNjoYuWk1xPc2oMuEdtFs6NhHjoYKfuHQqoRsOt1ZxKPTiRXBuCCebEqe5YIKjd5bMAMZxKj4EFAvugZJlOWXLKvBerNjDh962v2lULSyouu8S207xjA7IxQWYiyRWodI/gh6uXHCGOxNkkZaVxf8kNopSiAr+FhmMwmWG4YxLgy4sptXKX0D1cxiBGCMwq5RuRUrQRAd4RCw9kTZmBLl6NYQTcqAY0Y7/vxANagLT5r90pEiRKot6XASivh+yDTHYgvkQfzlUGSf8AGj/40IRuDHFTvGi7IizkTuRnYb3plcc1fGJmf8pxH+ZaB80uFHyQE2j3PkmTdf5lVVNua+CBb/ERy18EA+M3AuVGPpGKNeL/ADFLMQdyeCVKM433GpizH/1J/nxAT86DRGhblUDV5neAciMM0NEbxf25tiRHdghD89QL/p0sjt8GWOVvaFIHYuWC93wyncR4sv2gpBXsPmUWEbbyT/rQbt+Zdskc1lASlvCneHITykW72cvnIlnvLIaBocS8EvVV6I8ZerMvt0jCLNr3NkIQ0d+yErVUfc2a3FxN33DoojWIddFeppuBKEKKgHMpFDMIASgqLQQ2oqANhXMDVmybdLigcRWB2Eq0isx7lGRtvFDclnWBupIyQ6rM1B8UIzhYRZA3jg3KmfGcoqhRq1L3naGwYg+7Cm8RLPEPIsDBLlxZTH2NVRKy7ssAcUbRBlL9IVotoZcKs3hiHSM8IEOq4QQNCMtaSJ3MJWFdjMMB3IStvP6JbrJsgYaq0EI4XmbkNde/7tGCgIGprs8QnIDX7gdcsD3LUArSE0AhVK07x2LEsj/Ivpqa5tz0C4RZsn9IOrobHZPlgMRrQlIrZ7/vaMcex8hTxwT8QPkEOYVlENpWAMN4dv2kCUTwRHESNiMxGf3RfcSzti2/xRnDNEsRGxBNzFeycMdkha82BP5LAgQ/MobPkn/bgpvpQLqwwmTkTBh/Exc/UCUp+JbKtGaggqbTaAN0Idz5oFAD5hQGHuGG1CUlv8cD/wCMBW28PhlW8OWCu8cZRSIOaDwluJeWJN195U3hzSnMpzLBIwSkTotLfdB6W2nXlTlgIepZLJeg/mjJcWGEzshAAW2UNWKiK7aiKYAgg7pnGbNGPQSk46c1dJxiO3QNZljd2Sig2hWtYHDjGq1AkQoZYd9Ry2yoN67kCvtLgwWSgBfxEhzxEdsUwDWLeCtuxBosFMbr2JwaokYeIQ0Y36/7wMQG/wA19P6pQo0fuL8VItof0I2XsIqW144nLKWWXOPxDkkL6tjIiHEVlgU9rgF3A8EIo7MPRFU1QXzB8AX7i7ly8XMUaAPZCfdILX+6dBGELytV8FlUdo/Sbb2P8Nz5clpUINWW7EXGbxYj0qy+LUPYAuXsGQJ4QiWgEKEFaohkzHWXrNqmMJxISJwFrBlbHd6bxwj8ICii7uid+BpJmXj92HRsiteVfeoRPMEWt5LCHQr8QhrUxbxAHsINfKDRlr4Qg6P2kJFEqUSkr+SAninhJ4UxVN5VMINvBwY8OMCV5Q80X7/Kf9+Uu/ulYZItYKI7Ss2XxoJE2fEa1DMCb6K5E+35j7CMeOvLzQYMzzaB5YnhOCoYxHsCNMMxqCQ0MLFc1mUQV5jy486MWUU3Jcj3SnKDWbkzCta4EZuEbZ5ZRh1Q5YT85HnIrBhRmeHBOyHIRFS3L3lYzAykpKQksVB1MiO3w9LgyyWH8TL1oaVLje+jEhqmjHE4UhYdrgMKquWWKBYvapUzduwuypUai1ywphRN2NEzNquYWw+IWuLfSEYUBo6ykz7uWPZbL7sqZhouBLl/UABgKI73DPpDoZYLv9L0q4ZCbvjeWFCQviifu5ZVmJ+lFSeC4JC6jsXAFBUCoIsABfgmGZ4pshFpeL5tZeMXPtsKh+9PzNryoRAkWFSnGrnech/MCd+zLgcZKfyTc53MTRuxACQqp4MSse5cJR4H7odCy9RKxaq8RY7ziqI2EYuDdmcUHIzz+oYYXxKlIGZ0zWhBE6o9ybAAsnnbQfMRI+oFEdGEv8k2aUyrISuvOVi+SciZYFxcpDeObbKXiJhaJUi+IbjWbDoMQr3AgFqEtoR4BAGIqDA+ybKyo0YS0DoEwdZTBo6lh5gFSoMTtoyyqBgJZAqYmJlCQFQAXF43hPFHigMHePATxkeOeNO3TPxDhTx6BHYhoozDpELmVgVgxuwA7oO90Ed0MJClWwlHEJw9oReRHddSgDHiSneFyHAAwVXwTlgCzDlj/wAuEwWDNyshERIwGeFDppUpWrEbAXLCYUAhyEOYi54nwQSCRYEAq8Ssmw2/mUExqjBwe6QAUdNliBqOYR32yp6vqHUmMarD8UWGuSWJD4y1cLDLcYqftNcMkU4ISNBsQUG7vaBGhUXUqHjc96El4mAADQeMXD3oWD2KxAkFg+krnB0aw4BPlh0UJw5ngpk3ogQFjtHNKWghcZvmVo7Yh6jaKA4HvKSQI28QMar8j0NyozLOd4rnZLjcJUXHSQxkdoFslO0ECiHzmFEamXNRtN0UZi4gGZSshA3wLcIzSsEGGmxm5ihsaxRYalxUTxG/zotnWy6i3IS2Ljrts6yviFhKl8aIKYYJQQisFlw2IkJyWuxKeUjpMqlN0hjvjMWKuN8q6hw9U2lQrGxBIREsgp8h0Ay6NECrwggRly4sTv8AejHRRFg6FMfHLgwgqcRLzKxosucGJi98UQykCRAniUU8NMVOxTMEfkSThyzsinZAdsOFFUrDGOBAkbPdlGy+WYayHuP/AKEPUp2fE/6MEbRaMaHVLKqHIqzWPMTcCuKn/EiG0SVINe3zeIDdYA5HzEdi/mcn3h3US8tra790q3gq6+mV4Yh4Ey3eoTg/hCK1Q9Suri6Kl0lElX6WE4Zx80/6E/70vgSw/wDgwXb5oAZg4kpCO5Bn4mDAsMslkG5cDyH12xkuCXv8AwAAgyynaiDB0uVfwYgopYIx3QYA2IVLzX4gGEEVNGMdvthEJLWu+j3uRAxFDRlyHKGgXbQrgsFuNN5XeKYWwURPYviKnaMpWEwqDzDjNAAIOg3EGDpthXNyUZCXkQYIXnMHlhqbIsvRcc9h1Mc+kmhuN5WdzEK92PUUd5sJiRkCxwSICKvVMvN8Szqj8EbrIqM+kFNrNoBDhFNutAcKh7ZrHBe2UG5WeYRzFSmtNsw6CKakhk3xiUXB1WNEVJh62CkhEoe7LF5I6OgzIaiO9lWFYq0lldSb7wgZLLKhriO8y2wwZHIJ2QshCMDDQaVExD3NifUBncIQL3gkVe9LzNwR1Qec/rqWkQ7PZxemIN+P7llaUlEQBhFOf854pfhEf/Gj/wCZA1k/4mC/6o/+HFisXFRcrFKygxtwQkcd09P0xDk+Uf8ApTOAh4UUw1UbZXsMveDjuffKtoBzb7jGzg8UmGq0OEmDg/E4fzaPf8SNws2U8SyYXBwwIh3/AMsf/TjDEWvMupFe85DGfj6RJ/yRl5cgVlHMsu/jle5xTvBcbXtQyg7u3mKoZd60rxJeyNDaL0SqglQ77h/7EP8A2JwkJZGU+WHNDmnmlISnmAmAgmlELYtA7SiZgOiNrLVFBlxYYzmG3RvnbHVYjth0Y+mbDqYfCai6BgSgoISqWFdiBDYztn0AJ7kelzsgo5HUqSArgS9pmDAkHxI1CnxKxUTCWBz+8d8WDLGtquc/MqVFRLL1S4yRXIL+wOIa7JsRMHYNFy2J2hezko29omr4TC6RudwIncCxvsRqNYXV7TAuBHPf6jy73aA32JYKBhb8zPzoDovMkhoMYpRLhTTfAQBOCJaUGKh53LtFktBnDtCyWbSWCRFM/uEu2Ix1Qht52CCsLAyw9dod4wynBRdhi0QGO7/hGJ1oFPiODABf5YKEAWvEWQedC7omFiQjpPBBXp63Gbfn9FCPRkr2I/Bho6Om/upsv4qXLlwj9j63DbpV+IuhRA4z9EJ/dtK1qAq8sAIBCUQYcQcayzxE8SJ3+Cf86PrG7caZMB2DSvDiCCsPc3LPP8p5fnO7B3T5otH3Qxj5Y0TeyviBu74h28JxWH/j6PXKbtkkINEDsn5lPb8IAf7Tlg0OCb3Lgk/mRLf4Zs35iFRGANmYt4ObzwpfYS1vE9kODPOTyQvQmzq2wFealG7BO8eaeWKEZZAyspKQxQE9oJKRdLVjc2piXLIsSuWM4QwAKIxm1jw+4MNCdWHyKMAHfo2RJbh4glqTDIoJ2jdCfWgI6VBhmzjGGIs2S1RpuFGMS/BsRBziIJMOYYLN6hrAzlm7A4HQdDiJt0LjtP1HRUpMIRmRbsQglB9szaeco3YgShQXMxxlHdFwS7BV0vBzT7zERASOCdlfmGQRMMN1A1gnsAhiiMmsqeV/QmLFLFQmC/1Uw081X8ndB6Tn8pBo6Ov6MSgv6qJHENGR8Xg6GXJ6/Ahpeli8oaDwahplyn3pDS9N71Eq8mjL0eHxBxKlSoq9TDVpDoeDw6DSpj6IIaVKm1DDXZCOjgaIgHCFxPATxo8aUXGIdk8OePPBAtiUM2R6dyBaN3FIC7Rk+eVG7Bu26LcsVylHfECQAxPZ0jLuwYvYyphYYMNAp2I8CPHhs0Q2tEOcVuiPOizcQVLzyYcyON0oO2zdmW5ULgdlMJte8FOcQq3nOIcaHGipsiBBgjXuThp5JXkhKzDcnvib0pjDSGloRBjZMbuoKIhKiSlmiICI6EcpOm03/qIbQATcNo2Lx3Ilp74OJdG8Wv1hKmfUqBUdXVBhNb+2ZkRuGaAQ0y9qjyGCey+xFiuXNrA54IR0/H6J/d46SreznSZknP6jV02b3RBQcCMTQiseH/RDW9BkiMvXb8gfLNpGU6XHfgkdGK+Uw9bRlRmXjc2w1VN5Sj1yumtvRb8cFBCEvT9M29G9HouXpUXS2swYdDoE29Sr0Sj2b6ThmdytKlTFTYaVK0RAxKlSokrTTQwSoSpWUgJUax2EEgQVGJ4p45440ZEBsnjJZuIaJIjBmBc3i5uB+UZVf++KjNkojMz748+PZmns+IJMDUDacFMrjFUq+2ZJrQYIizmVHchWqehQV9Rsn4YLSvykfpPxIwu/hPO+Jf6hefE2bEFgTj/1IJg3yt1wCHCnmJ5CWTtYorfQly5S68zKjHRUnH6Zn/RjpCmbC2NhHStOGJrcyE3QfKEeLwdNUOH+Uh0Es8n79L1JRoQ+5tJcvVymtv3IdH3UHxNaiTY8GXro+8n0ulYn9z0kXhKIGrP1zbDVQW2NRLmUdvQctJL12fU2nU5CvTrWiym199CTcgoaGjFAY6GAa6VKiTYwOqokOGIbGpFiK16hoaO0u+BNSSpvQX7UIqJoB+CfCQAlEolEoJ8ZiIBAigmFgQOJYZCeFDhx7/wRuLhm0W3+KW6TWmyKwClDUcljyvmeJ+Y8B6WB/wC2GzUNP8+7gSv3RfaYG0/Ji722qngmIirio5YOSe9a+J209kAwrPQ7VCW6Fd3tUezLko9ypy3qOO35j4YFFwDdfMS7sO8E5wg12PxHUpaYOWKdLxFYoa84KXT7cS3fmj42ex2CsqXA2FialZXlOJ2+eKpCGbtB/wCvLQR/yT/tzxPmDW/NEqrZPTFJZCESgd/3R4l6XLivbEzoVe9DR+DW4zPhS2dCpWKU6WKODBjQ0VLFh0u+n3+qGM29G9BpWuY9TZ1OBReOnegxKla7JtOhiKPMECVKmyZP1A6DiGjE0YtEUAxrc2TdhC4abIopEgjN6CvY6GfUgr0SokrSr+OKzVih9f8AOGpNku+3+iECVKirqTRv8/4GDoa5+Ppit8frgA8fr0ZWnwf8WlStEGXL+CKSvE8BHgQooBT+TO2If+NFd/ji2/xxxfolrMQflYm/TgJQA4nlntiWV8sW3XyxBjarfzPP8kB/2I9j5UamCuIy7UrW2AftTuhTeSA/1QE/0S7uQWanD+aOP45w/HK5ww6jGZQcr8TPNFwv5ncQJmz5lGm0BLjyP5nP8kRkPsIoQr7pN3OpUkKMh+ImZPhDZHwgcStGagZmfBhEP/ViAC3EDCHAniS/YTzS1zKG880pKcwSQaikuVh4iwQZcubkcNLIx/SPqd0ladKpsebp2TYQhq+/NmrpPUTjViz7UUvXYzf9QhCEdoa95o6GPDHaeUGVomgNB41YktcWANVQI2KTQ0dodnn+jRWrqAP7u3SgRs2/PQlwdRDoNhyENF4dP9/kg9CxWjus/l9DBfEHUKwvb9rAeh0nBAHnt89Oxrc/pmx07rw/WgwdHXrP3DhoqVKlX3BMaUSiAueSUEqAcTvURMztEKciWf6Ja/4o/wDjS4hvKSzPAiu8AbQ+f5l+ZOH8mPFemf7Sj/2QSm8MPqEoezjTj6wHt+Iwo36gTb8RO5JXeaO031/iYUwGBmftOb5DTb4ILKgx1NgbrBhiIwcmNe6AezL1ABc3vBNohNgL3hUSvMOaB5nKiGAJTmUlkRTESuWRjo2S9F0CZDo2RXA0IRUR2wY6GVKJv7YdMEDOIEqJGYnq1mlRCmAgQ0doK1k0FyGDx+jp+7/foIx36/6dBLjwoGjoJmvH6Wro4F8ShefuuhlQL3gsS4aM+iQ1GAvhPqCpw9GYeX6m3pRc7IPiGhoq8o/SLDV0azXjoVeY6howb9ui9dr3NurpefSMNmg6LshLmJS2gJUolIAXqbelmYeYAlIxgAJ2iQwabRoG6wWHQpLmiS6COWI5ZyGe7Lc55sefKjnLsKzedjDxo8koZQgZnBL4QexjRkwtuUBgJywlJ3kTu3BA1ncsg73SveRtsKWzCNRbBTdnZleeyMtitwGfczgoM4Z4k8xCojaNz9oJKSjFIy4jMFQqFaEWvHQaV0RDW+KH08rQ0p5H06ala0Pz/i6VTXI9IVL2wexperr1MBb4f30M2HP0KOyXB1NpW3+HTfD/AETwIPgg9AfnfgjxDQYszfmRoSpUcv2Tbo6MFOd3DozE4QYdDM4joWPabUNXaAvF0YKbIQhGZTtgy5c33iOXiZly4rg9DVjUIS1Y2uZQS1jhhIWmwTaErNkJgTY1eBqF07Q7BVrMt7dMy5slNUBMj76GEbxNZJjRCMEYBiZiAHuaAqAgCHBPFDiIAcRO0gXtn/Kj/wCZB3Qhhay3o3dJ44tuMfP8w25tGq2KNoWgtLELZ0TumyEO2tMnsYHuGYooOAIqpZe5YdnCfnNr3KLh8w3MliFlWhzIh3JzzOCllvaGNxmHc+GU7/DP+XDPIJFC9uaRXdPxoBmqyhphftJATlI/g0D/ALE/70OPAwpdK+Y4MJZzDzvseSKSyJV2fdkcaY0+8j+N0rDz+sqamituBhhos8UyNB3pCXL0Q95Z+oMaLLixi/L/AHqOgi5CbToWK35/ZrcuPbG30O0Vr5Q6Kj3mx0bI38mg0uMjbCENN/q4YhL0Wb6G+hmTeIJa/EbW4IwomiVjwRVRgTBRos2YGgUzeHZgMAyMPS3Yultc2JX0Co3dKbskZWJvpkMtrEhlWiZTVljp9iLGUQ3LEosQOmZsTbHdhSybARSpYmgIa70+zgwC1jVyljtN2bPtodEHxJUqeMlHHE7H1QG8liLKgmzooVghmtoMEWgFNyGiYmQ4BqkxbyhPx4ieKPFHiSr9zfBL+yeNFN/gln+iImPgibQjJYpFSzsiu8lzubx5u5+4NEArDTbHWBoU5Yi7PRD/AN0R5oM3mliivQMBbi9iAdLPLBr3hwBWCWqvfMCZL5IAbzCwr+1BSR/JNsPh7jMIHG35ilsn5gVF26eBzLLcCYm028Tl/BMgRUYfhmAqLttKvNpMczbEAbSnGae1ntRJS8eFD/2kxdPWuWBb0/DoxsFiG5S5hD3Amzdj8w/9af8AcmyJ6YcSCzGyMFMslkWKQreVBJZLJSYnzY8NLly4n82Dosub5YmjLiz702aWxlR9xYIQ0uNpbeirRvS+kL12TNfBDaLzEQO7llTSCLiORLA8R3iGgiWdboj+s2hgziAVA8JDVgJwqg4CGfEeFnTcQpVMtkVd4lC5jMdoYDFs7xQEaAwDWVIAojFFzY+zAEOJvdQhA621Gh4qGlsIsM+4jtDEhQ1juRXOCHCVkIKHt0rXBfEPwJU7bRZHt+ajSFhmFc8YvIwxTN0ol2lHb8TtMEuSp31LPtM1XELg3M5lRMSyeHQ03hIzPhkg9GfSMSFXBFi2XFaoDHP2foGJZES8EuSmdwIEIMQ5YsNB/wACXLBpeEhTb+NiDfMXzRjgIF2lCgrBuqrGOsLJdmra8Dmes0cJFDeWmzH6JiP8V0/Z/iDZjfkhrRMxdkHwTEqNBsFstYxhDw8N/tACAlm5AexP+NDSu78wVZPxF/8AVDt/HFN3/EKARTgI3FbgreSbqZsSTz/lg33Hd7Eogsn/AFdMKbjJ9pqL2R4YcYFthjLoKIo5xTAin+SUYB8T/mQLdz1KmJsNbkphCDAON8xzzuYEbvzAt3B9wjMdtmVeSCN/ignY9xXv8M93xE0XvxK5uQAzJwoygGPkheIizZPAhwp4UM8wKgJSUiJZbz1FiGk5YMpGY2YJVKV1ubBwTKKEj6hrsekQm2V8uAKACUEqSIwp2TKJgIKDVqE0DB4AEAuYEzoyv3S+sA4y4xTUwIFwxdxXpAgw0FkNL3olqGIh27KSwfKMGrtgx6CZ+uCvU0dpexIA0RGJvkaxOFCHdgglWCgWHcgV9UMCMMAEsPlEJa5TGrZHn11ljqJbHJAp4I9sB/N3YwlB1O1nl3cwG5IYY5trOeBAej9hDQ0IzhC/cemctQBAUEVSqR9SvY6/BKfc/GGWpCxwlz2i3pKn5TRwRkTZQWHJatHlysv2KA/G7Mw5ZVywu2yYvRstqJlEphzxHQrsHNQoXH6ukV9viiEQqrcfr3V4MetK1elFG0LRkEeZRy05+GNVcMNVGnET8RYoYKELNE2rurAd5fzKlQcK2Ijl10nk0dFfED9ro6KapFa+nHMuBg4iOeDHr8IgtQCVEJexs2m00rT7aCg8NLNFCC/EMOJWu5LgYGJURzK5l4tjFiuu9glg0WOYZdiCbMsC20uw95X2TxJ/yJ/xtG2ohexwExgZxbEMOFhsLlbvPC/mfxZw/PAYii3nQdG9EmMeXVu/iUdpZQp20BwRKFDKjuZCnab6isoxBLzKIPeKAV5gzOINoEiyrsngTyR5CATMYGZSWRSVllZiFCUhJGYIkyNRjoiEmCVlq5YqWbywqEQ4mMjowlt/DR2nNS0PyykoASh4QJREIBRBhH1CrgxhwhYndNRUp+34hrtYgO7BfbO3WmKNvb7EoSkmB+3VwxHuf0hqGgE+YhD3aZUYnBBIAIFQlgEH5j4stzgjVFFT4nnRPmXjlu2JekXeL63n1tZLGRXXtPVa/OZbBvTUXqxl+UVHe0v6XETVlULTwLS0NysRSEhCbJkMHZLObRdl4xflF1gGlUMYKMoh7EBxF7ZwaarI2FnCx0xa5v4BAYhoAmitKkClHuS4C7EG0QRlJuYZRo8RlAGk2vid4yIig6qn858URiVBigBzeYCdgzDYsWFrnadH0pWkIhFBGjzxLbx7kRSxseUbLLRrSiMDu7ExFTHuAGZQQhcIQpoIaO08h4blPEGTBMkBSgNHQTbB1dmbmgehU59iwOjbDIEolOJTiFUKWIGeCeKeCG7RS4nii24njTtgIglbaL3GBbXAG7CqWTsMqssAN0984ZIsmvfLRUV7OPYl7BnjSu4wHfSjePCpWbFzxYjKTw7SEDLl2CISL1HB7d6hdjGa5Qhw/CNbMwYEcE8sIPH0zVHBdlDJnjzwZ/3pef5oTn7L5hyk8pE8yvJCBlkcr9wCDLJct4+krT10heFHyIbdPmz96MrU3RAvzBwAGwaDpiYEZZ+JAoWQAAaFoIqoFZYxG8Ln9mI9FDrBfzQintWVcLmPRI7jDgx4hAZdsJG81DFm6EHsAQd0CbEqC/sRlU3VVwwAK2sDSoBX8kBosRewPgY8vMWkPhTS9CraF5lQRxKlvVX/AHB0Wxx9AhxORF73pNpY1qIhnaNnQ69LMDob96BcmZVHEYQdovAyBAzfIl2fM7j9SgkcLpSstyQAQTCCxBhCO0q2TDC3ABCyQJWPGn3JtJWuxjtffUdeqCo3LNRtmEr7g62RFTf7dDMBjw9DFU2Gvlkv5MoG3RsmWllEY4xmaEIR0pkYdQEIQFcSgYNSy54JSZhijiLm0OJP+BPBhaTMXGTFcVjw4yVs03sQ8jDsLFAyQftRLbM0Zn6KRXafhYJuTifxHy0IEHAviOKj8Rqx+QnLMHeJGiTPEADCpk3z3EQ2PuZnZhMKK+49yBr9qUP+aU2SJMhCqIiDX7SKf4MTC+OH/iwSgYsUIK36YzKt/oKRIWgzJVIKoAbwcQSoocQm+ECXf74hv8sE2+ef9KdqVh+c4KGEXlKcxHMQFu0su7pfOhZLJcyPn9VNkJiVoXyWfAQY6JGwFsKyxeBlVnDoKtWYtnHTWLxMAiAk1AwJUILuuWM4P7gx0Kl4XQmUhKHiEiNGLLrFRExCnMZRKhvSBq4MfXblEMP8pVq8jChp+2bOh5RKRS+iqGHrijgoYI0lvlUXmHJbUTrMuI6VcStLQmLg8FTAEU2L0LNsEVqw7GEDlDMWI4EQyZjoTZ0bZkzzSyKEU76DiZTSQ7UsjCiZcYS9LloIyzAMdiKZZuJegAzuISNbiQfKwMqVKiTIuNI0SOl6n3f3amjBfxmG3SArwCDoqZq7v7WiaBALECiUSspxEcEO0F/XSeIlufqi25ZVgoggJW4JgG0dorJTeR3wiFonZON9wDFJur8VKaHzIntNSTTW0b5q1DFSgfMBpWZJl9nxRwsqlVwQ3z8QIYp3IRcfFA/8MCzh+CYgzgTvKTuY8uSvufmb93iLp0NZuUIVPMd4ot5+ePlRH/hQ1gio3gQfqge4/ibn+OO8n7cvznlECL+GWF/pEGlj6hPb2S8DhBANzPE04TaFODbBUkcGHKTykeWOlvtGBvBJe5KiJWIMzxG8NHWteNJLhHSitg46N3vNhL0uOvVNnQdF4Veol1mt3CbLDtG6BsEYG6MuEuEZl4qDs84LTJlAavsII6y8EvY9zoZtYaPQsR4BfEO7ZXiIq8TZPyeBRJSsNujbFK3qNaOVAOYVSlgeZXMSkwEqt7xUrIxVFMADjEQXvLrXEEFy5cuLHyRVJUBcu8eIDTbRi0Q5ZRBJ/wAwe9jHJBW0OiFnaIcrInEArpz8JJqz6jKvyfvpIDkOpf0fcw1qYCxqruj+49Ca+R+mbOhi/mKkEJem25A+WbTxA1qX/j3dK0MeoJ9T7lo6CGHOuQwJWioEpaG7QlaVLFyErSBrSB+KAlEolcJvAbkGtp4opuJ/zo/+NOxHaI3CW7po1OwjjXaIGM8PRK8/MacPylGCwY2PzMIGmzcVS05WbxZL47W0q4KM08z4gHP8QLt+IktIU/xQrzJRtpENWZtwz/qzz4DDkm3JlXJwN3xQU2PxE2q+EKC9uIxgYh0PB7llNobYVw32FGiiLK+S6MkUEy2hGklkulGMCAw2IasqJsdBsqXdsb78DUMBNscKkdolmVjVm2NMQpKJZTkhWSkIZlD2+VwYhVHicidoLqAzF+tAaVKlzgoOIXtY41BMEAUUHeNoaoNQ12PMM97mAr5lYpiU1uKZ31bluw02QOpHOYGOjN35SyjuwHQMXJQdHQiUexA6FS+U+4/fS1fl+3Ulbn9RBl6uvUfJIKCYla5buPvvR0SWWfySj+3Glala3aGyVHS6nc5f7Ql6uYlpDoFrwhB6KIcmYdBisuE/U2QdHR7OjqgjwTZDSpvw40qVEm6Q4gSpUOUKEEVKgKwlSiU4niIJa7QUIbQ6DbkEygqB1cJfmPJgcd8ldDpt5iVJrvAieCPGiHZDvwNmAFXhz5X3Qb3wBr6oiKUqNmV6ao0bwCHtKDLPBnhzwZX2xyVhNkhwpbukCKxAEMGNxcLBAoXUKeVyzFUz6kK0HTYQ4eoxm7tKBLT4lQtOiv8AYzYEQgAiZuDaULghuu8cvZFgYmPsS9NRdaJHT/gdDPuJkvj0hRIBqkqP6X++ne+cHw9a0zgjbStchf3jSmGmZc/ozbo6MB5ANHUWP81D4oPg6Xkb3wYjq0L1Kva/uVokqGx4D8EGHTu+VDodHmJsaMIzdQOhphR4hw1rQstvRg3psObDiVKNGDjuENFmI8Tb0L45twhoRmft69tapKIQhwhKlImUEhVKxl4o8UIcQJ4J4p4k4CHby3civZol+2PHjVxPDPGy7dZ/3IQOUx7x7DOhs46VVCsWJ3IxXasO2fieNDCaQVdhGa0MSNsyjtHARdlBo4grSEHLvqNm+JbYsQFmV2sKjq5d6jOyln/TFGdjKGn45U0/HMF18I8j8RL2W1EtoAbxMtX+IqAiwaHjxSDRdcCEEl/15/3YI0fPEd/ljwHIEOQlOSU5lkzLbP8AEdCuda9Nlcx0n/RnQ0INn80gR1Y7fh+jWpUcWwrh+F0g9X7Rs1CYJw4/IQkNLjBc/qmHQNpdMAOhZHMbWu0Yx93pfcJsQ6MlNnQ6k8dDMnC10HPSQ0Zn+M2mroNqEHV2isPC9TvJt6GZfMFHQ7RWJsOkuMNo6Og3dOyZXKla4ObfRUMvpwIaFTGSVldB+LBiBKlIiO084JRKJRKVBgkATxTxE8RBOjfGYG2f86X/AOuf8qH/AJ0GAAgcSql+KIWvFsolGa3FW03DEVgPc3IfmK4/af8Adi+wfmEsU7z4hRDyXceyf50QHtN2ymI2hi/iY8KNbT/MAtr70OfH+ojCDcN6hBQogWzDTAUAMt9wZUGU3kbgRa/mYsgwFdh/MMtv5I9+YnJUOMQAzG3/AITdX0wRt+4AJ4bYpLCsQ2iV9pgF+6YCYeRgpZ9WAtxHZ7R5Zj5Jf/vlG/yT1fuGil2hxHkKEpYOX9keDPDnhSgUoV+IKoTEuXoX5W+WXFg6G/C/1NhqxihPof1TYh0WXmyGptE2dDMvZNnQs5thqzNzboSpUz5m0hDV2mXr0Dpl75t6GWe6bTodpdEGOkZE7aujNSpUrRUMWXvqNiVrU3JQHiGrMweYaHQkeHxgxDVm6OJwhoxjUecOj7mYj46Gq9r9VDbV08ZB6VDcfpmDtwX46fgwNtXSheX+XqSozj9iaHoI+EvpAJRKlJaZ3/yNBDuR4yLdkeDKNTH3rLzbH/woyl94JoKcSzclYspGk8g/M/kwp5SlzBTcemLyVNj/ADFv98Cb/wCZZceezMOIcfwRWADu+IyxvPaG2+RDkvxK3DfiPZ+KV3ob3K3hVhZR/vlRn5Zyj5iiNLEMKt+ZV3fOlDbzs9uCbdGUmfjn/EiDn4pa7SXUyviUv9NOcGXdkeJFpTeDNsJX/Sn/AHJd0LslAzBOZSWRSYtKSyWS4rJe4m10E2wHpRQlaMyHSdpkJtl6XHaIpHjpVg1qbI7XV03Ifv0M3ocdQjtMY2NB1G3wm10My8DDboZlpDRmxm98vpde7PrNSXDfhaDbVjBk5/U0NWfzbTD+jGla/DgbaumT8/swNDTty2aVK0B5X6joqYeUYFEdKlRFXECOqswNDx6UfOv3NujpcfhR36elxckbXSuvk/vVjQn4crUolEoiOJdggRHEeInjJR4bylslm507/laIvcN53wng6Bfv+YKUVFm0W7/gz/typt80Uf75lb0BIAO/OyUG/wCk5jJsNDVYZSb2nKhzw5SeJFTcgHfCHknknmiYFIzSyWRSorMUGXo8TJy+h4it9unNTb6VS1VQJUNxtaGpv0pt1uM/ch0LEOfwIbQ12sy5WtcuYxD4nSsf81DboZ9D+nS6bylXp9Ng73w0Yx2Yaxfxhqxfm/YixoRjPsv101Ln9DVUqVLfC/roqULjvgoPDpFpx+z0nb4cNeuEdSvtTadGxn7H9w6M6MbDoYVbV0FhDRDVit+9VabCbZWrLPdDodIjaQ6NsdZnCeKJyy8pnoTJZTsQt3nvBXdseRKjeWboCbsvhgmyYMwa94dznQsx4J3EVNpdseKElPfPJjpuiPJMe6eJguzBezBjvKjDpHLqObRaCNwLHgzwZ4cqmDmLKCPITlk8KeYgV32TkSzmU5iBmyWBewwSWSyLFidjBDS9N6IH/OdXSmTifTOn8T/SGjoy58n6IdGHsz6x0/1+GjGMVehiMbovtoaXEV8j9obQl6MVq6fHLuPSsZ4aGKjK0pk4gr0ammfOSEJejD24K9J0rDxO3o3vU2/bCY1dMtrQ0uGqVElFRYl64EOXuDS4x7TbqTZFfvaGpv3zbDoVOUPK4uIdGGsQtNXiHAQJsm5NnRsiygmhL8Q2feNkzmpUolQlQFSkolERCVCiJlOI8RPCQhtEmyeJPEivbPHlbAJXYR0HDlWLtCsykJ7Yq7x/0JRtC680sGN0lDaFr/yS8gW5Go5KngpkwEX2k9qFDKZdNcIuMfEbsfBKO34lWISghC37gL2YAZTRFv7EqNPjvLuTT8wbgT3M3+SFm35mXh7mOnYe5Ub2FBv6EmbrEujNhpaIGfWEJBDf44X1IC96rqC7ZghEm0wNsYmKXgFqEPVppyG5aB/3Y+psu8chsf7l+wlawJTkniSnmK+cBN5ZBOYQwBV8ESt9bnclg5XouDG0Vf8At6ijRjqq/D+4aPSrHsTCbRhEnuTfeHTn6P7hx0Km8MNSOh2mdrpH5ugzdojV4YrYMuXEm4TbqR2m/wC2G3Q7lsIa4ir0MO7zHTcEL2DGG18mWrMXNUqouWMQkNdrNpjtIe6UEwtqbZv9O2ClgC2YDaKpglmS8vCI4uIUsoWRlkVGqdGLJNpqpGVT8zaakSE81uh0IuIAzmKJEe/ZN0p0EGWU4HJBhpU3PUqvyypUqDEQuKVcrLAviEqUaZ+RwJUolEQm4eOUiE8UeIl3o2D5YBxLOxP+VFf9UsQBUNQJ0Qo/MW/6Y7f4puEbrbFxqRhWwMo4N4gNgTdF8xUqvlK9j5Q53gueEy1MP5i7f2xXf8TFLd1PaX0RAVGAC/oZRtMhvfoRQTZIcz4iA764HUV8oSjBHzHdSNWPhjT/AI5n/tjjaADlYpGd75lBd3uVf7oRolsj5l1s1nMR/wBGUbr5h3IC0rOZWDWCvUO9PN2vxCv/AAw/8WBsF0yRzGAG08z8Svf6T+hDYCAnhUuNQpco3P2w2T+mW7fNEl2+YMgxfcngTxJcW090JEpKaWSweIRBJcWbo2a3Hh0nQiLxAc6XHlELNnRg/E2GpoqhjVyxeAcMCJxcunoCDZcVAE3hi8mswJ3HQdKISWqRBTSxURtxCAB2I8TNenZNkYhHDJW4DBM3DRBADwQ8phQSN+CjASyR0DR0Y8h5m0lwkHK7BLku8JFhzCDEDfLMb9ojzbSg90HBkRDhxO20bTAjrA7sNo8DyQW/zcsIUHuzCMbBC6pXYl8ptgmCBS97jQFIaun8Mr+PQlRQdiIA3b9mbcQOOV5gHX+xzDbVhne4ltMvzmGiJ6CAWwwmov8AWgSkxSuCEKdwbIJO4UnO4X5QlITS1EpA3WNFUtbH9sofENWZH5fiDQWTgJhWbaPAQcqAitZEIrQRktrg4CAAhFSeZ7OnNPE+CEYmnY5GAVA0QlEJ8Y/UpgomGX4Uh8iGnY7JsKC4R6yKEjsGXdkePP8AhTxI8EtCG1og45hR+BKu1C7Alv7RmxoSU5J/35T/ALYRRk3thmPnlW03htLaqlel7veHZU4R8aN4EIImdkYAlfKUXJOwE7QIEbIh2v5nN942cfcVsKIqaL8Ay8/wwtr6JVT6ZmV/RKBR/EP/AHE5EfhgCyE9WxNhDVYpAPRAS2FQKpDY4O0qCECwnbsMFFdG7HjZKCiLKMrsaUKUF51vTa6TaFY2IzaRm9C2u1gjAucQgAxA90ODoZ9qDExgGzJiCgloQ1i7sIwiAeYaCbkrOsfoSPce8fmU9Q0p3GICW6vEyxeEuXAxATK0CgBwjgqB32dXGF1OGBK0VL5Q9Htgd0h1GW35hM4NhYbytYVzCjtfy1cl4f2w1doSOOhxPQwlsgcwezr28wC7JCpiHzCTdErgCJGXugLW6yxNrfEHcXcahxT+VHyp0nCquZDQ3Zf94xYDUDl5ieLVRikrcOhozaeFA2vtvDmMgWSzMMT8wZTmTEObz/1ZrlZ/8mAymWgLmfgs/gYrNLhGN8Nn0a0cjFgeWqZsXhIg3YXZJ4lxlmNu8LbLw4DmI7Zww1fYbTJ77YlYNmkdH1PLAsJTn2gnDwD6mJGrR7EfN9Jj7EHxwlhL0r/NDBbAugSsT76CBKmAxXSh2YEqITcghpRGLZRlNJJwUQ4o8E2x2hIcJPEi+5jwJRQdiHEIaMuHE+NlU88OeeeBeYL2YcSHNPJMm8312gFndleZeoicp5J37tHSt7pSVgJSHUZUuLLiiogpubASyD0I7YzHSE2kdVjpVi4EslYHtoTKECDFES53Ax1XfdAxNhmAFBKFMT76W8QIgUwTBqSXiWLUKDNBeiHvT6fUhAGJ88YBJp3IqOy7w0Yv7cwhGZFd7wLN3I30X+3Q4DGlNu1sXjYytgLfKiEXdH7oQoMSuIygQYmwS4eC/bL3yE/EqU9jgnYMIFk2794TDH5CpUP9VDoz8L/qU7AN3xsTLnseYGl982I3YpAU5X5iYizHgJlkqwww2SWKtWLL/m/pm01Iyth3+oNHcoFbH3ocJPY4JQq42C6oxqTV4gfi5QNbAsONBn5ihuSvibYCVL25sQd1EfThJG3DRi+i24sd2og2Rxc/4QLJlhrrQuEBteYZkAasNoZ0HAysRu+NO6YFgCZXu3UEPAEDRhr3tBCYk5do4B3mLFKR2IOY6tpMxFDoJiutiYk4QHJO73EsuL3UebxCp4eZR/lTDm6jY6iBp2vMEPwR44cM8ele4i8E8E8egC4C4HGPFZcbstygzvi0w/ciMjGJzbpXNfMHFTXOM3NxyEHgGHeMR2vpeWGoqgDLnbtEO6c7Fd8pFkNC2RDSPLGjFwbuVW0Kcw5JyQPtDTbCbGKgRvFKCvESFagrgyjsh37ocaeHPHhwJe4TGUyp40GMGZdyecm9zdChZgzzTzSnMrzAwveTCYZcuCRrwH7oMHQAjE9kVO7/AC9OZyENLjMiuAzV0ZBvKoHH6NDRWKx8x8w2Ip5IfjnmEY7CuKXbqflibEt2ZiYUh3pADBuV8j6I2S9L0ao+DQ3XcJRlKbWW5luHXiqhoIb3ciB6nGYY3dzS76iInbuICrFE4FqVREWtlUovN3RFkGUqNhXBRF7IP6QFZxL2mW7DqVRNhAWITihDEZbM4Zm1ufwQE3BDu0Cko1YPm0EEuMyWBEQztKRKlMAEVAZMxXrSQ0dpZqgzHB5YBBWIc0vMFopvi92aiPN4xIql24NozeTZDVl6YFA0GXqEDDoqObcrVJiRhaNIM5Y6TaGjAMFBrUSVGDBpRERE2IECJ4ieI9olBieCeKeOeJKe0u6IcEeGHCh2BOElGqCx4EX3JXsJS2jK4t30+naAO0vLg6o7ocqgfMIwxFuY/wDZKBudz7Il/wBk/wCnP+nKf+sItbCLVBTi+WUFTJQyAq7H5IdpRXZkzy+6L+Ma4dntCFUbH5hTkShwJv3rFxpkZtY+WByFGzE0+9D/ANqC7n5jrRmnwTmPzP6sB3/My5+aHCg2TihyozJLuw2YfxL1XeiLcQAPbHefBPB/iJ7nwlbX0yzFuuIMAqOdYlCQrtgxYIGsGRTyTRhNpDbSwbJlv+QM8KeNDkJ5CWJfefQMrbkpKSkRCD3SNhLIgmiJAYzeSLcZVZ2sohWF0QSyAnwD4IbQLghGUyxMkKXcQm1jAWwIEIYOzF0HaXL3NhoaPEdLGriA+EwaVKzSVqhpw6DRiV15hKivLBCo9ecSICGiFlREz2QAGjHcmyGrMjvsgxjMC4jHYbQFjLiCUzcHa5O0B99oGV5gjto42IasVKBeZrEVsIBCU0WpWjF8kHExpUuPfBQAwUSZtEEBGGEw6NkanwQ1ubC4Xga2S48pYkGp4WlUQg2SM5Bf3Bpz3DjusGMfaEQiqf1NU0PVgu/gnhFIa3M/BEJcBQTGINxn4IK84vyyuhUPMghUZjQRneYKlEdCfmT6yUaDSNI1R2T5EA4lE8BPAQFa2TGYzZPClnZP+NH/AMyEMC1bcEEMmPBiXbA7IniGWorcZQzM+NlO1/M93zFUu2SnFnpgRx80XKmRIutNqXNgQgJy7OO6ASC0gYdR8UCUpvI95AtgXulTsScRUB7fmHdHzAlrZDmTKZJLlttiMYncDEQgWf4jVgYkypEIRm2TugLJ0FnZE7wzAkIGOidiFmx+YdYQ4WkVsYc8Eikdy7xhhly9EXhGCIVoxX78WIQlTZPQ00S6BHb5RGoLiLXOVaD4kRm7SnFpsiQTZWrWcIaXGYqcuWZhTEl/QcFxwzKYm8mI6BZdoPOBiBUEuoO8MplApszuKBCBC07zgxKvDlexHlawMGN1YjKvEXtQaWBFaXtDIbOmzoizIEXdJkHUhpXmWBGEqZCHCJCDSTmDBAfLojihDiAQCE3EYZ4gBbmggImTeJc2kOFhswxH2CYQwGtxlDG6saQUVeILKm0YiCnCyoIGLbQWyzCKZeoQylja+I1pp35YzNhMwmoNShT0tjz+gwgBVoJuPGRAlgdBn5+oy5ZozGHD0oMWGENttLji5ihA6GmKcfrmOhWaMk2i6Kpe/M26Ai9o8m50WHn9vQoZYAG57epsI4YgV59CF/nnQY6ET1wYIaOhPjklEqVKr4JsyiHBPBHgn4XKyeCeMgjIRA5WXcECZECNkOKPG0grs0lvbCDZSIKSeCB4tn/chsVNxO8F2P8AMKY+2PZ+WAkKhaYQw5WR/cgcMNcH4hsO+gMK0YyOxN+TFbQOXuGW0shpAUBC71aMSnY7EYnlC1Uly49piEvozJWXM21ZL1DfYlWIE7TbmzW5u/pKW8MrIgd/EGFCGmNd2hCUmSQl40GKS2TbQMAKNptEEgvMc6FoPAGipRZ/MGXExBNpjArHMPYph2lIwaLrSz8vHM4A9+xAcbKXK/zaG08kr0LZYl8Ruw1PsYKUUV5CCaK2IoEU7MKMbiT2xuZ18IMEuJotEFugqOYHQwBEC7pYO9Zwd48mQfEXijJ/EZU2oIEcRvhKvucsDKGtbb+GoOB2nQTOY7RkaFSxCg9xKzgV7GPnobsV4yE84meVHdhyKCqEcKUNaOvSHywJ6iERfOJVu6rPHHTOhSQ3C4GyqVL6GLcfpndfySgrKqYh9ypsOvtKKXLF3ABN4xi5kyBklGOpb2n3n/Sryl5ZhmWU0O1SwGb6SYrTg4xLMFreWB7JYxwQtDbg5naAp8t963o2/VEpMmABdFix17GiCDp9abWhqqCFg0NFj4mpYVg7TMwypWgKklwErQlx4e4YQYSMfBCV+5slwrlSK8OGFMF1GiK+yZSqMI6Gd/vQdJVKaYyWYhCGiEEGZnlg8808sYGYIZnknkniS7vEAuVN9B5oFriSGmIrUuUjBcKwEGK1WgCkZKV0xLGUQYlXBtgcQ8KK1WUOXzqRcO7glJXFyheYZhhjW4ndlEAbEZpqkvSEaFm6lwKJtITE4GCAFBLjoLDwhKOhjiCLcWLDAbELLOWB0AFQ3p3oNjsH6hHd2QioTEAJf+CUVKegStUgSvWLhgIDvDMDuwabCmXgopUwNEp7exAjKB/NJtepUQhzCAEBOzswmYBsInYK6P4PEQWwfql4cQWlfdPAJGvDiN4VseCGY2CKxnDWzRjpgZkN7j8s2YjunDy7MHwQE1LZ5htod0Rap2eYbS/FmARyGyy4b4gMX9MOjdMtgubF1mWvYiESnAS5t1TeeKOLVbEGycskViDHU9npc2yEAJ7haazO5iAAYMasBmIqxTviQRjMgeZtNCNKZVlvH1FsQySJLox431FM8wga7zAR6xfguHKyZ58ItJdMEX2kjZDVYm9jYgIckFPNi5ninhjwQIsjyXR4ieGeBKoiBiVjrPaJgjbuxT3QZ2pflFBzKWNEOTQIEBKikKgHvKirdphmXcr7aM4s5ZpRt6C2tCQ5U8+JHMg1RbzzZgWuVGIDBhMNdBN0d4V74kkhvBMAWHxSoCpRBPsx8/xB+fiDBcrCO0YouYSMsE7sZQVwlNvEN5GkRAlrnfkBATJJkEwXsgS2SxsnJ8fqHGiO8v8AuaJtj/4SkQxgu0vChwocKNGli/UOYnkg290ywQixL32WUZVriy46K7/rRlaOp4eY0WtFsf2Rd6AfiAx+ZRoyxuPsYaIiEMyMXbRctDn9mAErRZ527naMp0MCcaA4lmKgetN7+M9QC084o3t1Fy0yBqG0bhCKVOWKCoBmeoa0sn6mxrcJs+k2QYYAqI+txYkxDBLdBAi94pvu1wZRhQRnbNpDQAiQYMN3sgmyS5N8sEqbRpOL2iAmRVLDTcCNAb0MOSNEIYqZsIa7IPwkCJqxLxqiODc46GP54pZLlyyLGbCY0Yy7JA6RUGlExNsNuVlEoiICoUKSmikAKEV71DwSvEIWIifFDggjutSkBCMRNtzwk8aeBPHDvBNudocceBPAnhRYdwIU7J4M8OUdsX7ZjAwoPuZZvJiXSr7Yp0LeeNAUSxrrZGPL7Gx3IMPIYBdDnzH/AKJsT8pW923fwR3z8pRt8kAyfNF/9kB/sxArZcePyxGwxh1TCuF+6UiW7Wdg+74nJ9IOA69S1qWs4V4jx48eUwAdEnNiG8Am7PefDFOVcvALtjxcGxAVFk/MeaKe4EhniAZLDBOlSgzwmMG0jeCKnNwrV/DEs/TEGTl3b4QQ7/EQCOFiG6/GnH7JxmBN4FcMFfmEADFhSdqxc2RncSoC5SEFJDmlYRrDRTLl6ViExsNFcMvgLLoDtDR0GAqxXMXLkGGhWrB95shq7SqvcAqUlJ2ZFEcDBthLFiYxywVEdDW8Kt7wY0JUwGAU8BAjUvWCYCkYwbeKxSrXrUdpnBCmAlt4WVCairdBuxdgo3YKWyXuBzLa6RHdInTZC6VkK0q6CpykyVSXKR4jy6XSmV+5UQ7wYsIbHek0QSs1A6BBVlg4iVOZ4oIq9MVD4ly4Qna8kGDps+jCPRuzj/KENW6isfSOUWiohQ3cHS6lD0JCFP8ALpUTRh5C+5gaEqVPv/rDWoq9iVF4JWiSoivj/OYlaFSv5UJFS5UqIe0qHxJE2niJ4CeMi+ydp7sOJP8AhRhJ9suisQsBE8OFG2OkFALpkewMq2WJ5z2Rty5J2y/Mo0HK9pcCgG8b1nW87fGUeyXyg4SZQG0PthDjg45ZNQGnuS1wu5U2TwYcGcojOWHd0p2c5CnkTeuDDaQpucKf8cq3+KJsHwlOwYOqH3K2rChSEhpV2hiVDVgzmbwMbaLnrKETK0RSpzCqC/YIECMdpkCb2SQwAtlQRdTa4gxMIusIZhcxYjyLS+0GIfq8Nr4TdmzQ02wVYAhWVO8txWG25UO4S5SRvehi1UBEwgMBnxMwVRK0VFxLSINXQ7DCAsa2idp7ssQjNzRKcbwlS12nchHRYdOZUuyMeeIgu/8AjQw0Nn2TaQdL0zKB6GP45CGrtF8tIHS31iB0G/D1O55T51On8vmDoa5f2YldN/U0dVWDFE+Zel6OvYi+H0tJzwasdtEasv8AmYcOhJU1wlT9abTStGItBiAa/Ugx0UqFDZKJRKJS4BKJSU4jwQoDieKeFPEhCivEIEv7geAzwJ4MuMEqMGGqp+pU8m6OZYwrD8yMdvsTml2mxL12QLkDDGmzrKaqEvqGxATfZQI2ComWLvUSv87DRpjoVKFBau0KgcmF7ZaiKrWW8pYd9DoqKupcsemECCYdpsgjZYqRIxFXsYQsFiA7+Kkx4vZLJuP17SvIBEiszbtLQ0M1MZkaPHliiYRjyORAhL6EODV0q6oWXFhlkXf/ADdLw8h+5teun+7ySui4wLd/d1dL4JbOm4+IL1Z/B5mxo6MfqQGl6W/LlLukVjx+6PBCLjFiWP0v5EV9BUQZX9XCOjMvzIMEOj6BNhK0Sbug12TfCHRBiENNkMOh1DaStfrTahDV0omYYVl+J6zPugTHYRHxCkYAgZSlxK92Dd55J5ZSiBhEYBnklbeXGYc0DzAcyzmBaAFeZZLIigDsXGapdCkJJWAZToLmdLQeIF5KUERuhnEuohNTdEMjoIHlJdHcqY/mEAEuXF8eLEuDLlzPwDNnQz6UnRuQp7fs6SM7/s6mfj/Z02DDXlX8vVjKUedEMNV6JPgaGuPu/YmzpGfAP2wY64e7BR8DoYc/n+4QZcufWlfwdJtvLNnQxfy5h0NK+M2HRcQydGgdN2Goa7XSugXI4Oja6TpW06MfRKsgxDVSOKImUnilSO98ODS8WlUcReKXbieGeEjwThS+ol2iSrAmVjfvLcp5so74Q3Ra3jFxwTM1PeCMM8sTlE1FiS4G2id48cSZIUMSmSHhtDvTWisxqO9iRJaN6BARzR50OXPKgO9xQ2ov3SrZwPdEFriK4Um+Jd08uPOjsyyaykAN8UG7SGGZVqkxBAvd/csYtALsSsCR3nX+SFavND/xJ2a+EbtmeyNgCpu/MfN8QTn4he2JBnC/E/AI2rHJ+VYm6WIMXtl3Zpr5XQX4ZWZgjfBxZ40PzGw+CHGlRkTjh/1oWoL/AIUvAJ4sFar8zxJ5CXazTllkpA/NiHP2yyLUuUjviv8AuCVLlkuL4WYeqXLly4qHyxY0WXFm8yJev1c2mq6VftIoMNLFisuGu5qDL0qE263Hhhh0Zy2kNfpz6kNL0VQaPgIytdjO6+YQ12PXuShKldFXRtm3Q6Bxo6ITegwaIaVL1AUlEogJRK4xCqUSiUlEzKAKlEpARGgwVKSkpKSrEgiJTiUgIR9MlZSAcRCE2u0AtyQHErK8SnEAYdx+4GeKPFPGgfYhbwXX9zwo8CeBKuyBWCGAZH9zwZebdI8GUUMj9MJqIcGHFhx5TDfCz4sX3MNLLM3J/LDEYDbIyXTG2/2nngQlxoU4f55Rt88Y2XrdC1FiMpQCmOceqZDOI7g/yhI3YOgA3ERsraEhYSmPGTnMT7GXqBFqDFXi96fmNu6ubnmy8yiFAvdMGVKyJHgYSU4DAm6PNoEdCtQ7wryIcKHEhwJ3Q3JTZhwIcCeJFvJtNhSHChxocsOaBuQa3gkslxFOkly5eieJcuXGQYejpC6TadO9DiHQsoN3zO3RtYN+hjomzodDb6ds2aMdGBNhGMrRbRY0Ncn2m2V0bXzDoYsHU3HiSOrKL9F2ir2NENajQOf3wdV0yDj90NajpuFop0VT8v1Kg1NHfgelMNGDwG3Qx34g0GOit+cHxtK0qfy96BK0B+JhPwyiVGKg+2EBKMrE1KTiA5QMOKHEjxQ/lKW04EeMjxR4oGvcX2l/aE/DFQcMTwTw6IHE7nQoczNnbBrCwXOWyAyQrMtOenIxXaXsSx5YJwNepXe34iJB34NJoqWLN4aXp9mbOgYoODpBUFaVK1DR0MvabHTshwlQOuMubZsR1Yb9k26ENKg5Zsh0Kz8w20rXL0dQZ/CEY6tvv6cH8pf8aHQRT5Zs1dN349DV17M+k6WAcyG3SKW92l9MG3oY8Xj9JUrX6MNFMS9GOU8f3oEvTH1MXxQdWbT3DghozM9QqsqBXRjjSpUGJl7oQhoGibIaXHT0kvRmx09ughKlQYzZpUqAhmdb0ZT5ixpeqqFhLl6qlMg6suLV3L02Q0dCOmyHBreiJtNWO07ZtjqzZm3QNFhv3QxL6BcjS4Rjm3iHTdT1Do2MNeboLn2UFet03jhZs6c+c0TX7+ADx6fB1/pNnTmLnpMz/q5t6Rn5T8aHX6XQr0+NI20vRV7kxDwQ0XQ/Czbo6bX1C9SNiOjFG/laSEJ2ww313tJ0UD6m0hrt1Grozb0KvTLfjhq1UMAXiOIXyjWK8pb3RhglLZEbDMmzBJWEqACczPLLu880XfSvPOaDSQTLKRPJPJPJHkhcw6ynMpzFCWTNC4wSkuWRlbIFS9WBJ4lwdSmaXp2mK+oMvS4sMsGGqze3ukIMdHhiPzen6cXwmhrR7D+CBjpR+L9Nb0+/0RcNWId6g0qJoCPH99I/i7zZ0LN7yf1BvS9ds9NnnkS9dp5Q0XiGjCLH5RdG96hx6fsMWCOi6Mn2wQhCb+gYwTFtFpcuIl4gy5cWfQXo8Zsl9E2ItGbJcOJSpWV4ieJ4IAog1tPBPFDgnigjaVmIcJPEniIcCH2SuxDgim5K5VAhDp92ezHzZTMQuXO7DRBisGYEinvOz0VIiuuArhlc5XaxLbxgISgiyRzYCNGxAqd0oNpYzfHVCzZ2lHZC7Jj2pO4Y17RNeE44LciDuRG3BFcguBA5hxkKdi49oRowEyaF1ALG1sK0Fd4twBLGBUeJE4AxGNu6I9oSvsmfbWntoAmphWE7PR/Gg5mGADOXsIQykK6wO5oLSCZQAHYlZ3sTJpnzYjZA+5Nm3Eu6AbuCNMnIWgb9/wC2JyiiV4ZsGyxTfExG8pJPSq3tG8upC3h74+f4mTd+J3ldpQm9ojHmie9Yd0xsLEBXtjx4f+hLtvmijXdGhTAnjTyGoFdwMGEAjFDeIL6Jcs50XCq8s2aMYpUJX2w2hFpXBY0xGPKbSHS7TW4s/UWIMGDFiw9RY6VsQ12zN4GiGqUznoEYtptOl4IcIdBuocEOjahlGmIxYk2aJKiS4zBKRIkETGDGiiURAjkwrTEQiTacRRASkpERWHAQSiUSoCKx6QJUqVBKo3KJRpUqN4n1zTGlTbnk+IBUqUlEolPwP1pUpKhOEcBsdko0qVNrzACUSiUiFQz+DMBKOJRPBAjhRieKeOYdp4ZtPt/UOJHhTxJyCFTSNGI8TQL7iVbGXE7NCqjwaZG4Itp52C2WI5QZ3y602lEkHtaDHMiQ2nECpaiO0DvqB72hLk2UCFSeKLzIu5SNErcVKmRekO5L2xGXgkAbE4aeFGZDETZBDhwTeWTz4jJlIXIlJm3wn/FjELheZypR3lO5niRhb7Stshx54E8SUFJlJsIOu9O750dGMWE2a3GbEGDQixm+MAgw0WolJsly9FjU+Ya4jFxgStKjNiDGro7YdGyK3Dodoc0NHTZ1fbNvt6VXomXS5l6hoeugiooNa0z8YPqHQq9+fRdOfgmasdorf9Z0WXozj29DPUWfBDaMqUTGrn9oUPQw+iDaMdPuZsPGhpjTnghEgR/EzMwJUxKJ9JgwSohEgKZRgEogIiArASkAlQKhQEpKxq2lLzhTwSrtF+yDwErGJ4p45454ZsxBTaPElvbQG65JsQZejqA3+Wbado6VcnQwXLZ05S26DFjBIdCmUjUjtHMBjodBtq6k6NmkOhUaQHW5tZ9mHRvx2ezp+nMfV00YcIsdAzKAGOqzode3PoHSn3KGrHAy7+e8vRlx/CmLUjtF8iHRu/1mbfrSoRmTQaJEhsY2+i449hA0uL4mYDWtDcGw1SHDKjCVKiMcuErW7iZkGiw9zZDoulF0M2IrQgxgyNtL0+nm2ENKFBRi6Xo7RXAehj1F6MQmbYdB4tVy9HZFjQ0WIMGjosdIzbEKIdDtHc+0I6LKM/MaXq3I1XBt0bkrn5dQ+v00eQJs6bPCSvGl6Mv/AIvjpx9U+sR1uXv8j7h0LKVpW3+ToY8PP6E2w1Y76PubclhrcWP5CEuXLn0IaEuDHXXglyyXFXqjxLxBl6XNRrTH1MrRCEGICZqAoRdMMUdB7myGtxnxQhdGBmw0HRmft6SC/GbCGrpysgonhlOGIOzBezAHeWYJjuQHtEtBqlFjEA02PnlkQwI3lLvDnhzxgKGBBbPNKcysEN4MA1KysRzAqBZuFG8roBzDreWODLIwsZTNywTRSCR4iv3Tto6PDM0xcsiCASLKOi/ODCYlxV6Z95lyyXLlczD15Y6qS9KSHU0WPzhHS4FTGuYjcEjUsjM/EZT1Lly5ZMG0i4uiLSz8/wC4uqzIznfxFiDDQRKwRNy5ceMtqLqLA8tmi5cuOreI/glwZcuO/wAMGOi4eUwGXCEIihg6XLm58MsBDaXmPEYn5ZgQSXLiMPM2wSLoZvbywgWDLjsHmLCXDRgZPMNuhWPkx0RalAcwhKjxTwTwTxSo4ItK7wkS8EeMjxwZJeOeGeMiRtBtFbqrwzAl2kEfOWG8pgNbw85flLcp5Ja5k7h0zyYxtOYBulc49mCJJVMxd8wIXYCQCbxd7LMGFM7zPPLO5PJpNqELUQMJDlI3ZSWCXeYkVd4U7y+U3bInHEMeyHKdCoe0yw/aIkpWF30hKw+CQ9/bh24J2vnMElJLwK071d4NJVUnHcJxyKTuS3uMvuEpZVcE5TMkIdp9UVfl9F6VVaMbbGcwZZgQ58kqD2DPCnJAV7m1QqGSLzJ5iZ9ycFEpkeGecgdo5yBpWpDNVHuhPCmbZEuyHXlISNGgCmZYNdonZLFYniZc7MIA28BKOzPZCB542viEA6E54ckOSMBtGzg0S0qD4ZWIE1VZRfzKmgCUilwKlSIjLjL28wWEXCFunM2oMuXLGPY7M0uXooHuDHQ//9k=;" vertex="1" parent="1">
                    <mxGeometry width="1600" height="799" as="geometry"/>
                </mxCell>
            </root>
        </mxGraphModel>
    </diagram>
</mxfile>